<?xml version="1.0" encoding="utf-8"?>
<!-- Generator: Adobe Illustrator 25.4.1, SVG Export Plug-In . SVG Version: 6.00 Build 0)  -->
<svg version="1.1" id="Layer_1" xmlns="http://www.w3.org/2000/svg" xmlns:xlink="http://www.w3.org/1999/xlink" x="0px" y="0px"
	 viewBox="0 0 261.8 67.7" style="enable-background:new 0 0 261.8 67.7;" xml:space="preserve">
<style type="text/css">
	.st0{enable-background:new    ;}
	.st1{fill:#FBF9FA;}
	.st2{fill:none;}
</style>
<g class="st0">
	<path class="st1" d="M40.7,68.3c-0.3,0-0.5-0.1-0.8-0.2c-1.7-0.9-5.8-4.4-12.2-10.5c-1-0.9-1.9-1.8-2.9-2.8
		c-1.4-1.4-2.9-2.9-4.6-4.3c-3.9-3.6-7.9-6-12-7.2c-1.6,9-2.4,15.3-2.4,19c0,1,0.1,1.7,0.2,2.1C6,64.4,6,64.6,6,64.7
		c0,0.4-0.2,0.8-0.6,1c-0.2,0.1-0.3,0.1-0.4,0.1c-0.4,0-0.8-0.2-1-0.6l-0.3-0.9c-0.2-0.7-0.2-1.7-0.2-3.1c0-3.7,0.6-9.6,1.8-17.6
		c-0.1,0.1-0.2,0.2-0.3,0.2c-1,0.4-2,0.6-3,0.6l-0.6,0l-0.1,0c-0.4-0.1-0.7-0.2-1-0.5C0.1,43.6,0,43.3,0,42.9c0.1-0.7,0.4-1.1,1-1.4
		c1-0.5,2.1-0.7,3.3-0.7c0.5,0,1,0,1.4,0.1c0.3-2.1,0.7-4.3,1.1-6.5c2.1-11.9,4.1-21.9,6.1-29.9c0.1-0.5,0.4-0.9,0.8-1.1
		C14,3.1,14.4,3,14.7,3c0.7,0,1.2,0.3,1.6,0.9c0.2,0.3,0.3,0.6,0.3,1c0,0.3,0,0.4,0,0.5s-0.3,0.8-0.7,2.5c-2.4,8.9-4.7,19.3-7,31.4
		c3.8-3,8.2-7.9,13.3-14.5c1.1-1.4,2.2-2.8,3.3-4.2l6.8-8.7c3.3-4.4,5.7-7.2,7.3-8.2c0.4-0.3,0.9-0.4,1.3-0.4
		c1.1,0.1,1.6,0.5,1.6,1.3c0,0.1,0,0.3-0.1,0.4c-0.2,0.5-0.6,0.8-1.1,0.8c-0.2,0-0.3,0-0.5-0.1l-0.1,0.1c-1.5,0.7-4.8,4.5-10,11.3
		l-4.9,6.5C19.3,32,13.7,38,8.8,41.5c2.5,0.8,4.8,2,6.8,3.4c2.7,1.8,5.1,3.7,7.1,5.8c2.1,2,4.1,3.9,5.9,5.6c6,5.5,9.9,8.7,11.8,9.6
		c0.2-0.1,0.4-0.1,0.6-0.1c0.4,0,0.7,0.1,0.9,0.4c0.2,0.2,0.2,0.4,0.2,0.7c0,0.4-0.1,0.7-0.3,0.9C41.6,68.1,41.2,68.3,40.7,68.3z"/>
	<path class="st1" d="M27.2,49.6c-0.3,0-0.5,0-0.6-0.1c-0.7-0.3-1.1-0.6-1.3-1.1s-0.3-1-0.3-1.6c0-1.2,0.3-2.6,0.9-4.1
		c0.6-1.8,1.4-3.4,2.3-4.8c0.9-1.5,2.1-2.7,3.5-3.5c0.6-0.3,1.2-0.5,1.9-0.5c1.2,0,2.1,0.5,2.6,1.6c0,0,0,0.1,0,0.1c0,0,0,0.1,0,0.1
		c0-0.1,0.2-0.4,0.6-0.9c0.4-0.6,0.7-1,0.8-1c0,0,0.1,0,0.2-0.1c0.1,0,0.2-0.1,0.3-0.1c0.6,0,0.9,0.4,1,1.1c-0.2,0.8-0.6,2-1.2,3.6
		c-1.1,2.9-1.6,4.9-1.6,6.1c0,1.3,0.5,2,1.6,2c0.6,0,1.3-0.2,1.9-0.6c1.8-1.2,3.4-2.9,5-5.2l1.6-2.5c0.2-0.3,0.4-0.5,0.8-0.5
		c0.2,0,0.3,0,0.5,0.1c0.3,0.2,0.5,0.5,0.5,0.8c0,0.2-0.1,0.4-0.2,0.5c-1.8,2.4-3.2,4.2-4.3,5.4c-2.1,2.2-4,3.5-5.7,3.7h-0.2
		c-1.2,0-2.1-0.6-2.8-1.7c-0.3-0.6-0.4-1.3-0.4-2.1c0-1,0.2-2.2,0.6-3.6c-2.5,4.3-4.6,7.1-6.2,8.3C28.3,49.3,27.8,49.5,27.2,49.6z
		 M27.3,47.3l0.1-0.1c0.3-0.1,0.7-0.4,1.2-0.9c1.5-1.4,3.3-3.8,5.5-7.2l0.1-0.2v-0.3c0.1-0.4,0.1-0.7,0.1-0.9c0-0.9-0.3-1.4-0.8-1.4
		c-0.2,0-0.5,0.1-0.8,0.3c-1.4,0.8-3,3.2-4.5,7c-0.6,1.5-0.9,2.7-0.9,3.5C27.3,47.2,27.3,47.2,27.3,47.3z"/>
	<path class="st1" d="M50.4,47.9c-1.2,0-2.1-0.4-2.8-1.3c-1.3-2-1.9-5.1-1.9-9.3c0-3.1,0.4-6.6,1.2-10.4c0.8-4.2,2-8.2,3.5-12.1
		C43.1,15,37.9,15.4,34.9,16c-0.7,0.2-1.2,0.3-1.4,0.4s-0.3,0.2-0.4,0.2c-0.1,0-0.2,0-0.3-0.1c-0.1,0-0.2-0.1-0.3-0.3
		c-0.1-0.1-0.1-0.3-0.1-0.4c0-0.2,0.1-0.5,0.4-0.7c1.4-0.7,5.7-1.2,13.1-1.6c3.2-0.1,5-0.2,5.4-0.2l0.2-0.4c1-2.3,2.1-4.2,3.4-5.7
		c1.3-1.6,2.6-2.4,3.9-2.4c0.7,0,1.2,0.2,1.5,0.7c0.3,0.5,0.5,0.9,0.5,1.3c0,1.4-0.5,3.3-1.6,5.7L59,13.1l3.8,0c5,0,8.1,0.2,9.3,0.6
		c0.5,0.1,1,0.3,1.3,0.5c0.3,0.3,0.5,0.6,0.5,0.9c0,0.2-0.1,0.4-0.2,0.6c-0.3,0.3-0.5,0.5-0.8,0.5c-0.3,0-0.5-0.1-0.6-0.3
		c-0.1-0.1-0.1-0.2-0.1-0.3c-1.8-0.4-6.4-0.7-13.9-0.8c-0.6,1.4-1.3,2.7-1.9,4c-2,3.8-3.7,6.7-5,8.9c-1.1,1.7-1.7,2.7-2,3.1
		c-0.7,4-1.1,7.1-1.1,9.3c0,4.1,0.8,6.2,2.3,6.2c0.2,0,0.4,0,0.6-0.1c1.3-0.4,2.9-1.3,4.5-2.8c1.3-1.2,2.6-2.5,4-4
		c0.4-0.5,0.8-0.9,1.1-1.2c0.4-0.4,0.8-0.7,1.1-0.7l0.4,0c0.4,0.1,0.6,0.3,0.6,0.7c0,0.4-0.2,0.7-0.7,0.7c-0.4,0.2-1.6,1.3-3.4,3.2
		C57.9,43.1,57,44,56,44.8c-1.5,1.4-3,2.4-4.5,2.9C51.2,47.9,50.8,47.9,50.4,47.9z M50.1,26.6c1.4-2.1,3.1-4.9,5.1-8.5
		c0.6-1.1,1.2-2.2,1.7-3.4l-3.3,0C52.2,18.1,51,22,50.1,26.6z M54.2,13.2l3.4-0.1c1.2-2.4,1.7-4.3,1.7-5.6c0-0.6-0.1-0.9-0.2-1
		c-0.2-0.1-0.3-0.1-0.3-0.1c-1.1,0.2-2.5,2-4.1,5.5C54.5,12.4,54.4,12.8,54.2,13.2z"/>
	<path class="st1" d="M61.1,47.6c-0.6,0-1.1-0.2-1.4-0.7c-0.1-0.1-0.1-0.1-0.1-0.2c-0.1-0.1-0.1-0.1-0.1-0.3
		c-0.1-0.1-0.1-0.1-0.1-0.3c0,0,0-0.1,0-0.1v-0.5c0-0.7,0.1-1.6,0.3-2.6c1.6-7.8,2.6-12.2,2.9-13.3c1.3-5.7,3-10.9,4.9-15.6
		c1.2-2.9,2.5-5.2,3.9-7c0.9-1.2,2-1.9,3.1-2l0.4,0.1c1.1,0.2,1.6,1.2,1.6,2.9c0,0.6-0.1,1.3-0.2,1.8c-0.6,3.2-1.4,6-2.4,8.6
		c-2,5.2-4,9.2-6,11.9c-1,1.4-2,2.7-3.2,3.8c-0.5,2.1-0.9,4.2-1.3,6.4c1.9-2.5,3.9-4.8,5.9-7c0.1-0.1,0.2-0.2,0.3-0.3
		c1.2-1.2,2.2-1.9,3.1-2.1c0.3,0,0.6,0.1,0.8,0.2c0.6,0.3,1,0.9,1,1.8c0,0.2,0,0.4-0.1,0.5c-0.4,2.1-0.6,3.7-0.6,4.7
		c0,0.8,0.1,1.6,0.4,2.2c0.6,1.2,1.7,1.9,3.3,1.9c1.3,0,2.4-0.4,3.5-1.1c1.2-0.9,2-1.7,2.5-2.4l0.7-1c0.2-0.3,0.4-0.4,0.7-0.4
		c0.1,0,0.2,0,0.4,0.1c0.3,0.2,0.4,0.4,0.4,0.7c0,0.1,0,0.2-0.1,0.4c-0.6,1.1-1.8,2.4-3.6,3.9c-1.6,1.1-3.1,1.6-4.7,1.6
		c-2,0-3.6-0.8-5-2.3c-1-1.3-1.5-2.8-1.5-4.4c0-1.1,0.1-2.1,0.4-3.2l-0.7,0.5c-2.8,2.5-5.1,5.6-6.7,9.3c-0.1,0.3-0.4,0.8-0.8,1.7
		c-0.3,0.4-0.4,0.7-0.4,0.8c-0.2,0.3-0.4,0.5-0.5,0.6c0,0,0,0,0,0C61.7,47.5,61.4,47.6,61.1,47.6z M65.3,31.2
		c2.4-2.8,4.8-7.2,7.2-13.2c1-2.5,1.8-5.3,2.2-8.3c0-0.3,0.1-0.6,0.1-0.9c0-1-0.1-1.7-0.4-1.9h-0.2c-0.7,0.4-1.5,1.6-2.4,3.5
		c-2.4,5.3-4.5,11.9-6.4,19.9L65.3,31.2z"/>
	<path class="st1" d="M88.1,48.5h-0.3c-0.8,0-1.5-0.2-2.3-0.6c-0.8-0.5-1.4-1.1-1.8-2c-0.5-1.3-0.8-2.5-0.8-3.8
		c0-1.9,0.5-3.9,1.5-5.8c0.7-1.4,1.6-2.7,2.8-3.8c0.6-0.6,1.4-1,2.3-1.2c0.2,0,0.3-0.1,0.5-0.1c1.1,0,1.9,0.4,2.3,1.3
		c0.2,0.4,0.2,0.7,0.2,1.1c0,0.9-0.5,1.9-1.5,3.1c-1.3,1.5-2.5,2.7-3.6,3.5c-0.6,0.5-1.3,1-2,1.6c-0.1,0.5-0.1,1-0.1,1.5
		c0,0.6,0.1,1.2,0.3,1.8c0.4,1.1,1.3,1.7,2.5,1.7c1.9-0.1,4-1.1,6.2-3.1c1.7-1.5,2.9-2.8,3.7-3.8l1.2-1.6c0.2-0.3,0.4-0.4,0.6-0.4
		c0.2,0,0.3,0,0.5,0.1c0.3,0.2,0.4,0.4,0.4,0.7c0,0.1,0,0.3-0.1,0.4c0,0,0,0,0,0c0,0-0.5,0.5-1.4,1.6s-2.2,2.3-3.9,3.9
		C93,46.8,90.6,48.1,88.1,48.5z M86,39.5l0.1-0.1c0.1-0.1,0.2-0.1,0.3-0.2c0.9-0.6,1.5-1,1.7-1.3c1.1-0.9,1.8-1.8,2.3-2.9
		c0.2-0.4,0.3-0.8,0.3-1.1c0-0.3-0.2-0.5-0.5-0.5c-0.4,0-0.9,0.3-1.5,0.9C87.6,35.6,86.7,37.4,86,39.5z"/>
	<path class="st1" d="M98.7,48.8c-0.7,0-1.1-0.3-1.4-0.9c-0.1-0.2-0.1-0.4-0.1-0.5s0-0.2,0-0.2c0.1-0.7,0.2-1.6,0.4-2.6
		c0.2-1,0.3-1.7,0.4-1.9c1.1-5.4,2.1-9,2.9-10.7l0.2-0.6c0.2-0.4,0.5-0.6,1-0.6c0.2,0,0.3,0,0.5,0.1c0.4,0.2,0.6,0.6,0.6,1l-0.2,2.1
		c-0.2,1.3-0.6,3.2-1.1,5.5c1.9-3,3.4-5.3,4.7-6.7c0.7-0.8,1.5-1.2,2.4-1.2c1.3,0,2.3,0.8,2.8,2.5c1.1,3.4,2.7,5.1,4.8,5.1
		c0.9,0,1.7-0.2,2.4-0.5c0.9-0.4,1.5-0.7,1.8-1c0.1-0.1,0.3-0.1,0.4-0.1c0.2,0,0.3,0.1,0.5,0.2c0.1,0.2,0.2,0.3,0.2,0.4
		c0,0.2-0.1,0.4-0.3,0.5l-0.7,0.3c-1.8,1-3.4,1.4-4.7,1.4c-0.8,0-1.7-0.2-2.7-0.5c-2-0.9-3.4-2.6-4-5.1c-0.1-0.4-0.2-0.7-0.4-0.8
		l-0.4,0.2c-0.6,0.3-1.3,0.9-2.1,1.7c-1.8,2.2-3.4,4.9-4.6,7.9c-0.1,0.3-0.6,1.5-1.5,3.7c0,0.1,0,0.1,0,0.1c0,0-0.1,0.2-0.3,0.4
		C99.5,48.5,99.1,48.8,98.7,48.8z"/>
	<path class="st1" d="M123.3,48.6c-0.3,0-0.7,0-1-0.1c-0.1,0-0.2-0.1-0.2-0.1s-0.1,0-0.2-0.1c-0.1,0-0.1-0.1-0.2-0.1
		c-0.1,0-0.2-0.1-0.3-0.1c-0.3-0.2-0.6-0.4-0.8-0.7c-0.4-0.6-0.7-1.2-0.8-1.8c-0.1-0.8-0.2-1.5-0.2-2.2c0-0.4,0-0.8,0.1-1.1
		c0.3-2.2,0.8-4.7,1.5-7.5c0.1-0.5,0.2-0.9,0.3-1.3s0.2-0.8,0.2-1.2c0.1-0.4,0.3-0.8,0.6-1c0.3-0.2,0.7-0.4,1.1-0.4
		c0.5,0,1,0.2,1.3,0.7c0.2,0.3,0.3,0.6,0.3,1c-0.1,0.7-0.5,1.9-1,3.6c-1.4,4-2.1,6.8-2.1,8.3c0,1.5,0.5,2.3,1.6,2.3
		c1.9,0,4.5-1.8,7.6-5.4c1.8-2.1,2.9-3.3,3.2-3.6c0,0,0.1-0.1,0.2-0.2c0.1-0.1,0.3-0.2,0.6-0.2c0.2,0,0.4,0.1,0.6,0.2
		s0.3,0.4,0.3,0.6c0,0.2-0.1,0.4-0.2,0.5c-0.1,0.2-0.3,0.3-0.4,0.3c-0.2,0.1-1.2,1.2-3.2,3.2C128.2,46.4,125.3,48.6,123.3,48.6z
		 M123.9,28.6c-0.6,0-1-0.6-1-1.8c0-0.2,0-0.3,0-0.5c0.1-0.8,0.6-1.2,1.6-1.2c0.8,0,1.2,0.5,1.2,1.5c0,0.4-0.2,0.9-0.6,1.3
		S124.3,28.6,123.9,28.6z"/>
	<path class="st1" d="M133.5,48.8c-0.5,0-0.9-0.2-1.2-0.5s-0.4-0.8-0.4-1.3c0,0,0,0,0-0.1c0.2-1.2,0.7-3.5,1.6-6.9
		c1-3.8,1.7-6,2-6.7c0.3-0.7,0.5-1.3,0.7-1.8c0.2-0.5,0.5-0.8,1-0.8c0.1,0,0.2,0,0.4,0.1c0.5,0.2,0.7,0.5,0.7,1
		c0,1.5-0.5,4.1-1.6,7.9c2.7-3.9,4.6-6.4,5.6-7.4c0.7-0.7,1.3-1,2-1c0.6,0,1.1,0.2,1.4,0.6c0.5,0.7,0.8,1.5,0.8,2.6l-0.1,3.6
		c0,1.3,0.1,2.4,0.4,3.3c0.3,1.1,1.1,1.6,2.4,1.6c0.5,0,1-0.2,1.6-0.5c1.1-0.6,2.2-1.6,3.3-2.9l1.4-2c0.1-0.2,0.3-0.3,0.6-0.3
		c0.1,0,0.2,0,0.3,0.1c0.2,0.1,0.3,0.3,0.3,0.6c0,0.1-0.6,0.9-1.7,2.4c-0.5,0.6-1.2,1.4-2.1,2.3c-0.5,0.4-1,0.8-1.5,1.2
		c-0.8,0.5-1.7,0.8-2.7,0.8c-1.8,0-3.2-0.7-4.1-2.1c-0.5-0.9-0.9-1.7-1.1-2.7c-0.1-0.7-0.1-1.4-0.1-2.1c0-1,0.1-2.1,0.2-3.1
		c0-0.2,0.1-0.4,0.1-0.6c-1,0.7-1.9,1.5-2.8,2.6c-2.3,2.8-4,5.8-5.3,9l-0.4,0.8c-0.2,0.5-0.3,0.9-0.4,1c0,0.1,0,0.1-0.1,0.2
		c0,0-0.1,0.1-0.1,0.2C134.5,48.4,134.1,48.7,133.5,48.8z"/>
	<path class="st1" d="M159.8,48.5h-0.3c-0.8,0-1.5-0.2-2.3-0.6c-0.8-0.5-1.4-1.1-1.8-2c-0.5-1.3-0.8-2.5-0.8-3.8
		c0-1.9,0.5-3.9,1.5-5.8c0.7-1.4,1.6-2.7,2.8-3.8c0.6-0.6,1.4-1,2.3-1.2c0.2,0,0.3-0.1,0.5-0.1c1.1,0,1.9,0.4,2.3,1.3
		c0.2,0.4,0.2,0.7,0.2,1.1c0,0.9-0.5,1.9-1.5,3.1c-1.3,1.5-2.5,2.7-3.6,3.5c-0.6,0.5-1.3,1-2,1.6c-0.1,0.5-0.1,1-0.1,1.5
		c0,0.6,0.1,1.2,0.3,1.8c0.4,1.1,1.3,1.7,2.5,1.7c1.9-0.1,4-1.1,6.2-3.1c1.7-1.5,2.9-2.8,3.7-3.8l1.2-1.6c0.2-0.3,0.4-0.4,0.6-0.4
		c0.2,0,0.3,0,0.5,0.1c0.3,0.2,0.4,0.4,0.4,0.7c0,0.1,0,0.3-0.1,0.4c0,0,0,0,0,0c0,0-0.5,0.5-1.4,1.6s-2.2,2.3-3.9,3.9
		C164.7,46.8,162.4,48.1,159.8,48.5z M157.8,39.5l0.1-0.1c0.1-0.1,0.2-0.1,0.3-0.2c0.9-0.6,1.5-1,1.7-1.3c1.1-0.9,1.8-1.8,2.3-2.9
		c0.2-0.4,0.3-0.8,0.3-1.1c0-0.3-0.2-0.5-0.5-0.5c-0.4,0-0.9,0.3-1.5,0.9C159.4,35.6,158.5,37.4,157.8,39.5z"/>
	<path class="st1" d="M179.1,67.7c-0.3,0-0.6-0.1-0.8-0.3c-0.2-0.2-0.4-0.4-0.4-0.8l-0.1-0.8c0-0.3,0-0.6,0-1V64
		c0-3.1,0.6-8.9,1.6-17.3c-1.1-0.2-2-0.5-2.8-0.9l-0.4-0.3c-0.3-0.2-0.5-0.4-0.5-0.8c0-0.2,0-0.3,0.1-0.4c0.2-0.3,0.4-0.5,0.8-0.5
		c0.1,0,0.3,0,0.4,0.1c0,0,0,0,0,0c0,0,0.3,0.1,0.9,0.4c0.4,0.2,0.9,0.3,1.6,0.4l0.9-6.6c1.7-11.3,3.1-19.8,4.4-25.6l0.5-2.4
		c0.1-0.5,0.4-0.9,0.8-1.1c0.3-0.2,0.6-0.3,1-0.3c0.7,0,1.2,0.3,1.5,0.8c0.2,0.3,0.3,0.6,0.3,1l0,0.4l-0.6,2.3
		c-0.4,1.6-0.8,3.6-1.3,6.2c-1.5,7.4-3,15.7-4.5,25.1c2.4-0.4,5.1-1.5,8.1-3.4c1.9-1.2,3.8-2.7,5.7-4.5s3.6-3.8,5.2-6.1
		c1.5-2.4,2.8-4.9,3.9-7.7c1.1-2.8,1.7-5.6,1.7-8.5c-0.1-4.7-2.3-7.8-6.7-9.4c-2.1-0.8-4.3-1.1-6.7-1.1c-1.9,0-3.9,0.3-6,1
		c-2.1,0.7-4.1,1.6-6,2.9c-3.5,2.4-5.9,5-7.3,7.8c-0.6,1.2-1,2-1.1,2.7l-0.3,1c-0.1,0.3-0.2,0.6-0.5,0.7s-0.5,0.2-0.7,0.2
		c-0.4,0-0.7-0.2-1-0.6c-0.1-0.2-0.2-0.4-0.2-0.6l0-0.3l0.3-1.1c0.6-2.2,2.2-4.6,4.6-7.2c3.2-3.5,7.3-6,12.2-7.5
		c2-0.6,4.1-0.9,6.3-0.9c4.7,0,8.5,1.1,11.3,3.3c1.4,1.1,2.4,2.4,3.2,4c0.8,1.8,1.2,3.7,1.2,5.8c0,3.1-0.5,6.1-1.6,8.9
		c-1.1,3-2.5,5.8-4.2,8.3c-3.3,4.6-7.4,8.3-12.2,11c-3.6,2.1-6.8,3.2-9.7,3.5c-1.4,9.3-2.1,15.1-2.1,17.5l0,0.9c0,0.2,0,0.4,0,0.6
		l0,0.9c0,0.3-0.1,0.5-0.3,0.8S179.5,67.7,179.1,67.7z"/>
	<path class="st1" d="M212.1,48.6c-0.3,0-0.7,0-1-0.1c-0.1,0-0.2-0.1-0.2-0.1s-0.1,0-0.2-0.1c-0.1,0-0.1-0.1-0.2-0.1
		c-0.1,0-0.2-0.1-0.3-0.1c-0.3-0.2-0.6-0.4-0.8-0.7c-0.4-0.6-0.7-1.2-0.8-1.8c-0.1-0.8-0.2-1.5-0.2-2.2c0-0.4,0-0.8,0.1-1.1
		c0.3-2.2,0.8-4.7,1.5-7.5c0.1-0.5,0.2-0.9,0.3-1.3s0.2-0.8,0.2-1.2c0.1-0.4,0.3-0.8,0.6-1c0.3-0.2,0.7-0.4,1.1-0.4
		c0.5,0,1,0.2,1.3,0.7c0.2,0.3,0.3,0.6,0.3,1c-0.1,0.7-0.5,1.9-1,3.6c-1.4,4-2.1,6.8-2.1,8.3c0,1.5,0.5,2.3,1.6,2.3
		c1.9,0,4.5-1.8,7.6-5.4c1.8-2.1,2.9-3.3,3.2-3.6c0,0,0.1-0.1,0.2-0.2c0.1-0.1,0.3-0.2,0.6-0.2c0.2,0,0.4,0.1,0.6,0.2
		s0.3,0.4,0.3,0.6c0,0.2-0.1,0.4-0.2,0.5c-0.1,0.2-0.3,0.3-0.4,0.3c-0.2,0.1-1.2,1.2-3.2,3.2C217,46.4,214.1,48.6,212.1,48.6z
		 M212.7,28.6c-0.6,0-1-0.6-1-1.8c0-0.2,0-0.3,0-0.5c0.1-0.8,0.6-1.2,1.6-1.2c0.8,0,1.2,0.5,1.2,1.5c0,0.4-0.2,0.9-0.6,1.3
		S213.2,28.6,212.7,28.6z"/>
	<path class="st1" d="M239.3,50.4c-0.1,0-0.3,0-0.6-0.1c-2.3-1-3.6-4-4-8.9c-0.5,1-1.4,2.3-2.6,3.9c-0.5,0.7-1.2,1.4-2,2.1
		c-1,0.8-1.8,1.1-2.7,1.1c-1.5,0-2.7-0.9-3.4-2.8c-0.8-2-1.2-4.7-1.2-8.1c0-3.5,0.4-7.2,1.3-11.2c0.8-3.8,1.9-7.6,3.4-11.3
		c-10.1,0.4-15.9,0.9-17.2,1.6c-0.1,0.1-0.2,0.1-0.3,0.1c-0.5,0-0.8-0.3-0.8-0.8c0-0.3,0.2-0.5,0.5-0.7c0.4-0.4,3-0.7,8-1.1
		c3-0.2,6.5-0.4,10.5-0.5c1.7-3.9,3.5-6.6,5.7-8.1c0.6-0.4,1.1-0.6,1.7-0.6c0.7,0,1.2,0.2,1.6,0.6c0.4,0.4,0.6,0.9,0.6,1.6
		c0,1.1-0.5,3-1.6,5.8c0,0.1-0.1,0.2-0.2,0.4l3.8-0.1c0.8-2,1.9-3.7,3.1-5.1c0.4-0.5,1.1-1,1.9-1.3c0.3-0.1,0.5-0.1,0.7-0.1
		c1.3,0,1.9,0.8,1.9,2.3c0,1-0.2,2.4-0.7,4.2c2,0,3.9,0,5.6,0.1c2.4,0.1,4.3,0.3,5.7,0.5c1.7,0.2,2.5,0.7,2.5,1.5
		c0,0.2-0.1,0.4-0.3,0.6c-0.3,0.3-0.5,0.4-0.7,0.4c-0.3,0-0.5-0.1-0.7-0.4c0,0-0.1-0.1-0.1-0.1c-0.3-0.3-4.5-0.5-12.6-0.8l-0.1,0.4
		c-2.2,7.6-4.7,14.4-7.6,20.4c-0.7,1.4-1.2,2.3-1.4,2.6c0,0.7-0.1,1.4-0.1,2.1c0,2.7,0.3,4.8,0.9,6.3c0.5,1.2,1,1.9,1.6,2.1
		c0.3,0.2,0.5,0.4,0.5,0.7c0,0.1,0,0.2-0.1,0.3C239.9,50.2,239.6,50.4,239.3,50.4z M227.5,46.9c1,0,2.2-0.8,3.6-2.4
		c1.7-2.1,2.9-4,3.5-5.9c0-0.1,0-0.3,0-0.7c0-1.8,0.1-3.7,0.3-5.7c0.5-6.1,1.9-11.9,4.1-17.3h-3.8c-0.7,1.5-1.3,2.9-2,4.2
		c-2,3.7-3.6,6.7-5,8.8c-1.2,2-1.9,3-2.1,3.2c-0.7,3.8-1,6.9-1,9.3c0,1.9,0.2,3.5,0.6,4.8C226.2,46.3,226.8,46.9,227.5,46.9z
		 M226.9,27c1.2-1.6,2.9-4.5,5.2-8.5c0.6-1.1,1.2-2.3,1.8-3.5c-1.2,0-2.3,0-3.5,0c-0.5,1.3-1,2.7-1.4,4.1
		C227.9,22.4,227.2,25,226.9,27z M230.9,13.5c1.2-0.1,2.4-0.1,3.6-0.1c1.2-2.5,1.8-4.5,1.8-5.8c0-0.4,0-0.7-0.1-0.8c0,0,0,0-0.1-0.1
		c0,0-0.1-0.1-0.1-0.1s-0.1,0-0.1,0s-0.1,0-0.1,0c-0.6,0-1.3,0.6-2.1,1.7c-1,1.5-1.8,3-2.5,4.6C231.1,13.1,231,13.3,230.9,13.5z
		 M237.5,34.2c2.7-5.4,5.2-11.7,7.4-19.1l0-0.1l-3.2-0.1c-1.2,3.8-2.2,7.5-2.9,11.2C238.2,29.1,237.8,31.8,237.5,34.2z M245.4,13.2
		c0.4-1.5,0.6-2.7,0.6-3.6c0-0.8-0.1-1.2-0.3-1.2c-0.4,0-0.9,0.4-1.4,1.1c-0.9,1.3-1.5,2.5-1.8,3.5l-0.1,0.3H245.4z"/>
	<path class="st1" d="M243,61c-0.5,0-1-0.1-1.5-0.3c-0.8-0.4-1.3-0.9-1.7-1.6c-0.4-0.8-0.6-1.7-0.6-2.6c0-1.7,0.4-3.3,1.3-5
		c1.2-2.1,2.6-3.8,4.2-5.3c1.1-1,2.2-1.8,3.3-2.6c-0.7-0.7-1.4-1.5-2.1-2.3c-1.1-1.3-1.6-2.7-1.7-4.2c0-0.3,0-0.7,0.1-1
		c0.2-1.8,0.8-3.3,1.9-4.4c1.3-1.3,2.9-2,4.7-2c1,0,1.8,0.3,2.5,0.8c0.9,0.7,1.3,1.7,1.3,2.7c0,0.4-0.1,0.7-0.2,1.1l-0.1,0.4
		c-0.1,0.4-0.4,0.6-0.8,0.6c-0.1,0-0.2,0-0.3-0.1c-0.4-0.1-0.6-0.4-0.6-0.9l0-0.2l0-0.1c0,0,0-0.1,0.1-0.2s0-0.2,0-0.4
		c0-0.9-0.6-1.4-1.7-1.4c-0.5,0-1,0.1-1.5,0.4c-1.1,0.5-1.9,1.4-2.3,2.8c-0.1,0.4-0.2,0.8-0.2,1.3c0,0.4,0,0.6,0,0.6s0,0.1,0.1,0.2
		c0.2,1,1,2.2,2.3,3.6c0.3,0.3,0.6,0.7,0.9,1c3.9-2.4,7.1-3.9,9.4-4.5l0.9-0.2l0.2,0c0.2,0,0.3,0.1,0.5,0.2s0.3,0.3,0.3,0.6
		c0,0.4-0.2,0.7-0.7,0.8l-0.8,0.2c-2.4,0.5-5.4,1.9-9,4c1.2,1.7,1.8,3.6,1.8,5.8c0,1.4-0.3,2.7-0.8,4.1c-1,2.5-2.5,4.6-4.7,6.2
		c-1,0.8-2.3,1.4-3.7,1.7C243.5,60.9,243.3,61,243,61z M242.8,59.1c0.2,0,0.4,0,0.6-0.1c1-0.3,1.9-0.8,2.8-1.5
		c1.8-1.5,3-3.3,3.7-5.4c0.3-1,0.5-2,0.5-2.9c0-1.8-0.5-3.4-1.6-4.6c-1.1,0.8-2.1,1.6-3.2,2.6c-1.5,1.4-2.8,3.1-3.8,5
		c-0.7,1.4-1,2.8-1,4.1c0,0.7,0.2,1.3,0.5,1.9C241.7,58.8,242.2,59.1,242.8,59.1z"/>
</g>
<polygon class="st2" points="253.5,231.6 255.7,231.6 255.7,231.6 "/>
<polygon class="st2" points="524.4,160.6 526.6,160.6 526.6,160.6 "/>
</svg>
