<?xml version="1.0" encoding="utf-8"?>
<!-- Generator: Adobe Illustrator 25.4.1, SVG Export Plug-In . SVG Version: 6.00 Build 0)  -->
<svg version="1.1" id="Layer_1" xmlns="http://www.w3.org/2000/svg" xmlns:xlink="http://www.w3.org/1999/xlink" x="0px" y="0px"
	 viewBox="0 0 132.9 132.2" style="enable-background:new 0 0 132.9 132.2;" xml:space="preserve">
<style type="text/css">
	.st0{fill:#FBF9FA;}
	.st1{fill-rule:evenodd;clip-rule:evenodd;fill:#FBF9FA;}
</style>
<g>
	<g>
		<path class="st0" d="M53.2,84.3c-0.4,0-0.6-0.2-0.7-0.6l-0.1-0.8c0-0.3,0-0.7,0-1.2c0-3.8,0.6-8.9,1.7-15.3
			c-5.6,2.7-12.9,4-22,4.1c-6.9,0-12.8-0.9-17.5-2.6c-2.4-0.9-4.2-1.9-5.4-3.1c-0.7-0.7-1.1-1.2-1.2-1.5l-0.3-0.5
			c-0.1-0.2-0.2-0.5-0.2-0.7c0-0.5,0.2-0.9,0.7-1.2c0.2-0.1,0.5-0.2,0.8-0.2c0.6,0,1,0.2,1.2,0.8l0.3,0.5c0.1,0.2,0.2,0.3,0.2,0.4
			s0.2,0.3,0.5,0.6c0.9,1,2.3,2,4.3,2.9c2.2,1,4.7,1.7,7.6,2.2c3.5,0.7,7.3,1,11.2,1c5.6,0,10.6-0.7,15-2c2.2-0.7,3.9-1.4,5.2-2.2
			l0.5-2.7c0.8-4,1.9-8,3.3-12.2c0.9-2.5,1.9-4.4,3-5.9c0.8-1,1.6-1.5,2.5-1.5c0.3,0,0.7,0.1,1,0.3l0.1,0.1c0.5,0.5,0.7,1,0.7,1.7
			c0,0.7,0,1.2-0.1,1.8c-0.7,3.2-1.9,6.6-3.7,10.4c-1.9,3.8-3.5,6.6-5,8.2c-0.2,0.9-0.4,1.7-0.5,2.6c0.7-0.9,1.6-1.8,2.8-2.7
			l0.4-0.3c0.7-0.6,1.7-1.2,2.8-1.7c0.3-0.1,0.7-0.2,1.1-0.2h0.1c0.6,0,1.1,0.2,1.5,0.6c0.3,0.5,0.5,0.9,0.5,1.4
			c0,0.5-0.2,1.1-0.5,1.6c-1.4,2.1-4.1,4-8.2,5.6c-0.1,0-0.1,0.1-0.1,0.3c0,0.1,0,0.3,0.1,0.4c0.5,1.7,1.4,2.9,2.7,3.5
			c0.5,0.2,1.1,0.3,1.6,0.3c0.6,0,1.2-0.1,1.8-0.4c1.8-0.7,3.5-1.9,5-3.6v0c1-1.1,1.7-2,2.2-2.7c0.2-0.4,0.4-0.6,0.4-0.6
			c0.1-0.2,0.3-0.3,0.5-0.3c0.1,0,0.2,0,0.4,0.1c0.2,0.1,0.3,0.3,0.3,0.5c0,0.2-0.1,0.3-0.2,0.4l-1.3,1.5l0,0
			c-0.8,1-2.1,2.2-3.8,3.7c-0.9,0.7-1.9,1.4-3.1,1.9c-0.9,0.4-1.8,0.6-2.6,0.6c-0.5,0-1.1-0.1-1.6-0.3c-1.5-0.6-2.7-1.6-3.4-3.1
			c-0.1-0.3-0.2-0.5-0.3-0.6c-0.5,3-0.9,5.3-1.1,7.1l-0.2,2.9c0,0.2-0.1,0.3-0.2,0.4S53.4,84.3,53.2,84.3z M56.1,69.9
			c3.7-1.7,6.1-3.2,7.2-4.7c0.1-0.2,0.2-0.4,0.3-0.6l0,0v-0.2l0,0c0,0-0.2-0.1-0.5-0.1c-0.2,0-0.3,0-0.4,0.1
			c-0.5,0.1-0.9,0.4-1.4,0.7c-1.4,0.8-2.6,1.8-3.6,2.7C56.8,68.6,56.3,69.4,56.1,69.9z M57.2,62.9c1.1-1.5,2.3-3.7,3.7-6.5
			c1.8-3.8,3-7.2,3.5-10.1c0-0.3,0.1-0.6,0.1-0.9c0-0.9-0.2-1.4-0.6-1.4c-0.3,0-0.8,0.4-1.2,1.1c-0.8,1.6-1.6,3.3-2.1,5.2
			c-1,3.1-2,6.7-2.9,10.8L57.2,62.9z"/>
		<path class="st0" d="M67.4,95.8c-0.2,0-0.5-0.1-0.6-0.2c-0.2-0.2-0.4-0.4-0.4-0.7s-0.1-0.6-0.1-1c0-1.5,0.2-3.8,0.7-7
			c1.6-10.8,2.5-17.3,2.7-19.4c0.1-1.3,0.2-1.9,0.2-1.9l0.1-1.3c-0.1-0.2-0.2-0.4-0.2-0.6c0-0.2,0.1-0.5,0.3-0.7s0.4-0.3,0.6-0.3
			c0.3,0,0.6,0.1,0.8,0.4c0.4,0.4,0.6,1.2,0.6,2.2c0,0.7-0.1,1.5-0.2,2.5c-0.1,1.2-0.6,4.8-1.5,10.7c0.4-1.3,0.8-2.7,1.3-4
			c2-6.4,4.2-10,6.7-10.8c0.3-0.1,0.6-0.1,0.9-0.1c1.1,0,1.9,0.3,2.6,1s1,1.5,1,2.7c0,0.7-0.1,1.4-0.3,2.1c5-2.6,10.6-4.6,17-6.2
			c4.5-1.2,9.1-2,13.8-2.4c1.1-0.1,2.2-0.1,3.3-0.1c1.3,0,2.6,0.1,3.8,0.2c3.8,0.4,6,1.8,6.7,4.1l0,0.3c0,0.2-0.1,0.4-0.2,0.7
			c-0.2,0.3-0.5,0.5-1,0.5c-0.6,0-1-0.3-1.1-0.9c-0.1-0.7-0.7-1.2-1.6-1.7c-1.8-0.8-4.3-1.2-7.7-1.2c-0.7,0-1.4,0-2.1,0.1
			c-4.6,0.3-9.1,0.9-13.6,1.9c-7,1.5-12.9,3.6-17.7,6.1c-1,2.7-2.5,5-4.3,6.9c-0.8,0.8-1.6,1.3-2.4,1.7c-0.3,0.1-0.6,0.2-0.8,0.2
			c-0.2,0-0.3,0-0.5-0.1c-0.6-0.2-0.9-0.6-0.9-1.2c0.1-0.9,0.6-1.8,1.4-2.8c1.5-1.7,3.1-3.2,5-4.3c0.8-1.5,1.2-2.9,1.2-4
			c0-1-0.5-1.5-1.4-1.5c-0.5,0-1.1,0.3-1.7,0.8s-1.2,1.3-1.8,2.3c-1.1,2-2,4-2.7,6.2s-1.4,4.4-1.9,6.6c-1.2,4.9-2.1,9.4-2.7,13.6
			C68.1,95.5,67.8,95.8,67.4,95.8z M74.3,77.7c0.9-0.4,2.3-2.2,4.1-5.2c-1.3,0.9-2.4,2-3.3,3.2C74.7,76.6,74.4,77.2,74.3,77.7z"/>
	</g>
	<g>
		<g>
			<g>
				<g>
					<g>
						<path class="st1" d="M131.1,62.2c-0.1,0.1-0.1-0.2-0.2-0.2c0-0.3,0-0.8,0.1-0.7L131.1,62.2z"/>
					</g>
				</g>
			</g>
			<g>
				<g>
					<g>
						<path class="st1" d="M124.6,31.9c-0.6-1-0.5-1.2-1-2c-0.5-0.8-0.6-0.6-0.9-0.9c-1.7-2.3-3.2-4.6-5.1-6.4
							c-0.9-0.9-1.8-1.9-2.7-2.8c-0.9-0.8-1.9-1.6-2.8-2.3c0.1,0-0.2-0.3-0.5-0.6c0.2-0.1,0.6,0,1.1,0.3c4.4,3.6,7.7,7.7,11.1,11.9
							C123.2,28.9,125.2,31.8,124.6,31.9z"/>
					</g>
				</g>
			</g>
			<g>
				<g>
					<g>
						<path class="st1" d="M77.5,0c-0.3-0.2-1.3-0.3-1.2-0.5C77-0.3,77.4-0.1,77.5,0z"/>
					</g>
				</g>
			</g>
			<g>
				<g>
					<g>
						<path class="st1" d="M71.4,11c-0.8,0-2.6-0.1-3-0.2c-0.6,0.1-1.1,0.1-1.9,0.1c-0.7,0.1-1.4,0.1-2.4,0.2
							c-0.2-0.1-0.3-0.2-0.4-0.3C65.9,10.2,71.1,10,71.4,11z"/>
					</g>
				</g>
			</g>
			<g>
				<g>
					<g>
						<path class="st1" d="M27.4,13.2c0.8-0.6-0.6,0.7,0.1,0.1c-0.1,0.2-1.1,0.9-1,0.7C26.7,13.8,27.4,13.3,27.4,13.2z"/>
					</g>
				</g>
			</g>
			<g>
				<g>
					<g>
						<path class="st1" d="M7.5,34.1c0.1,0,0.1,0.2-0.2,0.7C7.2,34.8,7.2,34.6,7.5,34.1z"/>
					</g>
				</g>
			</g>
			<g>
				<g>
					<g>
						<path class="st1" d="M-0.1,73.7c-0.1,1.5,0.2,1.3,0,2.2c0.3,1.3,0.5,2.8,0.8,4.3c0.1,0.8,0.2,1.5,0.4,2.2
							c0.2,0.7,0.3,1.4,0.5,2.1C2,85.8,2.4,87,2.8,88.3s1,2.6,1.5,3.9c0.5,1.3,0.9,2.7,1.6,3.9c0.6,1.3,1.2,2.6,1.9,3.8
							c0.3,0.6,0.6,1.2,1,1.8c0.4,0.6,0.7,1.2,1.1,1.8c1.6,2.8,3.6,5.2,5.1,7.5c-1-0.7-2.2-2.1-3.5-3.8c-1.2-1.7-2.3-3.7-3.2-5.3
							c-0.4-0.6-0.7-1-1-1.4c-4.2-8.3-6.9-14.8-7.3-22.6c-0.3-1.3-0.4-2.4-0.6-3.9c0-0.2,0-0.5,0.1-0.5C-0.4,73.2-0.2,73.5-0.1,73.7
							z"/>
					</g>
				</g>
			</g>
			<g>
				<g>
					<g>
						<path class="st1" d="M11.4,104.1c0.5,0.7,1.4,2.1,1.2,2.1c0.6,0.6,1.1,1.6,1.9,2.5c0.5,0.7,1,1.5,1.4,2.2
							c0.5,0.7,1.2,1.4,1.8,2.1c1.2,1.5,2.6,3,4.2,4.4c1.6,1.4,3.1,2.9,4.9,4.2l2.6,2c0.8,0.7,1.8,1.2,2.7,1.8
							c0.2,0.4-0.6-0.1-1-0.2c-1.4-0.9-2.6-1.8-3.9-2.6c-0.6-0.5-1.2-0.9-1.8-1.3c-0.6-0.5-1.2-0.9-1.8-1.6
							c-3.4-2.6-6.5-6.5-8.9-9.7c-0.4-0.7-1-1.6-1.7-2.6c-0.3-0.5-0.7-1-1.1-1.6c-0.3-0.6-0.7-1.1-1-1.7
							C10.8,103.9,11.2,104,11.4,104.1z"/>
					</g>
				</g>
			</g>
			<g>
				<g>
					<g>
						<path class="st1" d="M27.4,121.2l0.1-0.1c0.8,0.6,1.7,1.2,2.4,1.8c0.8,0.6,1.7,1.1,2.5,1.6c-0.4,0-1.4-0.6-2.1-0.8
							C29.2,122.6,28.3,122,27.4,121.2z"/>
					</g>
				</g>
			</g>
			<g>
				<g>
					<g>
						<path class="st1" d="M32.6,126c0-0.3,1.9,1,2.3,1.3C34.2,127,33.5,126.4,32.6,126z"/>
					</g>
				</g>
			</g>
			<g>
				<g>
					<g>
						<path class="st1" d="M80.2,134.2c0.3-0.2,1.7-1,2.7-1c1.1-0.5,2.3-0.8,3.6-1.2c1.3-0.5,2.7-1,4.1-1.6
							c-0.2,0.3,1.3-0.3,1.6-0.5c-0.1-0.1-0.9,0.5-0.7,0.1c1.9-0.8,3.6-1.7,4.8-2.4c0.1,0.1-0.2,0.1-0.2,0.2
							c0.1,0.1,0.4-0.2,0.7-0.3c-0.1,0.1-1.9,1-1.1,0.5c-0.4,0.2-0.4,0.3-0.9,0.5c0.9-0.3-0.2,0.4,1.2-0.3c0,0.1-0.7,0.3-0.6,0.4
							c-0.4,0.2-0.4,0-0.8,0.1c-0.3,0.2-1.1,0.6-1.8,1c-0.6,0.3-1.2,0.5-0.8,0.5c-0.9,0.5-3.1,0.8-3.9,1.4c-0.7,0.3-1.4,0.5-1.9,0.7
							c-0.6,0.2-1.2,0.4-1.8,0.6C83.3,133.3,82,133.7,80.2,134.2z"/>
					</g>
				</g>
			</g>
			<g>
				<g>
					<g>
						<path class="st1" d="M97.2,127.2c0.4-0.2,0.9-0.3,0.6,0C97.3,127.4,97.2,127.4,97.2,127.2z"/>
					</g>
				</g>
			</g>
			<g>
				<g>
					<g>
						<path class="st1" d="M98.6,126.3c0.6-0.4,0.6-0.2,1.1-0.5C99.4,126.1,98.6,126.4,98.6,126.3z"/>
					</g>
				</g>
			</g>
			<g>
				<g>
					<g>
						<path class="st1" d="M101.6,124.8c0-0.2,1.2-0.7,1.8-1.2C103.5,123.8,102.3,124.4,101.6,124.8z"/>
					</g>
				</g>
			</g>
			<g>
				<g>
					<g>
						<path class="st1" d="M104.6,122.7c0.3-0.3,0.3-0.6,1.1-1C105.5,122,105.2,122.2,104.6,122.7z"/>
					</g>
				</g>
			</g>
			<g>
				<g>
					<g>
						<path class="st1" d="M123.9,105.1c0.4-0.7,0.8-1.1,1-1.1C124.6,104.2,124.1,105,123.9,105.1z"/>
					</g>
				</g>
			</g>
			<g>
				<g>
					<g>
						<path class="st1" d="M85.3,124.9c-0.9,0.3-1.8,0.4-2.8,0.7s-1.8,0.4-2.6,0.8c-0.5,0.1-1,0.2-1.5,0.4c-0.5,0.1-1.1,0.1-1.6,0.2
							c-1.1,0.1-2.2,0.2-3.3,0.4c-1.1,0.2-2.2,0.2-3.3,0.2c-1.1,0-2.2,0.2-3.1,0.3c-1.4-0.1-3-0.1-4.5-0.2c-6.9-0.9-14-2.1-20.6-4.5
							l-1.4-0.6c-2-0.7-3.9-1.6-5.9-2.7c-1.1-0.5-2.1-1.3-3.2-2.1c-1-0.8-2.2-1.5-3.2-2.5c-2-1.9-4-3.7-5.6-5.7
							c0.1-0.1,0.1-0.1-0.2-0.4c-1.7-1.8-2.9-4-4.2-6c-0.7-1-1.2-2.2-1.8-3.2l-0.9-1.7c-0.3-0.6-0.6-1.1-0.9-1.7
							c-0.6-1.1-1.2-2.2-1.6-3.3c-0.8-1.1-1.3-2.7-2-4.1c-0.2-0.7-0.5-1.5-0.8-2.4C9.9,85.9,9.6,85,9.4,84c-0.3-0.9-0.6-1.8-0.8-2.6
							c-0.3-0.8-0.4-1.6-0.6-2.1c-0.1-1.7-0.7-3.2-0.8-5c-0.1-1.2-0.1-2.5-0.2-3.8c0-0.6-0.1-1.3-0.1-2C7,67.9,7,67.1,7,66.5
							c0.1-1.4,0-2.8,0.2-4.2c0.2-1.4,0.4-2.8,0.6-4.2c1.1-5.6,2.7-11.1,5-15.6c0.2-0.9,0.6-1.5,1-2.4c0.8-1.1,1.9-2.9,2.9-4.6
							c1.2-1.7,2.3-3.4,3.1-4.6c0.7-0.5,1.4-1.3,2.2-2.2c0.8-0.9,1.6-1.9,2.6-2.7c1.5-1.2,2.9-2.2,3.8-3.3c0.9-0.6,1.7-1.3,2.6-2
							s1.7-1.4,2.7-2c1.9-1.2,3.9-2.5,6.2-3.3c0.9-0.3,1.8-0.7,2.7-1.1c0.9-0.4,1.9-0.5,2.9-0.9c1.2-0.5,2.5-1,3.7-1.4
							c1.3-0.3,2.6-0.7,3.9-1c0-0.1-0.1-0.1,0.2-0.2c0.4-0.1,0.8-0.2,1.3-0.3c0.5-0.1,1-0.2,1.6-0.4c1.1-0.2,2.3-0.5,3.3-0.5
							c0.8-0.3,1.6-0.4,2.5-0.5c0.9-0.2,1.7-0.2,2.7-0.4c1.9-0.4,4-0.2,6.9-0.1c1.1-0.2,2.9,0,4.8,0.2C77.1,9,78.1,9,79,9.3
							c0.9,0.2,1.8,0.4,2.6,0.5c2.3,0.5,5.9,2.1,7.4,2.9c1.4,0.6,2.6,1.4,4.3,2.2c0.5,0.3,0.6,0.5,1.3,0.8c0.3,0.1,0.7,0.2,1.2,0.5
							c2.6,1.9,7,4.7,10,7.2c0.2,0.4,1.1,1,1.4,1.4c4.9,4.2,9.8,9.7,12.5,15.9c-0.1,1.2,0.4,3,0.1,3.6c0.1,0.5,0.6,1.4,0.5,1.6
							c-0.2,0-0.1,0.3-0.1,0.5c0.4,1.9,1.5,5.4,2.2,7.3c0.7,0.9,1.5,2.1,1.6,0.2c1,0,1.5-3,3.1,2.3c0.6,0.8,1,1.7,1.5,1.1
							c0-0.7,0.1-1.2,0.2-1.9c0-0.6,0-1.4-0.1-2.4c0.2,0.4,0.1,0,0.2-0.1c-0.2-1-0.6-2.4-0.5-2.6c0.6,2.4,1,2.7,1.6,4.5
							c0.8,2,1.4,1,2.1,2.5c0.1,0.6,0,0.7,0.2,1.5c0.4,0.4,0.3-0.6,0.7,0.6c0.1-0.5,0-1.1-0.1-2c0.2-0.4,0.3-1.3,0.2-2.3
							c0-1-0.3-2.2-0.4-3.3c-0.4-1.6-0.7-3-1.1-4.4s-0.8-2.6-1.2-3.8c-0.6-2.5-1.8-4.8-3-7.2c0.1-0.1-0.1-0.6-0.4-1.3
							c-0.3-0.6-0.8-1.2-1.1-1.6c-0.1-0.4,0.2-0.3-0.2-1.1c-0.5-0.5,0,0.3-0.2,0.4c-0.6-0.7-1.7-2.5-2-3.2c-1.2-1.2-3-3.8-4.5-5.4
							c-0.4-0.7-1.1-1.7-2.3-3c-0.1,0.1-0.5-0.1-0.8-0.3c-0.4-0.4-0.9-0.8-1.2-1.2c-0.4-0.3-0.8-0.7-1.1-1.1
							c-0.7-0.7-1.4-1.3-2.1-1.9c-0.6-0.6-1.3-1.3-2.1-1.9c-0.8-0.6-1.6-1.2-2.6-1.8c-0.5-0.4-1.1-0.9-1.8-1.5s-1.6-1-2.5-1.6
							c-4-3.4-11.2-6.5-17.4-7.8C84.2,2,83,1.6,81.8,1.3c-0.6-0.1-1.2-0.3-1.8-0.4c-0.6-0.1-1.2-0.2-1.7-0.3
							c-1.7-0.3-3.4-0.8-5.2-1.1c-1.8-0.2-3.6-0.3-5.4-0.3c-0.4,0-0.1,0.1-0.5,0.1c-1.3-0.1-2.8,0.1-4.4,0.2
							c-0.8,0.1-1.6,0.1-2.4,0.2c-0.4,0-0.8,0.1-1.2,0.1c-0.4,0-0.8,0.1-1.1,0.2c-2.1,0.3-4.2,0.4-6.3,0.9c-2.4,0.8-4.1,1.5-5.4,2.3
							c-1.9,0.5-3.7,1.9-5.6,2.3c-0.4,0.2-0.2,0.2-0.9,0.5c-0.4,0.2-0.5,0.1-0.8,0.2c0.1,0.2,0.3,0,0.1,0.3c1.3-0.6,1.9-0.8,3-1.3
							C42.7,5,42.9,5,43.4,4.8c2.4-1.4,5.4-2.4,8.9-3.5c1.7-0.4,3.5-0.6,5.1-0.9c0.8-0.1,1.6-0.3,2.3-0.4s1.4-0.1,2-0.3
							c0.6,0,0.3,0.2,0.8,0.2c1.3-0.3,2.4-0.1,4-0.2c1.1,0,2-0.2,3.3-0.1c1.3,0.1,2.3,0.1,3.4,0.2c1.1,0.2,2.2,0.4,3.6,0.7
							C78,1,80.9,1.3,81,1.7c-0.6,0-1.7-0.6-2.4-0.5c0.5,0.1,1.1,0.2,1.2,0.4c-2.6-0.1-3.6,0.4-6.8,0.2c-2.7-0.2-4.6-0.2-6.1-0.1
							c-2.1,0-4.5,0.1-6.9,0.2c-2.4,0.3-4.9,0.7-7.5,1.2c-1.3,0.3-2.4,0.6-3.7,1c-1.2,0.3-2.4,0.6-3.6,1.1c-1.1,0.4-2.2,0.9-3.3,1.3
							c-0.6,0.3-1.1,0.4-1.5,0.7c-0.5,0.2-1,0.5-1.4,0.7c-1,0.4-1.9,0.8-2.8,1.2c-0.9,0.4-1.9,0.9-2.9,1.7c-0.7,0.3-1.6,0.7-2.6,1.3
							c-1,0.6-2,1.2-2.9,2.1c-1,0.7-1.9,1.6-2.8,2.2c-0.4,0.4-0.8,0.7-1.2,0.9c-0.4,0.3-0.7,0.5-1,0.7c-0.3,0.6-1.3,1.6-2.2,2.4
							c-0.5,0.4-1,0.9-1.5,1.3c-0.4,0.4-0.8,0.7-1.1,0.9c-0.1,0.6-1.5,2-2.4,2.8c-0.1-0.1,0.6-0.9-0.1-0.1c-0.3,0.4-0.3,0.4-0.4,0.6
							c-0.4,0.2-0.8,0.7-1,0.8c-0.6,0.7-0.6,0.9-1.1,1.6c0-0.3,0.1-0.5,0.4-1c0.7-1.1,1-1.2,1.5-1.6c-0.1-0.1-0.4,0.2,0-0.3
							c0.4,0,1-1.2,1.6-1.5c-0.3,0.4-0.5,0.6-0.6,0.8c0.6-0.8,1.3-1.6,1.9-2.3c-0.2,0.2-0.4,0.4-0.2,0.1c-6.6,6.2-10.6,13-13.8,21
							c-0.3,0.4-0.6,1.2-0.9,2c-0.7,2.4-1.3,4.1-1,4.9c0.3-1.5,0.8-2.7,1.3-4.2s1-3.2,2.1-5.3c0.6-0.8,1-1.5,1.4-1.5
							c-1.6,3.5-3.3,7.2-4.2,10.7c-0.1,0.5-0.1,0.7-0.2,1.2c-0.7,2.9-1.3,4.4-1.5,6.4c-0.8,3.9-1,8.2-1.1,12.2
							c0,0.9-0.1,1.8,0.1,2.7c0-1.1,0-2.2,0-3.3c0-1,0.1-2,0.1-2.9c0.1-1.1,0.2-2.6,0.4-4.2c0.2-1.6,0.5-3.2,0.8-4.5
							c0.1-0.7,0.2-1.3,0.4-1.9c0.1-0.6,0.3-1.2,0.4-1.8c0.3-1.2,0.6-2.3,0.9-3.5c0.3-1.2,0.8-2.4,1.2-3.7C4.6,45.4,5,44,5.7,42.6
							c0.4-0.2,0.7-0.9,1.2-1.9c0.2,0.2,0.7-0.5,1.2-1.6c0.2-0.6-0.4,0.3-0.1-0.3c0.4-0.6,0.7-1.1,1-1.1c-0.3,0.6-0.6,1.2-0.8,1.5
							c0.3-0.1,0.9-1.5,1.2-1.3c-1,2.2-1.8,4.2-2.6,6.3c-0.6,2.1-1.4,4.2-2.1,6.4c-0.3,0.5-0.6,0.8-0.8,1.5c0.1,0.5,0.6-1.1,0.8-1.3
							c-0.2,1.4-0.7,3.5-0.8,4.6c0,0.3-0.2,0.1-0.3,0.9c-0.4,2.2-0.6,4-0.8,5.7c-0.1,1.7,0,3.3-0.1,5.1c0,0.6-0.1,1.3-0.1,2
							c0.1,0.6,0.1,1.3,0.1,1.9c0.1,1.3,0.1,2.5,0.2,3.8c0.1,1.3,0.3,2.6,0.5,3.9c0.1,0.6,0.2,1.3,0.3,2C3.9,81.6,4,82.3,4.2,83
							c0,0.4-0.3,0,0,0.7c0.2,0.8,0.4,1.8,0.7,2.7s0.5,2,0.8,2.8c0.6,1.8,1.1,3.5,1.1,4.5c0.5,1.4,0.6,1.8,1,2.7
							c0.2,0.4,0.5,0.7,0.7,1.2c0.1,0.5,0.8,1.9,1.4,3c0.7,1.2,1.1,2.2,1.7,3.5c1.1,2.2,2,2.8,2.7,3.7c0.9,1,2.1,2.6,3,3.1
							c-0.2-0.4-0.5-0.7-0.6-1c-1.1-1.1-2.4-2.3-3.7-4c-0.7-1.2-0.9-2-1.7-3.1l0.1-0.1c-0.5-0.8-0.9-1.5-1.3-2.2
							c-0.4-0.7-0.7-1.4-0.9-2.1c-0.5-1.4-1-2.6-1.5-3.8c-0.4-1.3-0.6-2.5-1-3.9c-0.2-0.7-0.4-1.4-0.7-2.1c-0.2-0.8-0.4-1.5-0.6-2.4
							c-0.2-1.8-0.5-3.5-0.4-4.9c0.4,2.4,1,3.1,1.5,5.3c0.5,1.4,1.2,2.8,1.8,4.4c0.3,0.8,0.6,1.6,1,2.4c0.3,0.8,0.7,1.5,1.1,2.4
							c1.4,3.2,3.3,6.4,5.2,9.1c2.7,4.1,5.7,7.1,9.3,10.3c0.2,0.3,0.7,0.8,1.3,1.5c0.6,0.6,1.3,1.2,2,1.7c0.4,0.3,0.2-0.1,0.9,0.4
							c2.7,2.1,2.5,2.9,4.6,4.3c0.4,0.3,1.1,0.6,1.6,0.9c0.3,0.2,0.9,0.6,1.4,0.9c0.5,0.3,1.1,0.6,1.4,0.7c2.3,1,4.5,1.8,7.2,2.7
							c0.9,0.4,1.9,0.7,2.8,1.1c1,0.3,2,0.6,3,0.9c1.1,0.3,2.1,0.6,3.1,0.8c1,0.2,2.2,0.4,3.2,0.5c0.9,0.2,1.8,0.4,2.9,0.5
							c1,0.1,2.2,0.1,3.4,0.2c1.2,0,2.4,0.1,3.6,0.1c1.2-0.1,2.4-0.1,3.5-0.1c0.9-0.2,1.9-0.1,2.9-0.3c1.1-0.2,2.2-0.4,3.3-0.5
							c1.1-0.2,2.2-0.3,3.2-0.7c1-0.3,1.9-0.7,2.7-1c0.6-0.2,0.2,0.1,1-0.1c1.9-0.6,4-1.4,5-2.3c0.5-0.2,0.8-0.3,1.1-0.4
							c5.4-2.8,10.6-6.4,16.6-11.3c2.1-1.4,4.3-2.4,6.4-4.2c1-0.6,1.9-1.2,2.9-2c1-0.8,2.1-1.9,3.3-3.4c0.3-0.4,0.6-0.9,0.8-1.3
							s0.4-0.9,0.6-1.3c0.4-0.8,0.7-1.6,0.9-2.4c0.2-0.7,0.5-1.4,0.7-2c0.2-0.7,0.3-1.3,0.4-1.8c0.6-1.4,0.6-2.1,0.6-2.5
							c0.7-1.6,1.1-3.2,1.6-4.7c0.5-1.5,1-3.1,1.3-4.8c1.6-6.9,3.3-11.3,3-18.4c0-0.3,0.1-0.5,0.1-0.9c-0.3-0.4,0.1-2.9-0.4-3.2
							c-0.3,1.3-0.3,3.8-0.2,6c-0.2,0.7-0.2,2-0.3,3.2c-0.2,1.5-0.5,2.8-0.8,4c-0.1,0.3,0,0.8-0.1,0.9c-0.2,1-0.5,1.7-0.8,3.1
							c-0.2,1.4-0.5,2.4-0.7,3.3c-0.2,0.9-0.4,1.8-0.7,3.1c-0.1,0.7-0.3,1.3-0.5,1.9c-0.2,0.6-0.4,1.3-0.6,1.9
							c-0.4,1.2-0.6,2.5-1.1,3.5c-0.8,2.1-1.3,3.9-1.3,4.9c-1,1.8-0.8,2.7-1.4,4.2c-1.1,2.1-0.8,1.7-2.2,3.5
							c-0.9,0.8-1.8,1.5-2.6,2.1c-0.8,0.7-1.8,1.2-2.7,1.8c-0.9,0.6-1.8,1.2-2.8,1.9c-1,0.6-2.2,1.3-3.4,2.2c-0.5,0.5-1,0.9-1.5,1.4
							c-0.5,0.4-1,0.6-1.3,0.8c2.3-2.2,5.6-5.3,8.7-8.9c0.8-0.9,1.4-1.8,2.2-2.8c0.7-0.9,1.4-1.8,2-2.8c1.1-1.9,2.1-3.7,2.7-5.3
							c-0.5,0.6-0.9,1.5-1.4,2.2c-0.7,1.1-1.3,2.1-2,3.3c-0.8,1.1-1.6,2.2-2.4,3.2c-0.8,1.2-1.8,2.2-2.7,3.3c-1,1.1-1.9,2.3-3,3.2
							c-0.6,0.6-1.3,1.2-1.9,1.9c-0.6,0.7-1.2,1.3-1.9,1.9c-1.4,1.1-2.7,2.4-4.4,3.5c-1,0.6-1.9,1.1-2.9,1.6c-0.5,0.2-1,0.6-1.5,0.8
							c-0.6,0.3-1,0.5-1.7,0.8c-0.1-0.1-0.6,0.3-0.4,0c-1.4,0.7-2.7,1.3-4,1.6c-1.4,0.3-2.6,0.7-3.9,1.4
							C85.2,125,85.7,124.8,85.3,124.9z M127,53.2C127,52.9,127.1,52.9,127,53.2c0.1-0.1,0-0.5-0.1-0.7c0.1,0.1,0.3,0.8,0.3,0.9
							c0-0.4-0.1-0.9-0.1-1.4C127.7,53.1,127.4,54.1,127,53.2z M123.1,38.7c0.3-0.4,1.8,2.5,2.1,3.2c0.3,0.7,0.6,1.9,0.1,1.2
							C124.8,42.4,123.9,39.9,123.1,38.7z M119.2,33.4c-0.1,0.1-0.2,0.1-0.3,0c-0.5-1.2-2.4-3.4-2.7-4.4
							C117.5,30.8,117.8,31.3,119.2,33.4z M115.3,27c0,0.2-0.4-0.3-0.5-0.2c-0.2-0.3-0.6-0.8-0.6-1C114.8,26.3,114.7,26.4,115.3,27z
							 M113.9,27.2c-0.8-1-1.8-2.1-2.6-3.2c-0.9-1.1-2.1-2.1-3.2-3c-0.5-0.4-1-0.8-1.5-1.2c-0.5-0.4-1-0.7-1.6-1c-1-0.7-2-1.3-2.8-2
							c1,0.5,2.3,1.4,3.4,2.2c0.6,0.4,1.2,0.8,1.7,1.2c0.5,0.4,1,0.7,1.5,1c0.8,0.8,1.7,1.7,2.5,2.5c0.8,0.9,1.5,1.7,2.2,2.3
							C113.5,26.3,114.2,27.1,113.9,27.2z M113.7,25.2l-0.1,0.1c-0.7-0.7-1.9-1.9-1.8-2.2C112.7,23.8,112.9,24.3,113.7,25.2z
							 M111.7,22.8c-0.1-0.1-0.3-0.1-0.3,0C110.6,22.1,111,22.1,111.7,22.8z M112.2,21.9c-0.1-0.3-0.9-0.8-1.2-1.2
							c-0.7-0.7-1-1.3-1.6-1.8c-0.6-0.5-1-0.9-1.5-1.2c-0.5-0.3-1-0.7-1.9-1.2c-0.5-0.3-0.4-0.1-0.7-0.2c-1-0.6-1.9-1.3-2.8-1.9
							c-1-0.6-1.9-1.1-2.9-1.7c-1-0.6-1.9-1.1-2.9-1.6c-1-0.5-2-1-3-1.4c-1-0.5-2-1-3.1-1.4c-1.1-0.4-2.1-0.8-3.3-1.2
							c-0.5-0.2-1.1-0.4-1.7-0.7c-0.5-0.2-1.2-0.3-1.7-0.5c-1.2-0.3-2.4-0.7-3.7-1.1c0.5-0.4,3.5,0.6,3.3-0.2c0.7,0.2,1.4,0.3,2,0.5
							c0.7,0.2,1.3,0.5,1.9,0.7C88.7,6.2,89.8,6.6,91,7c1.1,0.3,2.2,0.9,3.2,1.4c1.1,0.5,2.2,0.9,3.3,1.3c1.4,0.8,2.7,1.7,4.1,2.5
							c0.6,0.5,1.4,0.8,2.1,1.4c0.7,0.5,1.4,1.1,2.2,1.7c0.8,0.6,1.6,1.2,2.4,1.8c0.7,0.6,1.4,1.3,1.9,1.9
							C111.3,20.2,112.1,21.2,112.2,21.9z M99.5,10.7c-0.7-0.4-0.6-0.5-1-0.8c-1.4-0.8-2.1-1.2-3-1.7c-0.5-0.3-1.3-0.6-2.1-1
							C93,7,92.6,6.8,92.2,6.5c-0.5-0.1-0.9-0.3-1.3-0.4c-1.7-0.6-3.4-1.2-4.2-1.7c1.4,0.6,2.5,0.5,4.1,1.2c0.6,0.1,1.2,0.1,1.8,0.3
							c0.6,0.2,1.3,0.4,1.9,0.6c0.7,0.2,1.5,0.6,2.4,1.1c0.9,0.4,1.9,0.9,2.9,1.6c0.9,0.6,1.8,1.4,2.6,1.9c1.7,1.1,3.3,2.2,4,3
							c-0.4,0.1-1.7-0.7-3.1-1.6C101.9,11.8,100.4,10.9,99.5,10.7z M101.6,16.3c-0.5-0.2-0.8-0.4-1.6-0.9
							C100.2,15.3,101.2,16,101.6,16.3z M69.3,6c-3.1-0.3-6,0.2-9.4,0.3c-1.5,0.2-2.7,0.3-4,0.4c-0.6,0.1-1.3,0.1-2.1,0.2
							c-0.8,0.1-1.6,0.4-2.5,0.6c-1.1,0.3-1.8,0.6-3.5,1.1c-1.9,0.7-3.7,1.2-4.9,2c-1.1,0.3-2,0.8-3,1.2c-0.9,0.4-1.8,0.9-2.6,1.4
							c0.3-0.6,2.6-2.1,4.1-3.2c9.2-3.8,19.1-5.6,27.9-4.4L69.3,6z M26.9,20.5c0,0.1-0.5,0.4-0.5,0.5c-1.8,1.5-3,2.9-4.3,4.1
							c-0.5,0.6-1.2,1.2-1.9,2c-1,1.1-2,2.6-2.6,2.9c-0.6,1.2-2.3,3-3,4.3c-0.1-0.2,1-2.1,0-1.1c-0.3,0.5-0.1,0.7-0.3,1.2
							c-0.7,1.2-1.3,2-1.6,2c0.4-0.9,1.2-2.7,2.4-4.3c1.2-1.6,2.4-3.3,3.3-4.1c1-1.4,2.1-2.4,3.3-3.6c0-0.1-0.3,0.2-0.5,0.4
							c1.4-1.7,3.6-2.6,5.2-4.2C26.7,20.4,26.5,20.8,26.9,20.5z M12.6,37.1c-0.3,0.4-0.5,0.6-0.7,0.9c-0.1-0.2,0.1-0.5,0.4-1.1
							C12.6,36.4,12.6,36.7,12.6,37.1z M9.6,48.6c-0.2,0.7-0.6,1.5-0.8,2.3c-0.2,0.7-0.4,1.6-0.5,2.3c-0.2,0.8-0.4,1.5-0.5,2.3
							c-0.2,0.7-0.4,1.5-0.4,2.3c-0.2,2.2-0.8,4.7-0.8,7.2c-0.1,1.2-0.1,2.5-0.1,3.8c0.1,1.2,0.2,2.4,0.3,3.5c0,0.8-0.1,2.2,0.2,3.4
							C7,77.1,7.3,78.4,7.5,79c0.1,0.8,0.2,1.7,0.4,2.5l0.7,2.3c0.5,1.6,0.9,3.1,1.6,4.5c0.7,1.9,1.3,4,2.4,5.9c0.5,1,1,2,1.5,3
							c0.5,1,1.1,2,1.7,2.9c0.5,0.9,0.7,1.7,1.2,2.6c0.5,0.8,1.3,1.6,1.8,2.5c0.8,1.3,1.5,2.6,2.5,3.7c0.4,0.5,1.1,1.1,1.5,1.7
							c0.3,0.4,0.4,0.6,0.6,1c0.7,1,2,1.9,2.6,2.7c0.7,0.6,1.4,1.2,2,1.7c0.7,0.6,1.5,1,2.2,1.6c0.8,0.5,1.5,1.1,2.3,1.6
							c0.8,0.6,1.7,1.1,2.7,1.6c-0.9-0.4-1.8-0.8-2.7-1.2c-0.7-0.4-1.4-0.6-1.9-0.6c-0.9-0.7-1.8-1.3-2.6-1.9
							c-0.9-0.6-1.6-1.5-2.4-2.2c-0.6-0.5-0.9-0.9-1.4-1.4c-0.2-0.2-0.5-0.5-0.9-0.8c-0.3-0.3-0.7-0.7-1.1-1.2
							c-0.8-0.8-1.6-1.6-2.4-2.4c-0.5-0.5-1-1.1-1.4-1.7l-1.3-1.8c-0.4-0.6-0.8-1.2-1.3-1.8c-0.4-0.6-0.8-1.2-1.2-1.8
							c-0.7-1-1.3-2.1-1.9-3c-0.6-1-1-2-1.3-2.9c-0.5-0.9-0.9-1.8-1.4-2.8c-0.4-1-0.7-2-1.1-3c-0.4-1-0.7-2-1.1-2.9
							c-0.3-0.9-0.6-1.8-0.9-2.6c-0.2-1.4-0.7-2.8-0.9-4.1c-0.3-1.3-0.5-2.7-0.7-3.9c0.1-0.6,0-1.2,0.1-1.8c0.1-0.7,0.1-1.4,0.2-2.2
							c0-0.8,0.1-1.6,0.1-2.5c0-0.4,0-0.9-0.1-1.4c0-0.5,0-0.9,0-1.4c0-1.6-0.2-2.9-0.4-4.1c-0.2-1.2-0.2-2.3-0.2-3.6
							c0.4-1.3,0.2-2.4,0.6-3.8c0.3-1.1,0.7-2.2,1.1-3.5c0.2-0.7,0.4-1.3,0.6-2c0.3-0.7,0.5-1.4,0.7-2.2c0.3,0.6,0.7,0.7,0.8,1.5
							C9,49.5,9.4,48.5,9.6,48.6z M36.5,121.6c0.1-0.1,0.4,0,0.4-0.2c0.9,0.8,2.3,1.1,3.2,1.4c1.5,0.6,2.8,1.3,4.2,1.7
							c1.4,0.4,2.7,0.8,4.3,1.4c0.6,0.3,1,0.5,1.6,0.7c2.2,0.5,4.3,1.3,6.4,1.5c1.1,0.2,2.3,0.3,3.4,0.5c1.1,0.1,2.3,0.1,3.4,0.2
							c1.2,0.1,2.4,0.3,3.6,0.3c1.2,0,2.2,0,3.3-0.3c2.4,0.1,5.7-0.3,7.7-0.7c1,0,2.3-0.4,3.7-0.6c0.7-0.1,1.4-0.3,2.1-0.5
							c0.7-0.1,1.4-0.3,2-0.5c1.2-0.5,2.2-0.9,3.3-1.4c0.5-0.2,1-0.4,1.5-0.7c0.5-0.2,0.9-0.5,1.4-0.8c0.9-0.5,1.9-1,2.9-1.6
							c1.1-0.4,2.1-1.2,3.4-1.8c-0.8,0.6-1.8,1.4-2.8,1.9s-2,1.1-2.6,1.6c-1,0.4-1.8,1-2.7,1.4c-0.9,0.4-1.7,0.8-2.3,1.1
							c-1.2,0.5-2.6,1.2-4,1.5c-1.6,0.5-2.4,1-4.9,1.6c-1,0.2-2,0.3-3.1,0.5c-1.2,0.1-2.4,0.4-3.6,0.4c-1.2,0-2.4,0-3.3,0.1
							c-0.5,0.1-1.1,0.2-1.6,0.2c-1.2,0.1-2.7-0.3-4-0.4c-0.2,0-0.9,0-1.2,0.1c-0.7-0.1-1.4-0.2-2-0.3c-1.1-0.2-2.2-0.4-3.4-0.6
							c-0.6-0.1-1.2-0.2-1.8-0.3c-0.7-0.1-1.3-0.3-1.9-0.5c-1.3-0.3-2.6-0.6-3.9-1c-1.3-0.5-2.5-0.9-3.8-1.4c-1-0.4-1.9-0.8-2.8-1.3
							c-0.7-0.3-1.4-0.6-2-0.9C38.8,123.1,37.8,122.3,36.5,121.6z M86.2,124.9c0.6-0.2,0.4-0.2,0.8-0.3
							C87.2,124.6,86.1,125.1,86.2,124.9z"/>
					</g>
				</g>
			</g>
			<g>
				<g>
					<g>
						<path class="st1" d="M34,9.2c0.4-0.2,0.7-0.5,1-0.7c1.1-0.4,3.1-1.7,4.1-1.8c-1.6,0.8-2.9,1.5-4.3,2.1c-0.7,0.3-1.3,0.7-2,1.1
							c-0.7,0.4-1.3,0.8-2,1.2C31.1,10.7,33.8,9.2,34,9.2z"/>
					</g>
				</g>
			</g>
			<g>
				<g>
					<g>
						<path class="st1" d="M28.6,12.4c0.8-0.5,0.7-0.6,1.4-1.1c-0.2,0.3-1.1,0.9-1.3,1.2C28.1,12.9,28.9,12.3,28.6,12.4z"/>
					</g>
				</g>
			</g>
			<g>
				<g>
					<g>
						<path class="st1" d="M96.3,128.2c0.5-0.4,1.5-0.8,2.4-1.4c0.9-0.6,1.9-1.2,2.5-1.7c-0.6,0.5-1.4,1.1-2.3,1.7
							C98.1,127.3,97.1,127.7,96.3,128.2z"/>
					</g>
				</g>
			</g>
		</g>
	</g>
</g>
<rect x="188.8" y="257.1" style="fill-rule:evenodd;clip-rule:evenodd;fill:none;" width="2.2" height="0"/>
<rect x="459.7" y="186.1" style="fill-rule:evenodd;clip-rule:evenodd;fill:none;" width="2.2" height="0"/>
</svg>
