<?xml version="1.0" encoding="UTF-8"?><svg xmlns="http://www.w3.org/2000/svg" xmlns:xlink="http://www.w3.org/1999/xlink" width="375pt" zoomAndPan="magnify" viewBox="0 0 375 374.999991" height="374.999991pt" preserveAspectRatio="xMidYMid meet" version="1.2"><defs><g/><clipPath xml:id="clip1" id="clip1"><path d="M 28.507812 184 L 56 184 L 56 278 L 28.507812 278 Z M 28.507812 184 "/></clipPath><clipPath xml:id="clip2" id="clip2"><path d="M 203 336 L 245 336 L 245 347.410156 L 203 347.410156 Z M 203 336 "/></clipPath><clipPath xml:id="clip3" id="clip3"><path d="M 29 27.910156 L 346.507812 27.910156 L 346.507812 343 L 29 343 Z M 29 27.910156 "/></clipPath></defs><g xml:id="surface1" id="surface1"><g style="fill:rgb(94.509888%,94.509888%,94.509888%);fill-opacity:1;"><g transform="translate(89.311246, 251.161935)"><path style="stroke:none;" d="M -2.265625 19.523438 C -0.847656 19.523438 0 18.957031 0.847656 17.542969 L 2.546875 11.320312 C 3.394531 8.488281 4.527344 5.660156 5.375 2.828125 C 6.226562 0 7.074219 -2.828125 7.921875 -5.660156 C 11.601562 -15.847656 10.1875 -14.996094 20.65625 -14.996094 C 57.441406 -16.414062 77.53125 -32.824219 103.566406 -57.160156 C 104.699219 -58.292969 105.546875 -59.140625 105.828125 -59.988281 C 106.679688 -60.839844 106.394531 -61.96875 105.546875 -63.382812 C 104.699219 -64.234375 103.847656 -64.800781 103 -64.800781 C 102.433594 -64.800781 101.867188 -64.800781 101.585938 -64.515625 C 100.738281 -63.949219 99.886719 -63.382812 99.039062 -62.820312 C 98.191406 -61.96875 97.339844 -61.402344 96.492188 -60.554688 C 93.378906 -58.007812 90.550781 -55.460938 87.71875 -52.914062 C 84.890625 -50.367188 82.0625 -47.820312 78.949219 -45.273438 C 60.554688 -29.429688 42.164062 -24.335938 18.675781 -22.355469 C 17.542969 -22.355469 16.976562 -22.921875 16.695312 -23.769531 C 16.414062 -24.617188 16.695312 -25.46875 17.261719 -26.03125 C 20.941406 -29.144531 24.617188 -31.976562 28.015625 -35.089844 C 35.089844 -41.597656 51.21875 -58.007812 52.632812 -67.914062 C 53.480469 -71.589844 50.085938 -74.703125 46.40625 -74.421875 C 44.144531 -74.136719 42.445312 -73.003906 40.464844 -71.875 C 30.277344 -63.949219 22.921875 -52.632812 16.414062 -41.597656 C 15.5625 -40.746094 14.996094 -39.617188 14.714844 -38.484375 C 14.148438 -37.351562 13.015625 -36.503906 11.601562 -35.652344 C 10.753906 -37.070312 11.320312 -38.199219 11.601562 -39.617188 C 15.28125 -54.613281 19.523438 -72.15625 27.449219 -85.738281 C 35.089844 -98.191406 50.933594 -129.03125 54.613281 -143.464844 C 54.894531 -145.164062 54.328125 -146.578125 52.914062 -147.425781 C 52.347656 -147.710938 51.5 -147.992188 50.652344 -147.992188 C 42.445312 -147.992188 22.355469 -95.925781 21.222656 -93.097656 C 16.695312 -81.496094 12.449219 -69.894531 5.375 -59.707031 C 3.960938 -57.160156 2.546875 -54.894531 5.660156 -52.347656 C 7.074219 -51.21875 6.507812 -49.519531 6.226562 -48.105469 C 4.246094 -41.597656 2.828125 -34.804688 1.699219 -28.296875 C 1.414062 -26.316406 0.566406 -24.902344 -0.847656 -23.769531 C -1.980469 -22.355469 -2.546875 -20.941406 -2.546875 -19.242188 C -2.265625 -15.847656 -1.414062 -12.449219 -2.265625 -9.054688 L -5.09375 9.054688 C -5.375 11.601562 -5.660156 14.148438 -5.660156 16.414062 C -5.660156 18.394531 -4.527344 19.523438 -2.265625 19.523438 Z M 24.902344 -41.597656 C 27.730469 -49.519531 37.917969 -64.234375 45.558594 -65.648438 C 44.144531 -59.988281 29.710938 -44.707031 24.902344 -41.597656 Z M 24.902344 -41.597656 "/></g></g><g style="fill:rgb(94.509888%,94.509888%,94.509888%);fill-opacity:1;"><g transform="translate(181.558505, 251.161935)"><path style="stroke:none;" d="M -14.429688 70.742188 C -11.882812 70.742188 -10.46875 69.609375 -9.621094 67.347656 C -8.773438 64.800781 -7.921875 62.253906 -7.355469 60.273438 C 2.546875 23.769531 28.863281 -38.484375 57.726562 -63.667969 C 60.839844 -66.78125 64.234375 -69.042969 68.476562 -71.023438 C 68.761719 -71.308594 69.328125 -71.308594 70.175781 -71.308594 C 71.589844 -71.308594 72.722656 -70.457031 73.289062 -68.476562 C 73.855469 -65.929688 73.855469 -63.382812 73.570312 -61.121094 C 73.289062 -58.574219 72.722656 -56.308594 72.441406 -53.765625 C 72.15625 -49.519531 70.175781 -45.839844 65.929688 -43.292969 C 54.894531 -36.21875 32.824219 -18.394531 31.410156 -5.09375 C 30.558594 0.28125 33.957031 3.960938 38.484375 3.960938 C 39.898438 3.960938 41.3125 3.679688 42.726562 2.828125 C 55.460938 -2.265625 70.175781 -22.636719 74.703125 -35.371094 C 76.683594 -40.179688 79.796875 -43.859375 84.324219 -45.839844 C 87.152344 -46.972656 89.984375 -48.105469 92.8125 -49.519531 C 95.644531 -50.933594 98.472656 -52.066406 101.300781 -53.199219 C 103.847656 -54.046875 106.113281 -55.179688 108.660156 -56.027344 C 111.207031 -56.875 113.46875 -57.726562 116.015625 -58.574219 C 117.996094 -59.140625 118.5625 -60.273438 118.28125 -62.253906 C 117.996094 -64.234375 116.300781 -65.648438 114.320312 -65.367188 C 113.46875 -65.367188 112.621094 -65.082031 111.488281 -64.800781 C 110.074219 -64.515625 108.941406 -63.949219 108.09375 -63.667969 L 88.285156 -56.027344 C 87.4375 -55.746094 86.589844 -55.179688 85.738281 -54.894531 C 84.890625 -54.613281 84.042969 -54.046875 83.191406 -53.765625 C 82.910156 -53.480469 82.625 -53.480469 82.0625 -53.480469 C 80.644531 -53.480469 80.078125 -54.328125 80.363281 -56.027344 C 81.210938 -61.402344 82.0625 -66.214844 80.078125 -71.589844 C 78.664062 -76.683594 75.835938 -79.230469 71.589844 -79.230469 C 70.457031 -79.230469 69.042969 -78.949219 67.347656 -78.382812 C 59.140625 -76.402344 49.800781 -68.195312 41.03125 -57.160156 C 36.785156 -51.78125 32.542969 -45.558594 28.296875 -39.050781 C 20.089844 -25.75 13.015625 -12.734375 7.640625 -1.414062 C 4.808594 4.527344 2.546875 9.339844 0.847656 13.300781 C 0 15.28125 -0.566406 17.542969 -3.113281 18.957031 C -3.394531 16.414062 -3.113281 14.148438 -2.546875 11.882812 C -1.980469 9.621094 -1.414062 7.355469 -1.132812 5.375 C 6.507812 -31.125 16.414062 -66.496094 30.84375 -100.738281 C 31.125 -101.585938 31.410156 -102.152344 31.410156 -102.433594 C 32.257812 -104.414062 31.691406 -105.828125 30.277344 -106.394531 C 29.996094 -106.679688 29.429688 -106.679688 29.144531 -106.679688 C 27.730469 -106.679688 26.882812 -106.113281 26.316406 -104.980469 C 20.941406 -95.359375 13.300781 -74.703125 9.621094 -63.949219 C -3.113281 -25.183594 -11.601562 13.867188 -16.128906 54.328125 C -16.695312 58.292969 -16.976562 62.253906 -16.976562 66.214844 C -16.976562 68.761719 -16.128906 70.175781 -14.429688 70.742188 Z M 41.03125 -4.808594 C 40.746094 -4.808594 40.179688 -5.09375 39.898438 -5.375 C 39.332031 -5.660156 39.332031 -6.507812 39.617188 -7.921875 C 46.125 -17.261719 52.632812 -25.75 62.820312 -31.125 C 63.101562 -31.976562 63.667969 -31.976562 63.949219 -31.691406 C 64.515625 -31.125 64.234375 -30.558594 63.382812 -30.277344 C 59.140625 -19.242188 51.5 -11.882812 42.445312 -5.375 C 41.597656 -5.09375 41.3125 -4.808594 41.03125 -4.808594 Z M 41.03125 -4.808594 "/></g></g><path style=" stroke:none;fill-rule:evenodd;fill:rgb(94.509888%,94.509888%,94.509888%);fill-opacity:1;" d="M 342.515625 190.234375 C 342.347656 190.476562 342.285156 189.839844 342.167969 189.667969 C 342.21875 188.832031 342.25 187.867188 342.457031 187.957031 C 342.476562 188.714844 342.5 189.476562 342.515625 190.234375 "/><path style=" stroke:none;fill-rule:evenodd;fill:rgb(94.509888%,94.509888%,94.509888%);fill-opacity:1;" d="M 332.269531 118.019531 C 330.957031 115.53125 331.226562 115.289062 330.125 113.109375 C 329.121094 111.125 329.023438 111.519531 328.441406 110.640625 C 322.226562 99.03125 314.386719 88.753906 306.640625 81.101562 C 306.964844 81.183594 306.175781 80.378906 305.535156 79.695312 C 305.882812 79.519531 306.714844 80.011719 307.789062 80.859375 C 316.84375 90.484375 323.90625 100.480469 330.566406 111.507812 C 329.296875 110.992188 333.25 118.027344 332.269531 118.019531 "/><path style=" stroke:none;fill-rule:evenodd;fill:rgb(94.509888%,94.509888%,94.509888%);fill-opacity:1;" d="M 229.554688 32.710938 C 229.148438 32.519531 228.414062 32.257812 227.796875 32.0625 C 227.175781 31.871094 226.675781 31.6875 226.757812 31.554688 C 228.445312 31.960938 229.359375 32.414062 229.554688 32.710938 "/><path style=" stroke:none;fill-rule:evenodd;fill:rgb(94.509888%,94.509888%,94.509888%);fill-opacity:1;" d="M 214.160156 49.792969 C 213.113281 49.671875 211.492188 49.425781 210.050781 49.148438 C 209.332031 48.996094 208.648438 48.886719 208.097656 48.78125 C 207.550781 48.671875 207.136719 48.558594 206.953125 48.453125 C 205.472656 48.40625 204.03125 48.371094 202.375 48.269531 C 200.714844 48.210938 198.832031 48.179688 196.480469 47.984375 C 196.074219 47.800781 195.625 47.613281 195.460938 47.40625 C 196.792969 47.351562 198.582031 47.304688 200.535156 47.296875 C 201.027344 47.296875 201.527344 47.292969 202.03125 47.292969 C 202.535156 47.324219 203.039062 47.355469 203.546875 47.386719 C 204.5625 47.460938 205.585938 47.542969 206.570312 47.636719 C 207.554688 47.734375 208.503906 47.835938 209.378906 47.96875 C 210.246094 48.140625 211.042969 48.324219 211.722656 48.515625 C 213.085938 48.898438 213.996094 49.324219 214.160156 49.792969 "/><path style=" stroke:none;fill-rule:evenodd;fill:rgb(94.509888%,94.509888%,94.509888%);fill-opacity:1;" d="M 109.011719 50.601562 C 111.203125 49.4375 107.328125 51.828125 109.132812 50.820312 C 108.859375 51.191406 106.261719 52.519531 106.515625 52.136719 C 107.230469 51.667969 109.183594 50.710938 109.011719 50.601562 "/><path style=" stroke:none;fill-rule:evenodd;fill:rgb(94.509888%,94.509888%,94.509888%);fill-opacity:1;" d="M 57.625 94.796875 C 57.894531 94.789062 57.785156 95.1875 56.867188 96.4375 C 56.59375 96.445312 56.703125 96.050781 57.625 94.796875 "/><g clip-rule="nonzero" clip-path="url(#clip1)"><path style=" stroke:none;fill-rule:evenodd;fill:rgb(94.509888%,94.509888%,94.509888%);fill-opacity:1;" d="M 29.261719 185.671875 C 28.890625 189.117188 29.421875 188.71875 28.996094 190.894531 C 29.113281 192.460938 29.195312 194.152344 29.253906 195.910156 C 29.28125 196.785156 29.308594 197.679688 29.335938 198.582031 C 29.398438 199.484375 29.460938 200.390625 29.523438 201.300781 C 29.648438 203.121094 29.75 204.945312 29.894531 206.707031 C 30.105469 208.464844 30.316406 210.160156 30.542969 211.734375 C 30.65625 212.511719 30.78125 213.277344 30.914062 214.03125 C 31.046875 214.785156 31.246094 215.523438 31.414062 216.265625 C 31.765625 217.753906 32.125 219.246094 32.453125 220.824219 C 35.171875 233.34375 39.640625 246.925781 45.21875 258.5625 C 46.066406 260.21875 46.925781 261.886719 47.777344 263.542969 C 48.214844 264.363281 48.605469 265.210938 49.074219 266.003906 C 49.535156 266.800781 49.992188 267.597656 50.441406 268.386719 C 50.886719 269.175781 51.332031 269.957031 51.769531 270.730469 C 52.203125 271.507812 52.625 272.273438 53.089844 272.996094 C 53.988281 274.460938 54.847656 275.882812 55.640625 277.242188 C 54.667969 276.308594 53.527344 274.898438 52.296875 273.203125 C 52.144531 272.984375 51.988281 272.769531 51.835938 272.550781 C 51.6875 272.320312 51.542969 272.089844 51.394531 271.855469 C 51.101562 271.378906 50.800781 270.894531 50.496094 270.394531 C 49.890625 269.398438 49.277344 268.347656 48.65625 267.269531 C 48.019531 266.203125 47.457031 265.066406 46.898438 263.929688 C 46.339844 262.792969 45.78125 261.652344 45.230469 260.535156 C 44.960938 259.972656 44.679688 259.421875 44.429688 258.867188 C 44.191406 258.304688 43.957031 257.757812 43.722656 257.214844 C 43.253906 256.132812 42.804688 255.09375 42.386719 254.121094 C 42.011719 253.371094 41.660156 252.707031 41.332031 252.113281 C 41.027344 251.507812 40.75 250.972656 40.480469 250.507812 C 36.433594 240.191406 33.5625 231.070312 31.535156 222.214844 C 29.589844 213.355469 28.542969 204.738281 28.78125 195.550781 C 28.628906 193.992188 28.578125 192.535156 28.535156 191.035156 C 28.492188 189.53125 28.574219 187.984375 28.5 186.234375 C 28.546875 185.71875 28.597656 185.195312 28.691406 185.074219 C 28.832031 184.25 29.09375 185.214844 29.261719 185.671875 "/></g><path style=" stroke:none;fill-rule:evenodd;fill:rgb(94.509888%,94.509888%,94.509888%);fill-opacity:1;" d="M 48.164062 260.316406 C 49.128906 261.957031 51.007812 265.5 50.582031 265.507812 C 51.878906 267.257812 52.765625 269.527344 54.324219 271.9375 C 58.132812 278.996094 63.566406 286.757812 70.097656 294.285156 C 76.625 301.816406 84.28125 309.050781 92.214844 315.4375 C 92.582031 316.222656 90.976562 314.9375 90.09375 314.402344 C 86.921875 311.855469 84.257812 309.542969 81.535156 307.339844 C 80.21875 306.191406 78.941406 305.007812 77.632812 303.78125 C 76.984375 303.164062 76.324219 302.539062 75.671875 301.875 C 75.039062 301.1875 74.402344 300.480469 73.761719 299.738281 C 72.847656 298.871094 71.929688 297.96875 71.019531 297.042969 C 70.101562 296.117188 69.273438 295.089844 68.398438 294.085938 C 67.539062 293.074219 66.683594 292.042969 65.835938 291.003906 C 65.011719 289.945312 64.234375 288.84375 63.441406 287.765625 C 62.664062 286.679688 61.882812 285.589844 61.113281 284.515625 C 60.394531 283.40625 59.683594 282.300781 58.980469 281.21875 C 58.28125 280.128906 57.574219 279.070312 56.910156 278.019531 C 56.265625 276.949219 55.636719 275.90625 55.023438 274.890625 C 54.613281 274.066406 54.082031 273.089844 53.46875 272 C 52.882812 270.890625 52.238281 269.660156 51.554688 268.359375 C 50.871094 267.058594 50.082031 265.726562 49.378906 264.328125 C 48.675781 262.925781 47.953125 261.515625 47.230469 260.140625 C 47.0625 259.566406 47.71875 259.875 48.164062 260.316406 "/><path style=" stroke:none;fill-rule:evenodd;fill:rgb(94.509888%,94.509888%,94.509888%);fill-opacity:1;" d="M 81.882812 304.578125 L 82.054688 304.394531 C 82.953125 305.21875 83.894531 305.980469 84.796875 306.765625 C 85.695312 307.558594 86.589844 308.347656 87.476562 309.132812 C 87.921875 309.519531 88.355469 309.921875 88.808594 310.296875 C 89.269531 310.664062 89.730469 311.027344 90.1875 311.390625 C 91.105469 312.113281 92.035156 312.820312 92.976562 313.492188 C 92.117188 313.261719 89.84375 311.546875 88.53125 310.84375 C 87.195312 309.648438 86.007812 308.589844 84.898438 307.597656 C 83.796875 306.597656 82.753906 305.679688 81.882812 304.578125 "/><path style=" stroke:none;fill-rule:evenodd;fill:rgb(94.509888%,94.509888%,94.509888%);fill-opacity:1;" d="M 93.433594 316.695312 C 93.328125 316.125 97.75 319.445312 98.699219 320.238281 C 96.933594 319.304688 95.394531 317.898438 93.433594 316.695312 "/><g clip-rule="nonzero" clip-path="url(#clip2)"><path style=" stroke:none;fill-rule:evenodd;fill:rgb(94.509888%,94.509888%,94.509888%);fill-opacity:1;" d="M 203.839844 347.386719 C 204.546875 346.992188 208.132812 345.839844 210.648438 346.019531 C 212.011719 345.695312 213.425781 345.296875 214.914062 344.980469 C 216.398438 344.640625 217.957031 344.371094 219.550781 344.003906 C 221.144531 343.621094 222.789062 343.222656 224.488281 342.8125 C 225.332031 342.59375 226.199219 342.421875 227.054688 342.152344 C 227.910156 341.882812 228.777344 341.613281 229.65625 341.339844 C 229.222656 341.816406 232.730469 340.765625 233.574219 340.398438 C 233.261719 340.191406 231.492188 341.21875 231.863281 340.710938 C 234.140625 340.035156 236.347656 339.199219 238.398438 338.511719 C 239.421875 338.15625 240.402344 337.820312 241.304688 337.480469 C 242.191406 337.109375 243.011719 336.746094 243.734375 336.398438 C 243.933594 336.464844 243.28125 336.730469 243.292969 336.84375 C 243.414062 336.898438 244.289062 336.527344 244.921875 336.289062 C 244.800781 336.511719 240.289062 338.246094 242.222656 337.261719 C 241.261719 337.640625 241.128906 337.796875 240.089844 338.128906 C 241.125 337.839844 241 338.003906 241.039062 338.09375 C 241.074219 338.183594 241.28125 338.214844 242.929688 337.519531 C 242.851562 337.679688 241.34375 338.183594 241.378906 338.308594 C 240.394531 338.5625 240.277344 338.371094 239.601562 338.46875 C 238.804688 338.828125 236.757812 339.527344 235.136719 340.113281 C 234.324219 340.402344 233.613281 340.660156 233.207031 340.804688 C 232.804688 340.96875 232.71875 341.058594 233.160156 341.035156 C 232.0625 341.484375 230.199219 341.859375 228.363281 342.257812 C 226.539062 342.695312 224.695312 342.96875 223.667969 343.488281 C 221.910156 343.855469 220.367188 344.238281 218.890625 344.59375 C 217.402344 344.890625 215.992188 345.207031 214.519531 345.539062 C 211.585938 346.265625 208.367188 346.765625 203.839844 347.386719 "/></g><path style=" stroke:none;fill-rule:evenodd;fill:rgb(94.509888%,94.509888%,94.509888%);fill-opacity:1;" d="M 245.867188 335.554688 C 246.976562 335.1875 248.144531 334.929688 247.097656 335.519531 C 245.921875 335.96875 245.867188 335.777344 245.867188 335.554688 "/><path style=" stroke:none;fill-rule:evenodd;fill:rgb(94.509888%,94.509888%,94.509888%);fill-opacity:1;" d="M 249.476562 333.789062 C 251.101562 333.011719 250.945312 333.371094 252.191406 332.835938 C 251.519531 333.386719 249.308594 334.101562 249.476562 333.789062 "/><path style=" stroke:none;fill-rule:evenodd;fill:rgb(94.509888%,94.509888%,94.509888%);fill-opacity:1;" d="M 257.007812 330.921875 C 257.089844 330.527344 259.925781 329.460938 261.535156 328.414062 C 261.488281 328.75 258.644531 330.042969 257.007812 330.921875 "/><path style=" stroke:none;fill-rule:evenodd;fill:rgb(94.509888%,94.509888%,94.509888%);fill-opacity:1;" d="M 264.53125 326.722656 C 265.308594 326.117188 265.59375 325.707031 267.347656 324.714844 C 266.914062 325.183594 265.996094 325.84375 264.53125 326.722656 "/><path style=" stroke:none;fill-rule:evenodd;fill:rgb(94.509888%,94.509888%,94.509888%);fill-opacity:1;" d="M 313.378906 288.878906 C 314.601562 287.429688 315.457031 286.605469 315.949219 286.410156 C 315.167969 287.109375 313.734375 288.929688 313.378906 288.878906 "/><g clip-rule="nonzero" clip-path="url(#clip3)"><path style=" stroke:none;fill-rule:evenodd;fill:rgb(94.509888%,94.509888%,94.509888%);fill-opacity:1;" d="M 221.386719 331.523438 C 222.808594 331.203125 222.402344 331.148438 223.464844 331.046875 C 223.957031 331.261719 221.058594 331.929688 221.386719 331.523438 Z M 101.507812 310.375 C 101.761719 310.316406 102.386719 310.617188 102.285156 310.214844 C 102.816406 310.6875 103.402344 311.140625 104.019531 311.570312 C 104.632812 312.007812 105.273438 312.421875 105.945312 312.765625 C 107.273438 313.480469 108.585938 314.109375 109.667969 314.660156 C 111.34375 315.761719 113.023438 316.621094 114.621094 317.492188 C 116.226562 318.355469 117.765625 319.207031 119.371094 319.917969 C 120.960938 320.667969 122.542969 321.414062 124.179688 322.179688 C 125.847656 322.875 127.558594 323.601562 129.367188 324.390625 C 130.820312 325.199219 131.804688 325.714844 133.171875 326.410156 C 134.441406 326.921875 135.710938 327.4375 136.976562 327.945312 C 138.265625 328.402344 139.546875 328.851562 140.816406 329.300781 C 141.453125 329.527344 142.085938 329.75 142.714844 329.972656 C 143.347656 330.199219 143.972656 330.421875 144.609375 330.597656 C 145.878906 330.96875 147.136719 331.335938 148.371094 331.699219 C 149.042969 331.890625 149.714844 332.085938 150.390625 332.28125 C 151.070312 332.46875 151.765625 332.59375 152.453125 332.757812 C 153.835938 333.054688 155.21875 333.351562 156.589844 333.648438 C 157.957031 333.976562 159.34375 334.144531 160.695312 334.378906 C 162.046875 334.605469 163.371094 334.832031 164.660156 335.066406 C 166.097656 335.292969 167.542969 335.484375 168.972656 335.734375 C 169.6875 335.851562 170.402344 335.96875 171.113281 336.089844 C 171.820312 336.210938 172.523438 336.332031 173.226562 336.390625 C 174.628906 336.542969 176.007812 336.675781 177.34375 336.757812 C 178.679688 336.839844 179.972656 336.890625 181.207031 336.753906 C 184.109375 336.875 187.574219 337.195312 190.9375 337.136719 C 191.777344 337.136719 192.617188 337.140625 193.429688 337.140625 C 194.25 337.140625 195.050781 337.140625 195.820312 337.066406 C 197.363281 336.960938 198.789062 336.828125 200.023438 336.664062 C 200.632812 336.671875 201.292969 336.671875 201.992188 336.65625 C 202.695312 336.648438 203.433594 336.554688 204.207031 336.496094 C 205.746094 336.351562 207.417969 336.175781 209.136719 335.992188 C 210.847656 335.785156 212.589844 335.453125 214.316406 335.203125 C 215.179688 335.078125 216.035156 334.953125 216.871094 334.832031 C 217.703125 334.6875 218.515625 334.539062 219.300781 334.402344 C 220.808594 334.011719 222.238281 333.628906 223.617188 333.25 C 224.988281 332.855469 226.285156 332.367188 227.5625 331.949219 C 228.835938 331.503906 230.082031 331.09375 231.304688 330.648438 C 232.519531 330.164062 233.722656 329.6875 234.9375 329.203125 C 235.542969 328.96875 236.152344 328.734375 236.769531 328.5 C 237.078125 328.382812 237.382812 328.265625 237.695312 328.148438 C 238.003906 328.015625 238.308594 327.886719 238.617188 327.753906 C 239.855469 327.226562 241.121094 326.699219 242.445312 326.167969 C 243.109375 325.910156 243.785156 325.644531 244.472656 325.375 C 245.152344 325.078125 245.84375 324.777344 246.558594 324.472656 C 247.980469 323.867188 249.488281 323.261719 251.085938 322.625 C 250.054688 323.242188 248.84375 323.859375 247.574219 324.480469 C 246.9375 324.789062 246.289062 325.105469 245.632812 325.421875 L 244.652344 325.886719 C 244.316406 326.023438 243.984375 326.164062 243.652344 326.300781 C 242.328125 326.847656 241.039062 327.386719 239.890625 327.902344 C 239.320312 328.164062 238.78125 328.417969 238.289062 328.667969 C 237.800781 328.917969 237.339844 329.113281 236.953125 329.335938 C 235.71875 329.71875 234.523438 330.136719 233.371094 330.566406 C 232.222656 331.003906 231.121094 331.464844 230.035156 331.832031 C 227.878906 332.601562 225.921875 333.382812 224.207031 333.953125 C 222.71875 334.382812 221.007812 334.820312 219.277344 335.261719 C 218.410156 335.46875 217.546875 335.734375 216.683594 335.898438 C 215.824219 336.078125 214.980469 336.261719 214.183594 336.445312 C 213.207031 336.675781 212.339844 336.890625 211.492188 337.109375 C 211.066406 337.214844 210.648438 337.320312 210.222656 337.429688 C 209.796875 337.535156 209.355469 337.609375 208.902344 337.699219 C 207.992188 337.875 207.011719 338.050781 205.867188 338.238281 C 205.292969 338.324219 204.679688 338.417969 204.015625 338.519531 C 203.351562 338.613281 202.632812 338.738281 201.847656 338.78125 C 200.601562 338.875 199.386719 338.96875 198.136719 339.0625 C 197.515625 339.109375 196.882812 339.160156 196.230469 339.207031 C 195.582031 339.257812 194.914062 339.3125 194.21875 339.320312 C 188.421875 339.5625 181.957031 339.03125 177.3125 338.699219 C 176.046875 338.613281 174.734375 338.683594 173.488281 338.578125 C 172.015625 338.488281 170.410156 338.117188 168.761719 337.824219 C 167.941406 337.675781 167.105469 337.523438 166.273438 337.375 C 165.445312 337.230469 164.617188 337.109375 163.8125 336.945312 C 163.324219 336.855469 161.632812 336.734375 161.105469 336.628906 C 160.316406 336.46875 159.503906 336.253906 158.699219 336.039062 C 158.300781 335.933594 157.902344 335.824219 157.511719 335.722656 C 157.121094 335.605469 156.742188 335.484375 156.367188 335.386719 C 155.101562 335.050781 153.78125 334.703125 152.414062 334.347656 C 151.730469 334.171875 151.035156 333.996094 150.328125 333.816406 C 149.632812 333.605469 148.925781 333.394531 148.207031 333.175781 C 146.769531 332.753906 145.300781 332.320312 143.800781 331.878906 C 142.308594 331.410156 140.816406 330.859375 139.289062 330.351562 C 138.527344 330.09375 137.757812 329.828125 136.992188 329.566406 C 136.214844 329.316406 135.472656 328.976562 134.707031 328.6875 C 133.183594 328.082031 131.648438 327.476562 130.121094 326.871094 C 128.605469 326.222656 127.117188 325.515625 125.625 324.839844 C 124.878906 324.496094 124.136719 324.15625 123.398438 323.820312 C 122.671875 323.457031 121.957031 323.070312 121.246094 322.699219 C 118.925781 321.472656 116.859375 320.289062 114.628906 318.976562 C 113.875 318.550781 113.0625 318.136719 112.246094 317.71875 C 111.433594 317.292969 110.605469 316.882812 109.871094 316.375 C 108.378906 315.390625 107.0625 314.378906 105.722656 313.390625 C 105.042969 312.910156 104.386719 312.386719 103.703125 311.871094 C 103.011719 311.359375 102.289062 310.859375 101.507812 310.375 Z M 54.355469 127.0625 C 51.023438 134.09375 48.449219 141.644531 46.429688 148.835938 C 46.078125 150.128906 45.710938 151.46875 45.332031 152.851562 C 45.125 153.535156 44.984375 154.246094 44.816406 154.960938 C 44.65625 155.675781 44.488281 156.394531 44.320312 157.125 C 44.152344 157.855469 43.980469 158.589844 43.808594 159.328125 C 43.636719 160.070312 43.457031 160.8125 43.339844 161.570312 C 43.066406 163.082031 42.792969 164.605469 42.519531 166.132812 C 42.394531 166.898438 42.21875 167.65625 42.140625 168.425781 C 42.046875 169.191406 41.949219 169.960938 41.859375 170.726562 C 41.675781 172.253906 41.5 173.769531 41.324219 175.257812 C 41.242188 176.757812 41.160156 178.234375 41.082031 179.671875 C 41.046875 180.390625 41.015625 181.097656 40.984375 181.796875 C 40.972656 182.144531 40.953125 182.492188 40.949219 182.832031 C 40.957031 183.175781 40.960938 183.519531 40.96875 183.855469 C 40.894531 184.859375 40.8125 186.179688 40.734375 187.640625 C 40.699219 188.371094 40.664062 189.140625 40.625 189.917969 C 40.597656 190.703125 40.636719 191.496094 40.644531 192.285156 C 40.679688 193.859375 40.738281 195.410156 40.832031 196.75 C 40.894531 198.089844 41.136719 199.222656 41.328125 199.980469 C 41.386719 201.003906 41.453125 202.023438 41.527344 203.039062 C 41.621094 204.054688 41.652344 205.070312 41.820312 206.066406 C 42.105469 208.070312 42.414062 210.050781 42.726562 212 C 43.085938 213.945312 43.554688 215.84375 43.949219 217.722656 C 44.320312 219.605469 44.855469 221.414062 45.324219 223.199219 C 45.578125 224.425781 45.835938 225.664062 46.128906 226.90625 C 46.476562 228.136719 46.828125 229.378906 47.1875 230.636719 C 47.371094 231.261719 47.554688 231.890625 47.738281 232.519531 C 47.921875 233.15625 48.101562 233.789062 48.335938 234.410156 C 48.773438 235.660156 49.21875 236.921875 49.664062 238.191406 C 49.886719 238.828125 50.109375 239.464844 50.332031 240.101562 C 50.554688 240.742188 50.832031 241.363281 51.078125 241.996094 C 51.582031 243.265625 52.085938 244.535156 52.59375 245.8125 C 53.058594 247.105469 53.65625 248.351562 54.195312 249.625 C 54.742188 250.898438 55.277344 252.179688 55.796875 253.472656 C 56.84375 255.753906 57.371094 257.59375 58.449219 259.945312 C 59.46875 261.9375 60.929688 264.265625 62.125 266.515625 C 63.050781 268.09375 63.910156 269.683594 64.761719 271.265625 L 65.402344 272.453125 C 65.625 272.839844 65.863281 273.214844 66.097656 273.597656 C 66.566406 274.355469 67.042969 275.109375 67.535156 275.851562 C 67.988281 276.535156 68.550781 277.300781 69.109375 278.0625 C 69.667969 278.828125 70.289062 279.539062 70.746094 280.195312 C 71.371094 281.054688 71.601562 281.722656 72.15625 282.523438 C 72.585938 283.140625 73.046875 283.792969 73.542969 284.429688 C 74.0625 285.046875 74.59375 285.675781 75.109375 286.292969 C 76.148438 287.527344 77.132812 288.726562 77.847656 289.769531 C 79.425781 291.351562 80.957031 292.894531 82.472656 294.457031 C 84.023438 295.980469 85.640625 297.4375 87.253906 298.976562 C 88.046875 299.761719 88.925781 300.46875 89.796875 301.222656 C 90.671875 301.96875 91.5625 302.726562 92.472656 303.503906 C 93.367188 304.300781 94.355469 305.027344 95.351562 305.796875 C 96.355469 306.554688 97.382812 307.339844 98.441406 308.148438 C 96.4375 306.839844 94.3125 305.5 92.539062 304.378906 C 90.792969 303.230469 89.3125 302.40625 88.453125 302.308594 C 87.933594 301.863281 87.421875 301.425781 86.914062 300.988281 C 86.425781 300.53125 85.9375 300.074219 85.457031 299.621094 C 84.488281 298.710938 83.527344 297.8125 82.570312 296.914062 C 81.59375 296.035156 80.722656 295.054688 79.8125 294.105469 C 78.910156 293.144531 78.011719 292.175781 77.113281 291.183594 C 75.859375 289.71875 75.082031 288.679688 74.054688 287.449219 C 73.546875 286.832031 72.980469 286.160156 72.28125 285.34375 C 71.613281 284.503906 70.824219 283.511719 69.839844 282.273438 C 69.394531 281.714844 68.945312 281.175781 68.492188 280.640625 C 68.042969 280.109375 67.589844 279.585938 67.1875 279.039062 C 66.351562 277.957031 65.53125 276.898438 64.753906 275.816406 C 60.667969 270 57.085938 263.597656 54.039062 257.355469 C 53.695312 256.699219 53.355469 256.039062 53.011719 255.382812 C 52.667969 254.730469 52.378906 254.050781 52.0625 253.398438 C 51.433594 252.074219 50.824219 250.773438 50.226562 249.507812 C 50.078125 249.191406 49.933594 248.875 49.789062 248.5625 C 49.652344 248.246094 49.535156 247.929688 49.40625 247.617188 C 49.167969 246.984375 48.929688 246.367188 48.699219 245.765625 C 48.253906 244.550781 47.859375 243.386719 47.539062 242.285156 C 46.660156 240.074219 45.894531 237.664062 45.066406 235.230469 C 44.320312 232.765625 43.671875 230.21875 42.960938 227.738281 C 42.378906 225.21875 41.8125 222.746094 41.207031 220.40625 C 40.726562 218.046875 40.21875 215.820312 39.664062 213.820312 C 39.015625 207.082031 37.804688 199.972656 37.742188 194.160156 C 37.917969 192.804688 38.042969 191.332031 38.25 189.734375 C 38.480469 188.140625 38.707031 186.425781 38.898438 184.578125 C 39.042969 182.726562 39.351562 180.753906 39.5625 178.640625 C 39.671875 177.582031 39.769531 176.484375 39.855469 175.351562 C 39.972656 174.222656 40.125 173.058594 40.234375 171.855469 C 40.332031 170.878906 40.402344 169.953125 40.453125 169.0625 C 40.476562 168.617188 40.5 168.179688 40.519531 167.753906 C 40.554688 167.328125 40.585938 166.914062 40.621094 166.503906 C 40.742188 164.871094 40.808594 163.355469 40.855469 161.886719 C 40.890625 161.15625 40.878906 160.425781 40.945312 159.714844 C 41.007812 159.003906 41.066406 158.292969 41.128906 157.582031 C 41.265625 156.15625 41.429688 154.710938 41.671875 153.1875 C 42.242188 151.601562 42.644531 150.210938 42.96875 148.769531 C 43.136719 148.046875 43.304688 147.320312 43.484375 146.554688 C 43.578125 146.171875 43.664062 145.78125 43.785156 145.382812 C 43.914062 144.988281 44.046875 144.582031 44.195312 144.160156 C 44.644531 142.886719 45.136719 141.585938 45.65625 140.230469 C 45.925781 139.558594 46.160156 138.855469 46.476562 138.164062 C 46.78125 137.46875 47.09375 136.757812 47.417969 136.03125 C 48.0625 134.582031 48.679688 133.042969 49.375 131.433594 C 50.105469 129.84375 50.839844 128.15625 51.570312 126.34375 C 51.910156 127.695312 52.503906 127.960938 52.414062 129.742188 C 52.976562 129.160156 54.003906 126.902344 54.355469 127.0625 Z M 65.738281 100.777344 C 65.03125 101.6875 64.558594 102.136719 63.929688 102.890625 C 63.875 102.550781 64.300781 101.71875 65.203125 100.382812 C 66.242188 99.21875 66.011719 99.980469 65.738281 100.777344 Z M 104.199219 64.570312 C 104.164062 64.734375 102.828125 65.480469 102.914062 65.617188 C 101.726562 66.371094 100.621094 67.125 99.578125 67.867188 C 99.058594 68.242188 98.554688 68.609375 98.054688 68.96875 C 97.808594 69.152344 97.5625 69.332031 97.324219 69.511719 C 97.09375 69.703125 96.863281 69.894531 96.636719 70.082031 C 94.832031 71.601562 93.164062 73.007812 91.550781 74.363281 C 90.054688 75.695312 88.371094 76.832031 86.386719 78.511719 C 85.101562 79.671875 83.742188 81.148438 82.5 82.371094 C 81.890625 82.988281 81.292969 83.535156 80.796875 83.988281 C 80.304688 84.445312 79.871094 84.78125 79.527344 84.925781 C 79.035156 85.574219 78.394531 86.308594 77.671875 87.089844 C 77.308594 87.476562 76.929688 87.878906 76.542969 88.292969 C 76.148438 88.699219 75.753906 89.121094 75.375 89.566406 C 73.847656 91.320312 72.285156 93.101562 71.273438 94.582031 C 71.054688 94.195312 74.394531 89.832031 71.824219 92.160156 C 71 93.390625 71.28125 93.597656 70.609375 94.753906 C 68.492188 97.488281 66.957031 99.191406 66.386719 99.191406 C 66.988281 98.1875 67.960938 96.75 69.152344 95.085938 C 69.457031 94.667969 69.765625 94.242188 70.085938 93.796875 C 70.414062 93.363281 70.78125 92.933594 71.140625 92.488281 C 71.871094 91.609375 72.632812 90.699219 73.394531 89.78125 C 74.90625 87.914062 76.644531 86.199219 78.1875 84.605469 C 78.96875 83.824219 79.683594 83.050781 80.414062 82.414062 C 81.132812 81.769531 81.792969 81.195312 82.371094 80.710938 C 85.113281 77.617188 87.863281 75.640625 91.132812 72.984375 C 91.21875 72.675781 90.414062 73.363281 89.753906 73.9375 C 90.652344 72.992188 91.703125 72.207031 92.78125 71.441406 C 93.863281 70.671875 94.988281 69.941406 96.121094 69.210938 C 97.257812 68.476562 98.472656 67.84375 99.625 67.113281 C 100.792969 66.402344 101.933594 65.640625 103.039062 64.820312 C 103.875 64.34375 103.222656 65.171875 104.199219 64.570312 Z M 209.707031 40.566406 C 207.859375 40.351562 206.027344 40.136719 204.195312 39.925781 L 202.816406 39.773438 L 201.429688 39.691406 C 200.503906 39.636719 199.578125 39.582031 198.644531 39.523438 C 197.710938 39.464844 196.773438 39.40625 195.832031 39.347656 C 194.886719 39.261719 193.929688 39.296875 192.96875 39.261719 C 191.039062 39.203125 189.078125 39.144531 187.054688 39.085938 C 185.179688 39.101562 183.519531 39.082031 181.9375 39.054688 C 181.144531 39.039062 180.371094 39.023438 179.597656 39.007812 C 178.828125 39.03125 178.058594 39.054688 177.273438 39.074219 C 175.703125 39.125 174.066406 39.183594 172.230469 39.285156 C 170.394531 39.441406 168.367188 39.710938 166 40.023438 C 165.308594 40.125 164.679688 40.210938 164.058594 40.347656 C 163.449219 40.5 162.84375 40.644531 162.191406 40.808594 C 160.886719 41.128906 159.40625 41.496094 157.3125 41.910156 C 154.984375 42.4375 152.699219 42.953125 150.582031 43.429688 C 149.523438 43.648438 148.535156 43.980469 147.605469 44.292969 C 146.671875 44.609375 145.8125 44.941406 145.039062 45.3125 C 142.445312 45.914062 139.949219 46.730469 137.550781 47.503906 C 135.144531 48.234375 132.953125 49.261719 130.96875 50.285156 C 131.488281 49.730469 133.214844 48.703125 135.304688 47.574219 C 137.433594 46.542969 139.925781 45.410156 141.886719 44.480469 C 153.382812 41.007812 165.066406 38.800781 176.542969 38.0625 C 188.015625 37.320312 199.277344 38.046875 209.742188 40.320312 Z M 284.511719 73.523438 C 283.410156 72.867188 282.800781 72.214844 280.925781 70.867188 C 281.304688 70.691406 283.488281 72.601562 284.511719 73.523438 Z M 279.476562 61.445312 C 277.917969 60.359375 278.257812 60.257812 277.296875 59.484375 C 276.515625 58.933594 275.839844 58.457031 275.214844 58.050781 C 274.601562 57.632812 274.0625 57.25 273.558594 56.882812 C 272.558594 56.144531 271.6875 55.503906 270.660156 54.742188 C 270.039062 54.300781 269.296875 53.863281 268.488281 53.394531 C 267.679688 52.933594 266.804688 52.441406 265.898438 51.925781 C 264.984375 51.414062 264.035156 50.882812 263.074219 50.351562 C 262.085938 49.859375 261.089844 49.363281 260.105469 48.875 C 256.210938 46.832031 252.390625 45.203125 250.621094 44.007812 C 253.898438 45.703125 256.394531 45.835938 259.773438 47.886719 C 261.09375 48.257812 262.410156 48.675781 263.804688 49.1875 C 265.175781 49.757812 266.617188 50.425781 268.21875 51.238281 C 269.019531 51.644531 269.855469 52.085938 270.746094 52.570312 C 271.609375 53.09375 272.515625 53.664062 273.480469 54.28125 C 274.449219 54.90625 275.46875 55.574219 276.550781 56.304688 C 277.101562 56.660156 277.644531 57.058594 278.199219 57.484375 C 278.753906 57.910156 279.328125 58.34375 279.921875 58.796875 C 280.929688 59.566406 281.910156 60.414062 282.878906 61.257812 C 283.851562 62.101562 284.753906 63.019531 285.710938 63.820312 C 289.308594 66.765625 293.011719 69.71875 294.496094 71.59375 C 294.011719 71.554688 293.082031 70.996094 291.902344 70.152344 C 291.3125 69.730469 290.660156 69.234375 289.972656 68.695312 C 289.277344 68.164062 288.570312 67.558594 287.789062 67.011719 C 286.25 65.886719 284.65625 64.703125 283.214844 63.683594 C 282.503906 63.160156 281.800781 62.71875 281.160156 62.347656 C 280.523438 61.976562 279.953125 61.664062 279.476562 61.445312 Z M 307.285156 90.585938 C 307.027344 89.855469 305.480469 88.445312 304.726562 87.503906 C 303.996094 86.589844 303.472656 85.804688 302.960938 85.0625 C 302.425781 84.34375 301.917969 83.660156 301.25 82.929688 C 300.027344 81.578125 299.082031 80.730469 298.050781 79.789062 C 296.980469 78.882812 295.796875 77.917969 294.125 76.28125 C 293.058594 75.269531 293.246094 75.871094 292.601562 75.398438 C 284.445312 68.324219 276 62.34375 266.789062 56.886719 C 257.566406 51.453125 247.542969 46.542969 235.859375 42.246094 C 236.472656 42.007812 238.488281 42.558594 240.304688 42.988281 C 241.214844 43.179688 242.046875 43.429688 242.640625 43.488281 C 243.234375 43.554688 243.582031 43.464844 243.476562 43.085938 C 245.078125 43.675781 246.625 44.261719 248.125 44.839844 C 249.621094 45.441406 251.03125 46.121094 252.429688 46.742188 C 253.121094 47.058594 253.808594 47.371094 254.492188 47.679688 C 255.171875 47.988281 255.84375 48.300781 256.488281 48.648438 C 257.789062 49.324219 259.066406 49.988281 260.328125 50.640625 C 260.957031 50.96875 261.585938 51.292969 262.210938 51.613281 C 262.832031 51.945312 263.429688 52.304688 264.039062 52.644531 C 265.246094 53.332031 266.457031 54.007812 267.671875 54.671875 C 268.902344 55.3125 270.078125 56.03125 271.285156 56.730469 C 272.488281 57.429688 273.714844 58.113281 274.964844 58.792969 C 275.808594 59.308594 276.574219 59.910156 277.351562 60.460938 C 278.121094 61.023438 278.875 61.578125 279.632812 62.132812 C 280.375 62.691406 281.121094 63.246094 281.863281 63.808594 C 282.582031 64.398438 283.304688 64.996094 284.027344 65.601562 C 284.757812 66.203125 285.492188 66.8125 286.242188 67.4375 C 286.992188 68.054688 287.761719 68.679688 288.507812 69.382812 C 290.027344 70.738281 291.632812 72.167969 293.363281 73.710938 C 295.089844 75.371094 296.804688 77.023438 298.429688 78.625 C 300 80.273438 301.433594 81.898438 302.71875 83.386719 C 303.035156 83.761719 303.339844 84.125 303.640625 84.480469 C 303.921875 84.84375 304.1875 85.210938 304.441406 85.5625 C 304.949219 86.265625 305.402344 86.925781 305.792969 87.539062 C 306.574219 88.769531 307.097656 89.804688 307.285156 90.585938 Z M 306.375 92.082031 C 306.03125 91.796875 305.832031 91.742188 305.75 91.863281 C 304.082031 90.011719 304.816406 90.097656 306.375 92.082031 Z M 310.71875 98.011719 L 310.515625 98.164062 C 309.007812 96.363281 306.289062 93.117188 306.53125 92.683594 C 308.402344 94.765625 309.015625 95.660156 310.71875 98.011719 Z M 311.3125 102.441406 C 310.882812 101.78125 310.445312 101.113281 310.003906 100.429688 C 309.5625 99.746094 309.117188 99.058594 308.613281 98.390625 C 307.632812 97.046875 306.625 95.671875 305.601562 94.269531 C 305.339844 93.921875 305.089844 93.566406 304.816406 93.222656 C 304.539062 92.886719 304.257812 92.546875 303.980469 92.207031 C 303.414062 91.527344 302.84375 90.847656 302.273438 90.164062 C 301.691406 89.480469 301.113281 88.796875 300.523438 88.109375 C 299.941406 87.417969 299.289062 86.789062 298.664062 86.128906 C 297.570312 85.003906 296.464844 83.917969 295.367188 82.863281 C 294.253906 81.832031 293.089844 80.882812 291.992188 79.925781 C 291.441406 79.449219 290.902344 78.976562 290.367188 78.511719 C 289.839844 78.042969 289.316406 77.585938 288.78125 77.15625 C 287.730469 76.285156 286.734375 75.421875 285.824219 74.550781 C 290.492188 77.664062 296.683594 83.933594 300.3125 86.894531 C 301.222656 87.9375 302.101562 89.089844 303.019531 90.226562 C 303.476562 90.792969 303.933594 91.367188 304.386719 91.9375 C 304.847656 92.503906 305.3125 93.0625 305.722656 93.644531 C 306.574219 94.792969 307.410156 95.898438 308.210938 96.90625 C 309.003906 97.921875 309.789062 98.816406 310.433594 99.625 C 310.394531 100.21875 311.859375 102.375 311.3125 102.441406 Z M 313.921875 102.664062 C 313.972656 103.128906 313.136719 101.847656 312.992188 101.933594 C 312.703125 101.230469 311.738281 99.828125 311.703125 99.394531 C 312.890625 100.949219 312.855469 101.234375 313.921875 102.664062 Z M 322.140625 118.707031 C 322.050781 118.957031 321.816406 118.777344 321.519531 118.402344 C 321.269531 117.660156 320.792969 116.761719 320.28125 115.765625 C 319.75 114.769531 319.167969 113.683594 318.601562 112.617188 C 318.320312 112.085938 318.042969 111.554688 317.773438 111.046875 C 317.488281 110.550781 317.21875 110.074219 316.980469 109.625 C 316.496094 108.726562 316.128906 107.949219 315.964844 107.390625 C 317.378906 109.679688 318.246094 111.15625 319.035156 112.777344 C 319.449219 113.570312 319.878906 114.386719 320.371094 115.339844 C 320.867188 116.289062 321.492188 117.339844 322.140625 118.707031 Z M 329.757812 132.492188 C 330.03125 132.097656 330.914062 133.710938 331.800781 135.636719 C 332.019531 136.113281 332.242188 136.617188 332.453125 137.109375 C 332.636719 137.613281 332.816406 138.105469 332.984375 138.5625 C 333.304688 139.480469 333.5625 140.261719 333.679688 140.683594 C 334.167969 142.390625 334.753906 145.324219 333.875 143.597656 C 333.386719 142.636719 332.769531 140.601562 332.097656 138.417969 C 331.785156 137.320312 331.34375 136.226562 330.949219 135.199219 C 330.546875 134.175781 330.140625 133.230469 329.757812 132.492188 Z M 336.738281 167.585938 C 336.664062 166.894531 336.832031 167.007812 336.902344 167.5625 C 337.003906 167.457031 336.8125 166.554688 336.710938 165.910156 C 336.808594 165.96875 336.917969 166.472656 337.027344 166.980469 C 337.132812 167.488281 337.203125 168.003906 337.300781 168.066406 C 337.359375 167.15625 337.210938 165.972656 337.089844 164.71875 C 337.535156 166.226562 337.621094 167.523438 337.464844 168.160156 C 337.324219 168.789062 337.023438 168.742188 336.738281 167.585938 Z M 219.207031 331.515625 C 218.644531 331.617188 218.078125 331.722656 217.507812 331.828125 C 216.9375 331.9375 216.363281 332.046875 215.777344 332.113281 C 214.617188 332.273438 213.457031 332.445312 212.304688 332.628906 C 211.15625 332.828125 210.011719 333.027344 208.898438 333.21875 C 207.773438 333.386719 206.679688 333.578125 205.628906 333.800781 C 204.402344 333.917969 203.144531 334.0625 201.859375 334.160156 C 200.574219 334.21875 199.257812 334.277344 197.929688 334.339844 C 197.261719 334.371094 196.59375 334.402344 195.921875 334.433594 C 195.25 334.472656 194.574219 334.5 193.894531 334.484375 C 192.539062 334.484375 191.175781 334.488281 189.804688 334.492188 C 184.339844 334.507812 178.882812 334.210938 173.914062 334.011719 C 173.480469 333.941406 173.039062 333.882812 172.59375 333.824219 C 172.148438 333.746094 171.699219 333.675781 171.242188 333.605469 C 170.332031 333.472656 169.398438 333.355469 168.464844 333.242188 C 167.527344 333.132812 166.585938 333.019531 165.652344 332.910156 C 164.726562 332.769531 163.820312 332.578125 162.941406 332.386719 C 154.554688 330.59375 146.125 328.421875 137.867188 325.691406 C 129.628906 322.929688 121.574219 319.613281 114.019531 315.738281 C 112.9375 315.121094 111.859375 314.515625 110.824219 313.820312 C 109.710938 313.171875 108.589844 312.542969 107.457031 311.917969 C 106.894531 311.597656 106.316406 311.300781 105.757812 310.964844 C 105.203125 310.617188 104.648438 310.277344 104.085938 309.929688 C 102.960938 309.230469 101.820312 308.519531 100.65625 307.796875 C 100.0625 307.4375 99.503906 307.027344 98.933594 306.621094 C 98.359375 306.203125 97.78125 305.785156 97.191406 305.359375 C 96.589844 304.917969 95.980469 304.464844 95.367188 304.011719 C 95.058594 303.78125 94.753906 303.550781 94.441406 303.320312 C 94.136719 303.085938 93.84375 302.828125 93.546875 302.582031 C 92.355469 301.574219 91.144531 300.550781 89.914062 299.515625 L 89 298.730469 L 88.117188 297.894531 C 87.53125 297.332031 86.941406 296.769531 86.347656 296.203125 C 85.179688 295.058594 83.949219 293.953125 82.851562 292.71875 C 81.726562 291.511719 80.601562 290.300781 79.472656 289.089844 C 78.375 287.855469 77.347656 286.570312 76.292969 285.320312 C 75.769531 284.695312 75.246094 284.070312 74.726562 283.449219 C 74.226562 282.8125 73.75 282.160156 73.265625 281.523438 C 72.300781 280.246094 71.351562 278.984375 70.414062 277.746094 C 70.484375 277.625 70.683594 277.628906 69.992188 276.722656 C 68.339844 274.1875 66.65625 271.726562 65.230469 269.109375 C 64.5 267.816406 63.734375 266.550781 63.035156 265.242188 C 62.359375 263.921875 61.683594 262.601562 61.007812 261.273438 C 60.667969 260.613281 60.324219 259.949219 59.984375 259.285156 C 59.671875 258.605469 59.363281 257.925781 59.050781 257.246094 C 58.414062 255.886719 57.777344 254.519531 57.132812 253.144531 C 56.539062 251.746094 55.941406 250.335938 55.335938 248.910156 C 55.027344 248.203125 54.714844 247.488281 54.40625 246.773438 C 54.101562 246.050781 53.832031 245.308594 53.539062 244.574219 C 52.976562 243.136719 52.363281 241.769531 51.78125 240.394531 C 51.234375 239.007812 50.789062 237.597656 50.429688 236.128906 C 50.105469 235.386719 49.777344 234.59375 49.4375 233.765625 C 49.097656 232.9375 48.832031 232.046875 48.519531 231.148438 C 48.21875 230.25 47.914062 229.328125 47.605469 228.402344 C 47.304688 227.472656 46.96875 226.550781 46.734375 225.605469 C 46.378906 223.820312 45.9375 221.777344 45.4375 219.625 C 45.039062 217.449219 44.609375 215.164062 44.148438 212.914062 C 43.753906 210.660156 43.425781 208.425781 43.042969 206.390625 C 42.835938 205.378906 42.707031 204.402344 42.570312 203.496094 C 42.433594 202.585938 42.296875 201.746094 42.15625 200.996094 C 42.132812 199.9375 42.074219 198.910156 41.996094 197.894531 C 41.957031 196.882812 41.914062 195.882812 41.855469 194.882812 C 41.792969 193.875 41.730469 192.875 41.667969 191.847656 C 41.636719 191.339844 41.609375 190.820312 41.582031 190.296875 C 41.585938 189.773438 41.589844 189.246094 41.597656 188.707031 C 41.660156 185.71875 41.644531 182.613281 41.941406 179.429688 C 42 178.632812 42.054688 177.832031 42.113281 177.023438 C 42.179688 176.214844 42.207031 175.398438 42.328125 174.585938 C 42.527344 172.964844 42.730469 171.316406 42.9375 169.660156 C 43.898438 163.042969 45.207031 156.210938 47.207031 149.554688 L 47.910156 147.042969 C 48.167969 146.214844 48.460938 145.394531 48.734375 144.570312 C 49.296875 142.929688 49.820312 141.273438 50.410156 139.648438 C 51.683594 136.4375 52.859375 133.214844 54.316406 130.160156 C 55.632812 127.046875 57.210938 124.117188 58.664062 121.214844 C 59.414062 119.773438 60.25 118.402344 61.015625 117.023438 C 61.792969 115.648438 62.542969 114.285156 63.390625 113.011719 C 63.867188 112 64.355469 111.15625 64.882812 110.289062 C 65.414062 109.429688 65.933594 108.507812 66.625 107.4375 C 67.714844 106.089844 68.964844 104.394531 70.320312 102.546875 C 71.761719 100.757812 73.253906 98.773438 74.789062 96.816406 C 76.394531 94.917969 77.9375 92.957031 79.433594 91.207031 C 80.96875 89.484375 82.363281 87.886719 83.5 86.554688 C 85.078125 85.320312 87.023438 83.488281 89.164062 81.492188 C 90.269531 80.539062 91.421875 79.542969 92.582031 78.542969 C 93.164062 78.046875 93.742188 77.542969 94.335938 77.0625 C 94.945312 76.609375 95.554688 76.15625 96.152344 75.710938 C 99.878906 72.898438 103.613281 70.929688 106.238281 68.605469 C 110.667969 65.828125 115.21875 62.949219 120.148438 60.425781 C 121.378906 59.792969 122.621094 59.160156 123.871094 58.519531 C 125.144531 57.933594 126.441406 57.371094 127.742188 56.800781 C 130.328125 55.609375 133.0625 54.6875 135.820312 53.742188 C 136.382812 53.558594 136.9375 53.355469 137.511719 53.191406 C 138.082031 53.039062 138.65625 52.878906 139.230469 52.722656 C 140.378906 52.414062 141.53125 52.101562 142.691406 51.792969 C 143.273438 51.644531 143.84375 51.464844 144.433594 51.335938 C 145.019531 51.207031 145.613281 51.078125 146.203125 50.945312 C 147.386719 50.683594 148.574219 50.40625 149.761719 50.121094 C 151.339844 49.597656 152.949219 49.289062 154.523438 48.898438 C 155.316406 48.710938 156.101562 48.527344 156.890625 48.339844 L 158.070312 48.066406 L 159.269531 47.851562 C 160.863281 47.5625 162.457031 47.265625 164.078125 46.972656 C 164.480469 46.894531 164.886719 46.820312 165.292969 46.742188 C 165.703125 46.683594 166.113281 46.625 166.523438 46.566406 C 167.351562 46.445312 168.179688 46.320312 169.019531 46.195312 C 169.09375 46.085938 168.898438 45.972656 169.519531 45.878906 C 170.507812 45.800781 171.628906 45.613281 172.851562 45.457031 C 174.074219 45.3125 175.386719 45.160156 176.738281 44.996094 C 177.417969 44.917969 178.105469 44.839844 178.792969 44.757812 L 179.832031 44.648438 L 180.871094 44.597656 C 182.257812 44.542969 183.628906 44.519531 184.929688 44.5625 C 185.972656 44.480469 187 44.324219 188.027344 44.285156 C 189.058594 44.230469 190.085938 44.175781 191.125 44.117188 C 192.171875 44.0625 193.226562 44.003906 194.3125 43.945312 C 195.402344 43.882812 196.511719 43.9375 197.664062 43.941406 C 199.976562 43.980469 202.46875 43.984375 205.21875 44.320312 C 206.59375 44.460938 208.042969 44.621094 209.574219 44.808594 C 211.097656 45.054688 212.695312 45.359375 214.390625 45.6875 C 215.082031 45.699219 215.863281 45.75 216.726562 45.828125 C 217.585938 45.914062 218.507812 46.089844 219.492188 46.261719 C 220.476562 46.4375 221.515625 46.636719 222.589844 46.855469 C 223.125 46.964844 223.675781 47.074219 224.226562 47.1875 C 224.769531 47.332031 225.324219 47.476562 225.878906 47.625 C 226.992188 47.921875 228.117188 48.226562 229.238281 48.527344 C 230.359375 48.828125 231.484375 49.117188 232.550781 49.488281 C 234.703125 50.191406 236.773438 50.8125 238.582031 51.367188 C 241.238281 52.527344 244.816406 53.882812 248.027344 55.574219 C 251.304688 57.117188 254.226562 58.925781 255.945312 60.15625 C 257.59375 61.007812 259.078125 62.007812 260.722656 62.980469 C 261.542969 63.464844 262.390625 63.964844 263.289062 64.496094 C 264.167969 65.050781 265.09375 65.636719 266.09375 66.265625 C 267.21875 67.097656 267.613281 67.601562 269.078125 68.578125 C 269.777344 68.886719 270.710938 69.472656 271.855469 70.238281 C 272.621094 70.871094 273.453125 71.539062 274.339844 72.230469 C 274.5625 72.402344 274.785156 72.578125 275.011719 72.757812 C 275.230469 72.941406 275.453125 73.132812 275.679688 73.320312 C 276.128906 73.703125 276.589844 74.089844 277.058594 74.484375 C 278.007812 75.265625 278.988281 76.070312 279.988281 76.890625 C 280.992188 77.710938 281.957031 78.621094 282.972656 79.488281 C 283.972656 80.371094 285.011719 81.234375 286.007812 82.128906 C 286.992188 83.046875 287.972656 83.960938 288.941406 84.863281 C 290.925781 86.613281 292.699219 88.472656 294.40625 90.117188 C 294.660156 90.621094 295.308594 91.246094 295.941406 91.917969 C 296.554688 92.601562 297.183594 93.304688 297.460938 93.871094 C 302.84375 99.707031 308.171875 106.152344 312.664062 113.230469 C 317.1875 120.277344 320.980469 127.875 323.550781 135.597656 C 323.5625 137.027344 323.867188 138.816406 324.046875 140.410156 C 324.167969 142.023438 324.207031 143.421875 323.820312 144.023438 C 324.0625 145.347656 324.820312 147.503906 324.667969 148.183594 C 324.347656 148.015625 324.5625 149 324.472656 149.339844 C 325.488281 153.9375 326.859375 162.839844 328.25 167.8125 C 328.578125 168.402344 328.851562 169.046875 329.128906 169.601562 C 329.40625 170.15625 329.675781 170.628906 329.914062 170.894531 C 330.402344 171.421875 330.789062 171.128906 330.957031 169 C 331.851562 169.167969 332.597656 167.535156 333.347656 167.460938 C 333.738281 167.425781 334.148438 167.78125 334.570312 168.96875 C 334.984375 170.160156 335.480469 172.175781 335.953125 175.457031 C 336.871094 177.441406 337.53125 179.71875 338.523438 178.558594 C 338.628906 176.882812 338.882812 175.59375 339.015625 174.101562 C 339.132812 172.609375 339.210938 170.902344 339.101562 168.367188 C 339.390625 169.390625 339.320312 168.40625 339.511719 168.3125 C 339.425781 167.121094 339.140625 165.65625 338.949219 164.445312 C 338.761719 163.234375 338.660156 162.28125 338.828125 162.128906 C 339.828125 168.023438 340.433594 168.734375 341.148438 173.238281 C 341.523438 174.46875 341.785156 175.273438 342.078125 175.835938 C 342.363281 176.402344 342.644531 176.730469 342.921875 177.015625 C 343.472656 177.589844 343.996094 177.992188 344.46875 179.84375 C 344.472656 180.597656 344.460938 181.035156 344.472656 181.496094 C 344.496094 181.957031 344.523438 182.445312 344.589844 183.304688 C 345.171875 184.261719 345.285156 182.0625 345.71875 185 C 346.007812 183.953125 345.992188 182.445312 345.839844 180.335938 C 346.21875 179.445312 346.367188 177.492188 346.417969 175.117188 C 346.472656 173.925781 346.375 172.636719 346.316406 171.316406 C 346.246094 170 346.179688 168.65625 346.109375 167.367188 C 346.050781 166.890625 345.992188 166.425781 345.933594 165.964844 C 345.859375 165.503906 345.785156 165.046875 345.707031 164.597656 C 345.558594 163.695312 345.414062 162.808594 345.273438 161.941406 C 345.136719 161.074219 345.003906 160.21875 344.871094 159.382812 C 344.746094 158.539062 344.625 157.710938 344.445312 156.910156 C 344.132812 155.292969 343.832031 153.722656 343.539062 152.1875 C 343.386719 151.421875 343.253906 150.65625 343.09375 149.902344 C 342.917969 149.160156 342.742188 148.417969 342.566406 147.683594 C 342.210938 146.207031 341.859375 144.753906 341.507812 143.296875 C 341.339844 142.566406 341.132812 141.847656 340.910156 141.128906 C 340.6875 140.414062 340.46875 139.695312 340.25 138.972656 C 339.800781 137.53125 339.34375 136.074219 338.839844 134.601562 C 338.28125 133.148438 337.699219 131.671875 337.074219 130.164062 C 337.25 129.894531 336.886719 128.644531 336.324219 127.183594 C 335.707031 125.746094 334.886719 124.097656 334.265625 122.984375 C 334.003906 121.90625 334.699219 122.332031 333.964844 120.503906 C 333.078125 119.101562 333.871094 121.140625 333.683594 121.296875 C 333.179688 120.324219 332.265625 118.757812 331.449219 117.214844 C 330.632812 115.671875 329.890625 114.171875 329.613281 113.386719 C 328.457031 111.746094 326.953125 109.277344 325.398438 106.691406 C 324.570312 105.429688 323.707031 104.15625 322.871094 102.9375 C 322.019531 101.726562 321.238281 100.546875 320.421875 99.585938 C 320.011719 98.714844 319.441406 97.671875 318.675781 96.421875 C 317.894531 95.179688 316.980469 93.683594 315.6875 92.070312 C 315.40625 92.191406 314.710938 91.59375 314.066406 91.085938 C 313.148438 90.011719 312.300781 88.992188 311.503906 88.007812 C 310.667969 87.054688 309.871094 86.152344 309.121094 85.265625 C 308.371094 84.375 307.652344 83.511719 306.945312 82.671875 C 306.601562 82.242188 306.246094 81.828125 305.878906 81.433594 C 305.515625 81.027344 305.15625 80.628906 304.796875 80.230469 C 304.074219 79.429688 303.359375 78.632812 302.625 77.824219 C 301.890625 77.019531 301.152344 76.191406 300.3125 75.414062 C 299.488281 74.613281 298.632812 73.804688 297.71875 72.964844 C 297.261719 72.550781 296.792969 72.125 296.308594 71.691406 C 296.066406 71.472656 295.820312 71.253906 295.570312 71.035156 C 295.308594 70.828125 295.042969 70.617188 294.777344 70.40625 C 293.730469 69.332031 292.339844 68.042969 290.757812 66.628906 C 289.976562 65.902344 289.09375 65.214844 288.191406 64.496094 C 287.28125 63.78125 286.347656 63.046875 285.398438 62.300781 C 284.839844 61.792969 284.277344 61.253906 283.667969 60.738281 C 283.046875 60.234375 282.410156 59.71875 281.761719 59.191406 C 280.449219 58.144531 279.078125 57.050781 277.628906 55.960938 C 274.640625 53.914062 271.492188 51.671875 268.039062 49.746094 C 264.667969 47.6875 261.011719 45.941406 257.433594 44.195312 C 253.761719 42.632812 250.15625 41.054688 246.585938 39.921875 C 245.699219 39.34375 244.628906 38.785156 243.453125 38.246094 C 242.269531 37.722656 240.949219 37.289062 239.609375 36.828125 C 238.261719 36.386719 236.878906 35.933594 235.527344 35.488281 C 234.15625 35.105469 232.820312 34.726562 231.578125 34.320312 C 229.613281 33.679688 227.660156 32.988281 225.664062 32.457031 C 223.667969 31.894531 221.679688 31.292969 219.660156 30.789062 C 217.628906 30.339844 215.582031 29.914062 213.515625 29.539062 C 213 29.449219 212.484375 29.347656 211.964844 29.277344 L 210.390625 29.101562 C 209.34375 28.992188 208.289062 28.898438 207.226562 28.824219 C 206.253906 28.703125 206.871094 29.011719 206.015625 28.921875 C 205.246094 28.824219 204.449219 28.695312 203.621094 28.621094 C 202.792969 28.558594 201.9375 28.496094 201.0625 28.429688 C 199.320312 28.320312 197.5 28.203125 195.660156 28.089844 C 193.8125 28.066406 191.9375 28.042969 190.085938 28.019531 C 189.164062 28.007812 188.246094 27.992188 187.339844 27.980469 C 186.433594 28.007812 185.539062 28.035156 184.660156 28.058594 C 183.40625 28.089844 182.164062 28.097656 180.929688 28.105469 C 180.3125 28.105469 179.695312 28.105469 179.078125 28.105469 L 177.230469 28.195312 C 176.003906 28.261719 174.773438 28.324219 173.539062 28.414062 C 172.921875 28.460938 172.304688 28.511719 171.683594 28.558594 L 170.753906 28.644531 L 169.824219 28.785156 C 166.941406 29.246094 164.421875 29.664062 162.226562 30.199219 C 160.035156 30.789062 158.15625 31.402344 156.53125 32.0625 C 155.976562 32.160156 155.414062 32.265625 154.851562 32.398438 C 154.292969 32.546875 153.730469 32.714844 153.160156 32.886719 C 152.03125 33.242188 150.882812 33.605469 149.734375 33.964844 C 147.421875 34.640625 145.15625 35.46875 142.902344 35.871094 C 142.082031 36.207031 142.332031 36.390625 140.734375 36.835938 C 139.628906 37.167969 139.578125 37.050781 138.996094 37.191406 C 139.140625 37.472656 139.691406 37.207031 139.144531 37.667969 C 142.234375 36.550781 143.765625 36.203125 146.359375 35.148438 C 146.75 35.050781 147.027344 35.003906 147.355469 34.9375 C 147.6875 34.882812 148.070312 34.808594 148.660156 34.652344 C 151.714844 33.695312 155.019531 32.554688 158.671875 31.722656 C 159.582031 31.5 160.511719 31.273438 161.453125 31.039062 C 161.925781 30.929688 162.402344 30.816406 162.882812 30.699219 C 163.367188 30.609375 163.855469 30.519531 164.351562 30.433594 C 166.324219 30.070312 168.367188 29.714844 170.480469 29.375 C 172.523438 29.109375 174.597656 28.945312 176.644531 28.769531 C 177.664062 28.699219 178.679688 28.578125 179.6875 28.566406 C 180.6875 28.539062 181.679688 28.511719 182.648438 28.488281 C 183.621094 28.460938 184.574219 28.429688 185.5 28.40625 C 186.425781 28.382812 187.324219 28.316406 188.1875 28.339844 C 189.925781 28.339844 191.53125 28.308594 192.964844 28.214844 C 194.320312 28.28125 193.742188 28.566406 194.730469 28.675781 C 195.503906 28.609375 196.25 28.636719 196.996094 28.691406 C 197.738281 28.742188 198.476562 28.816406 199.238281 28.898438 C 200.753906 29.070312 202.34375 29.246094 204.175781 29.363281 C 206.746094 29.613281 208.964844 29.488281 211.894531 29.839844 C 214.839844 30.320312 217.222656 30.84375 219.714844 31.378906 C 222.183594 32.015625 224.757812 32.707031 228.109375 33.511719 C 229.40625 34.167969 231.710938 34.875 233.726562 35.5 C 234.226562 35.65625 234.710938 35.808594 235.160156 35.949219 C 235.605469 36.097656 236.003906 36.265625 236.347656 36.40625 C 237.035156 36.695312 237.488281 36.933594 237.542969 37.09375 C 236.875 37.027344 235.917969 36.585938 234.890625 36.195312 C 233.859375 35.820312 232.777344 35.4375 231.902344 35.367188 C 233.007812 35.769531 234.285156 36.195312 234.640625 36.496094 C 231.660156 35.9375 229.558594 35.769531 227.292969 35.53125 C 224.996094 35.40625 222.542969 35.171875 218.832031 34.542969 C 217.289062 34.25 215.847656 33.992188 214.5 33.761719 C 213.828125 33.652344 213.175781 33.546875 212.546875 33.445312 C 211.914062 33.335938 211.304688 33.25 210.707031 33.203125 C 208.328125 32.976562 206.269531 32.835938 204.410156 32.75 C 194.417969 31.433594 182.210938 31.085938 170.175781 32.554688 C 164.167969 33.300781 158.191406 34.304688 152.582031 35.726562 C 151.179688 36.078125 149.792969 36.429688 148.425781 36.773438 C 147.0625 37.132812 145.746094 37.582031 144.441406 37.972656 C 143.140625 38.382812 141.863281 38.78125 140.609375 39.175781 C 139.375 39.609375 138.179688 40.074219 137.003906 40.503906 C 135.820312 40.84375 134.683594 41.179688 133.558594 41.527344 C 132.4375 41.875 131.355469 42.320312 130.230469 42.746094 C 129.109375 43.179688 127.964844 43.636719 126.753906 44.136719 C 126.453125 44.261719 126.148438 44.390625 125.835938 44.519531 C 125.53125 44.664062 125.226562 44.8125 124.910156 44.960938 C 124.28125 45.265625 123.632812 45.578125 122.960938 45.90625 C 122.117188 46.136719 121.144531 46.46875 120.085938 46.875 C 119.558594 47.085938 118.992188 47.289062 118.433594 47.550781 C 117.875 47.824219 117.296875 48.105469 116.703125 48.390625 C 114.339844 49.578125 111.714844 50.917969 109.238281 52.492188 C 107.984375 53.253906 106.734375 54.015625 105.523438 54.75 C 104.339844 55.535156 103.191406 56.296875 102.113281 57.011719 C 101.023438 57.722656 100.003906 58.375 99.070312 58.945312 C 98.152344 59.546875 97.335938 60.078125 96.621094 60.484375 C 95.664062 61.710938 93.113281 63.539062 90.644531 65.496094 C 89.390625 66.449219 88.109375 67.375 86.972656 68.164062 C 85.867188 68.984375 84.917969 69.679688 84.261719 70.101562 C 84.007812 70.703125 82.96875 71.722656 81.703125 72.808594 C 80.449219 73.902344 79.046875 75.164062 77.933594 76.074219 C 77.839844 75.996094 79.523438 74.195312 77.761719 75.898438 C 76.917969 76.667969 77.007812 76.773438 76.617188 77.21875 C 76.179688 77.527344 75.679688 77.875 75.230469 78.1875 C 74.800781 78.511719 74.410156 78.777344 74.148438 78.859375 C 72.613281 80.378906 72.527344 80.765625 70.996094 82.285156 C 71.28125 81.75 71.429688 81.316406 72.300781 80.3125 C 74.382812 77.96875 74.863281 77.820312 76.152344 76.742188 C 75.953125 76.644531 75.160156 77.328125 76.335938 76.101562 C 77.265625 75.9375 78.960938 73.421875 80.367188 72.722656 C 79.585938 73.480469 78.992188 74.105469 78.789062 74.453125 C 80.359375 72.789062 82.378906 70.964844 83.828125 69.59375 C 83.359375 70.003906 82.679688 70.535156 83.332031 69.914062 C 75.253906 76.289062 68.453125 83.277344 62.445312 90.828125 C 56.449219 98.394531 51.230469 106.53125 46.539062 115.570312 C 45.855469 116.457031 44.824219 118.351562 43.84375 120.109375 C 43.519531 120.773438 43.242188 121.425781 42.988281 122.066406 C 42.722656 122.695312 42.472656 123.300781 42.238281 123.878906 C 41.761719 125.035156 41.339844 126.082031 40.992188 127.015625 C 40.824219 127.480469 40.660156 127.917969 40.535156 128.328125 C 40.421875 128.746094 40.328125 129.128906 40.253906 129.484375 C 40.109375 130.195312 40.054688 130.777344 40.109375 131.230469 C 40.429688 130.414062 40.742188 129.613281 41.046875 128.824219 C 41.355469 128.035156 41.71875 127.277344 42.046875 126.5 C 42.722656 124.953125 43.40625 123.390625 44.144531 121.707031 C 45.765625 118.40625 47.570312 114.589844 50.46875 109.746094 C 51.796875 107.808594 53.070312 106.472656 53.738281 106.300781 C 52.558594 108.210938 51.46875 110.226562 50.316406 112.214844 C 49.738281 113.210938 49.15625 114.207031 48.578125 115.207031 C 48.035156 116.226562 47.496094 117.246094 46.957031 118.261719 C 46.417969 119.28125 45.878906 120.296875 45.34375 121.304688 C 44.8125 122.316406 44.367188 123.363281 43.886719 124.382812 C 43.425781 125.40625 42.964844 126.425781 42.515625 127.433594 C 42.296875 127.9375 42.066406 128.433594 41.867188 128.945312 C 41.679688 129.453125 41.492188 129.960938 41.308594 130.464844 C 40.894531 131.625 40.820312 132.136719 40.402344 133.222656 C 40.078125 134.054688 39.773438 134.835938 39.488281 135.578125 C 39.1875 136.316406 38.976562 137.03125 38.734375 137.699219 C 38.253906 139.035156 37.828125 140.238281 37.425781 141.367188 C 36.554688 143.613281 35.984375 145.648438 35.25 147.96875 C 32.523438 157.007812 30.898438 167.050781 29.953125 176.421875 C 29.777344 178.488281 29.191406 180.511719 29.417969 182.777344 C 29.660156 180.226562 29.988281 177.550781 30.195312 175.046875 C 30.222656 174.730469 30.253906 174.421875 30.277344 174.113281 C 30.320312 173.808594 30.359375 173.503906 30.398438 173.207031 C 30.472656 172.609375 30.546875 172.027344 30.617188 171.464844 C 30.75 170.339844 30.859375 169.296875 30.941406 168.367188 C 31.054688 167.714844 31.179688 167 31.3125 166.242188 C 31.472656 165.488281 31.644531 164.6875 31.820312 163.851562 C 32.160156 162.183594 32.523438 160.382812 32.894531 158.542969 C 33.335938 156.726562 33.789062 154.871094 34.222656 153.085938 C 34.449219 152.195312 34.632812 151.3125 34.875 150.472656 C 35.117188 149.636719 35.347656 148.828125 35.570312 148.058594 C 36.085938 146.558594 36.570312 145.101562 37.03125 143.675781 C 37.546875 142.265625 38.046875 140.886719 38.546875 139.515625 C 38.789062 138.832031 39.03125 138.148438 39.273438 137.46875 C 39.511719 136.789062 39.738281 136.105469 40.023438 135.441406 C 40.554688 134.097656 41.085938 132.753906 41.628906 131.390625 C 41.894531 130.707031 42.167969 130.019531 42.441406 129.324219 C 42.71875 128.632812 43.046875 127.953125 43.351562 127.253906 C 43.980469 125.859375 44.628906 124.433594 45.296875 122.953125 C 45.617188 122.210938 46.003906 121.476562 46.394531 120.730469 C 46.78125 119.984375 47.179688 119.222656 47.585938 118.445312 C 48.40625 116.898438 49.226562 115.261719 50.253906 113.636719 C 51.027344 113.175781 51.871094 111.535156 53.195312 109.351562 C 53.507812 109.75 54.695312 108.246094 56.285156 105.878906 C 57.039062 104.472656 55.460938 106.53125 56.246094 105.167969 C 57.257812 103.867188 58.222656 102.65625 58.679688 102.664062 C 57.808594 103.90625 56.933594 105.414062 56.425781 105.96875 C 57.046875 105.746094 58.871094 102.777344 59.296875 103.085938 C 58.507812 104.257812 57.820312 105.472656 57.101562 106.648438 C 56.402344 107.828125 55.699219 108.992188 55.027344 110.164062 C 53.78125 112.554688 52.515625 114.882812 51.34375 117.246094 C 50.78125 118.441406 50.21875 119.632812 49.65625 120.828125 C 49.101562 122.027344 48.476562 123.195312 47.976562 124.429688 C 47.449219 125.648438 46.90625 126.875 46.347656 128.105469 C 46.066406 128.71875 45.78125 129.339844 45.5 129.957031 C 45.214844 130.578125 44.972656 131.21875 44.699219 131.855469 C 43.949219 133.132812 43.367188 133.699219 42.546875 135.273438 C 42.4375 136.503906 44.125 132.765625 44.648438 132.449219 C 44.171875 134.039062 43.425781 136.003906 42.796875 137.953125 C 42.207031 139.917969 41.644531 141.832031 41.339844 143.242188 C 41.179688 143.535156 41.050781 143.621094 40.894531 143.847656 C 40.746094 144.070312 40.550781 144.429688 40.339844 145.289062 C 37.089844 155.363281 36.273438 162.515625 35.347656 170.683594 C 35.195312 172.238281 34.972656 173.765625 34.863281 175.292969 C 34.753906 176.820312 34.640625 178.335938 34.535156 179.847656 L 34.359375 182.109375 C 34.308594 182.867188 34.308594 183.625 34.277344 184.378906 C 34.234375 185.898438 34.1875 187.414062 34.140625 188.941406 C 34.058594 190.472656 34.152344 192.015625 34.171875 193.574219 C 34.210938 195.132812 34.238281 196.710938 34.300781 198.3125 C 34.433594 199.914062 34.570312 201.539062 34.714844 203.195312 C 34.785156 204.023438 34.867188 204.855469 34.941406 205.703125 C 35.039062 206.546875 35.183594 207.394531 35.308594 208.253906 C 35.359375 209.152344 34.886719 208.175781 35.1875 209.964844 C 35.3125 211 35.441406 212.089844 35.574219 213.210938 C 35.71875 214.335938 35.957031 215.480469 36.152344 216.644531 C 36.574219 218.960938 36.933594 221.351562 37.457031 223.582031 C 37.695312 224.707031 37.917969 225.800781 38.117188 226.851562 C 38.316406 227.902344 38.480469 228.90625 38.691406 229.828125 C 39.070312 231.683594 39.308594 233.28125 39.328125 234.46875 C 39.828125 236.179688 40.148438 237.25 40.382812 238.1875 C 40.617188 239.125 40.777344 239.925781 41.105469 241.050781 C 41.523438 242.027344 41.867188 242.988281 42.386719 244.203125 C 42.460938 244.835938 42.902344 246.023438 43.449219 247.390625 C 43.722656 248.074219 44.019531 248.804688 44.3125 249.53125 C 44.457031 249.894531 44.605469 250.261719 44.746094 250.617188 C 44.898438 250.964844 45.050781 251.3125 45.195312 251.640625 C 45.824219 253.121094 46.3125 254.488281 46.804688 255.871094 C 47.054688 256.558594 47.28125 257.261719 47.570312 257.960938 C 47.867188 258.660156 48.183594 259.378906 48.535156 260.128906 C 50.933594 265.402344 52.492188 267.28125 53.9375 269.503906 C 54.8125 270.890625 56.03125 272.53125 57.128906 274.066406 C 58.246094 275.589844 59.285156 276.984375 60.136719 277.664062 C 59.917969 277.226562 59.667969 276.792969 59.460938 276.347656 C 59.257812 275.902344 59.066406 275.472656 58.90625 275.082031 C 57.785156 273.613281 56.507812 272.078125 55.191406 270.351562 C 53.949219 268.578125 52.652344 266.628906 51.398438 264.414062 C 50.648438 262.996094 50.191406 261.761719 49.679688 260.542969 C 49.1875 259.320312 48.613281 258.128906 47.835938 256.671875 L 48.058594 256.5625 C 47.128906 254.601562 46.289062 252.753906 45.523438 250.992188 C 44.785156 249.222656 44.21875 247.496094 43.640625 245.855469 C 43.359375 245.035156 43.089844 244.230469 42.824219 243.4375 C 42.585938 242.632812 42.378906 241.835938 42.167969 241.050781 C 41.757812 239.484375 41.359375 237.949219 40.960938 236.421875 C 39.636719 230.238281 38.367188 224.167969 36.910156 215.949219 C 36.863281 215.410156 36.820312 214.875 36.773438 214.34375 C 36.722656 213.816406 36.6875 213.292969 36.683594 212.769531 C 36.660156 211.726562 36.636719 210.710938 36.617188 209.71875 C 36.605469 207.738281 36.546875 205.890625 36.71875 204.175781 C 36.78125 205.625 36.960938 206.820312 37.128906 207.890625 C 37.296875 208.964844 37.46875 209.910156 37.640625 210.847656 C 37.820312 211.78125 37.957031 212.71875 38.171875 213.753906 C 38.390625 214.789062 38.617188 215.933594 38.847656 217.3125 C 39.308594 219.019531 39.710938 220.816406 40.269531 222.644531 C 40.792969 224.476562 41.265625 226.382812 41.796875 228.320312 C 42.390625 230.242188 42.972656 232.210938 43.554688 234.214844 C 43.820312 235.222656 44.203125 236.203125 44.527344 237.207031 C 44.863281 238.210938 45.203125 239.21875 45.539062 240.226562 C 48.332031 248.28125 51.863281 256.34375 55.894531 263.210938 C 57.296875 265.816406 58.613281 268.363281 60.175781 270.6875 C 60.9375 271.863281 61.691406 273.027344 62.441406 274.1875 C 63.226562 275.316406 64.058594 276.410156 64.871094 277.515625 C 65.691406 278.605469 66.472656 279.730469 67.34375 280.792969 C 68.210938 281.851562 69.085938 282.914062 69.964844 283.988281 C 70.40625 284.523438 70.84375 285.0625 71.285156 285.605469 C 71.730469 286.144531 72.214844 286.652344 72.679688 287.183594 C 73.617188 288.238281 74.5625 289.308594 75.527344 290.398438 C 75.867188 291.203125 77.050781 292.550781 78.441406 294.082031 C 79.144531 294.84375 79.886719 295.65625 80.625 296.457031 C 81.367188 297.246094 82.148438 297.976562 82.820312 298.675781 C 83.667969 299.417969 83.226562 298.480469 84.648438 299.960938 C 85.398438 300.675781 86.019531 301.347656 86.613281 301.921875 C 87.207031 302.488281 87.71875 303.011719 88.171875 303.492188 C 89.078125 304.460938 89.75 305.28125 90.363281 306.0625 C 90.671875 306.453125 90.960938 306.839844 91.269531 307.210938 C 91.585938 307.578125 91.910156 307.945312 92.265625 308.332031 C 92.976562 309.097656 93.8125 309.929688 94.953125 310.917969 C 95.367188 311.269531 95.964844 311.722656 96.617188 312.183594 C 97.285156 312.621094 97.988281 313.085938 98.582031 313.507812 C 99.425781 314.117188 100.644531 315.042969 101.820312 315.9375 C 103 316.832031 104.210938 317.59375 104.917969 318.046875 C 106.210938 318.84375 107.496094 319.613281 108.792969 320.347656 C 110.121094 321.023438 111.441406 321.699219 112.785156 322.382812 C 113.453125 322.722656 114.125 323.066406 114.800781 323.414062 C 115.476562 323.765625 116.1875 324.0625 116.886719 324.398438 C 118.292969 325.0625 119.726562 325.757812 121.191406 326.515625 C 129.675781 330.679688 139.699219 334.585938 149.738281 337.1875 C 151.765625 337.796875 154.089844 338.398438 156.589844 339.003906 C 159.117188 339.496094 161.824219 339.980469 164.613281 340.433594 C 166.011719 340.609375 167.433594 340.78125 168.859375 340.960938 C 170.285156 341.125 171.707031 341.363281 173.140625 341.449219 C 174.574219 341.566406 175.992188 341.695312 177.398438 341.832031 C 178.097656 341.902344 178.792969 341.976562 179.484375 342.046875 C 180.175781 342.089844 180.863281 342.136719 181.539062 342.179688 C 182.601562 342.140625 183.742188 342.121094 184.941406 342.117188 C 186.136719 342.109375 187.398438 342.15625 188.695312 342.082031 C 189.992188 342.050781 191.324219 342.007812 192.679688 341.972656 C 194.03125 341.941406 195.402344 341.925781 196.761719 341.792969 C 198.121094 341.6875 199.480469 341.578125 200.8125 341.46875 C 201.476562 341.410156 202.132812 341.355469 202.78125 341.296875 C 203.429688 341.210938 204.0625 341.105469 204.6875 341.011719 C 205.9375 340.816406 207.136719 340.613281 208.261719 340.394531 C 209.382812 340.175781 210.441406 339.972656 211.390625 339.65625 C 212.820312 339.375 211.871094 339.898438 213.613281 339.511719 C 214.773438 339.199219 215.976562 338.917969 217.175781 338.652344 C 218.375 338.390625 219.550781 338.03125 220.679688 337.738281 C 222.933594 337.101562 224.996094 336.570312 226.378906 335.769531 C 227.605469 335.398438 228.417969 335.203125 229.058594 335.097656 C 229.921875 334.796875 230.792969 334.492188 231.667969 334.1875 C 232.539062 333.882812 233.390625 333.5 234.253906 333.160156 C 235.976562 332.441406 237.726562 331.769531 239.460938 331.003906 C 241.175781 330.203125 242.917969 329.398438 244.679688 328.578125 C 245.570312 328.195312 246.429688 327.71875 247.308594 327.269531 C 248.183594 326.820312 249.066406 326.367188 249.953125 325.910156 C 257.035156 322.195312 264.371094 317.882812 272.210938 312.640625 C 273.570312 311.9375 274.898438 311.246094 276.21875 310.5625 C 277.542969 309.878906 278.796875 309.101562 280.105469 308.363281 C 280.75 307.988281 281.402344 307.613281 282.0625 307.230469 C 282.390625 307.039062 282.71875 306.84375 283.054688 306.652344 C 283.378906 306.453125 283.695312 306.234375 284.019531 306.023438 C 285.3125 305.175781 286.636719 304.292969 288.003906 303.359375 C 289.210938 302.683594 290.324219 301.953125 291.484375 301.199219 C 292.644531 300.445312 293.832031 299.65625 295.101562 298.765625 C 296.347656 297.851562 297.617188 296.785156 299.039062 295.574219 C 299.742188 294.960938 300.488281 294.316406 301.25 293.605469 C 301.988281 292.867188 302.757812 292.078125 303.566406 291.230469 C 304.347656 290.230469 305.082031 289.261719 305.78125 288.316406 C 306.453125 287.355469 307.058594 286.394531 307.648438 285.480469 C 308.800781 283.632812 309.886719 281.953125 310.707031 280.269531 C 311.5625 278.613281 312.3125 277.078125 312.992188 275.65625 C 313.644531 274.21875 314.167969 272.859375 314.683594 271.632812 C 315.609375 270.039062 316.195312 268.886719 316.488281 267.960938 C 316.789062 267.046875 316.898438 266.417969 317.003906 265.929688 C 317.484375 264.980469 317.960938 264.054688 318.425781 263.140625 C 318.660156 262.683594 318.890625 262.234375 319.121094 261.785156 C 319.328125 261.328125 319.535156 260.875 319.738281 260.421875 C 320.566406 258.617188 321.375 256.855469 322.179688 255.089844 C 322.921875 253.292969 323.65625 251.488281 324.417969 249.632812 C 324.605469 249.164062 324.816406 248.707031 324.992188 248.230469 C 325.167969 247.753906 325.339844 247.269531 325.515625 246.777344 C 325.875 245.804688 326.238281 244.8125 326.617188 243.792969 C 327.414062 241.765625 328.03125 239.792969 328.699219 237.917969 C 329.039062 236.980469 329.371094 236.070312 329.695312 235.167969 C 330.03125 234.269531 330.285156 233.363281 330.589844 232.488281 C 331.1875 230.734375 331.765625 229.027344 332.335938 227.347656 C 332.851562 225.648438 333.359375 223.976562 333.867188 222.3125 C 335.761719 215.609375 337.464844 208.796875 337.824219 200.242188 C 337.960938 199.507812 338.132812 199.171875 338.238281 198.042969 C 337.75 196.992188 338.804688 191.246094 338.019531 190.285156 C 337.710938 191.726562 337.425781 194.011719 337.214844 196.578125 C 337.136719 197.863281 336.957031 199.210938 336.824219 200.566406 C 336.6875 201.917969 336.574219 203.273438 336.492188 204.558594 C 336.21875 205.40625 336 206.582031 335.824219 207.914062 C 335.648438 209.242188 335.496094 210.726562 335.25 212.15625 C 335.117188 213.050781 334.871094 213.90625 334.644531 214.738281 C 334.417969 215.566406 334.175781 216.371094 333.941406 217.152344 C 333.460938 218.71875 333.054688 220.21875 332.59375 221.671875 C 332.347656 222.511719 332.273438 223.492188 332.183594 223.8125 C 331.855469 224.984375 331.492188 226.035156 331.125 227.179688 C 330.714844 228.3125 330.25 229.53125 329.800781 231.070312 C 328.84375 234.515625 328.039062 236.714844 327.378906 238.859375 C 327.214844 239.394531 327.050781 239.929688 326.882812 240.46875 C 326.800781 240.742188 326.714844 241.019531 326.628906 241.296875 C 326.53125 241.570312 326.429688 241.851562 326.328125 242.136719 C 325.914062 243.289062 325.460938 244.546875 324.917969 246.054688 C 324.636719 246.816406 324.375 247.589844 324.078125 248.34375 C 323.765625 249.089844 323.453125 249.835938 323.136719 250.578125 C 322.515625 252.070312 321.898438 253.542969 321.292969 254.988281 C 320.632812 256.410156 319.984375 257.800781 319.355469 259.144531 C 319.046875 259.824219 318.746094 260.492188 318.453125 261.144531 C 318.144531 261.792969 317.816406 262.410156 317.511719 263.027344 C 315.152344 267.980469 313.085938 271.894531 312.617188 274.242188 C 311.214844 276.28125 310.496094 277.746094 309.910156 279.1875 C 309.613281 279.902344 309.347656 280.613281 309.015625 281.355469 C 308.660156 282.082031 308.242188 282.851562 307.6875 283.714844 C 305.972656 285.957031 305.378906 286.917969 304.695312 287.800781 C 304.015625 288.679688 303.324219 289.542969 301.464844 291.621094 C 300.917969 292.066406 300.394531 292.515625 299.851562 292.921875 C 299.300781 293.320312 298.757812 293.710938 298.222656 294.101562 C 297.148438 294.855469 296.097656 295.597656 295.0625 296.328125 C 294.042969 297.066406 292.953125 297.707031 291.890625 298.378906 C 290.828125 299.042969 289.761719 299.714844 288.671875 300.398438 C 287.613281 301.109375 286.433594 301.722656 285.285156 302.429688 C 284.125 303.125 282.933594 303.851562 281.703125 304.628906 C 280.433594 305.359375 279.109375 306.125 277.738281 306.960938 C 277.054688 307.382812 276.351562 307.816406 275.632812 308.261719 C 274.894531 308.6875 274.136719 309.125 273.359375 309.574219 C 271.992188 310.578125 270.65625 311.574219 269.421875 312.402344 C 268.152344 313.175781 267.007812 313.820312 266.09375 314.203125 C 267.609375 313.039062 269.367188 311.832031 271.171875 310.390625 C 273 308.980469 275.019531 307.550781 277.011719 305.882812 C 278.027344 305.074219 279.066406 304.246094 280.125 303.40625 C 281.160156 302.539062 282.183594 301.621094 283.238281 300.71875 C 283.765625 300.265625 284.296875 299.808594 284.828125 299.347656 L 285.628906 298.660156 L 286.402344 297.933594 C 287.433594 296.960938 288.472656 295.980469 289.511719 295 C 297.820312 287.132812 304.988281 277.832031 308.972656 270.511719 C 308.644531 270.839844 308.332031 271.214844 308.027344 271.628906 C 307.710938 272.03125 307.386719 272.457031 307.078125 272.90625 C 306.449219 273.800781 305.832031 274.773438 305.183594 275.683594 C 304.734375 276.308594 304.300781 276.945312 303.832031 277.566406 C 303.347656 278.175781 302.863281 278.792969 302.375 279.410156 C 301.394531 280.644531 300.425781 281.910156 299.402344 283.15625 C 297.261719 285.574219 295.171875 288.140625 292.777344 290.53125 C 292.191406 291.144531 291.605469 291.757812 291.015625 292.375 C 290.71875 292.683594 290.429688 293 290.125 293.300781 L 289.1875 294.195312 C 287.9375 295.386719 286.675781 296.59375 285.398438 297.8125 C 284.085938 298.996094 282.726562 300.152344 281.375 301.34375 C 280.042969 302.558594 278.597656 303.667969 277.160156 304.820312 C 276.308594 305.503906 275.464844 306.191406 274.632812 306.882812 C 273.773438 307.542969 272.917969 308.195312 272.066406 308.855469 C 271.210938 309.519531 270.359375 310.179688 269.503906 310.84375 C 269.082031 311.1875 268.644531 311.507812 268.195312 311.816406 C 267.75 312.128906 267.308594 312.445312 266.859375 312.757812 C 265.0625 314.007812 263.28125 315.351562 261.304688 316.496094 C 260.328125 317.085938 259.332031 317.679688 258.324219 318.28125 C 257.816406 318.574219 257.3125 318.894531 256.777344 319.160156 C 256.246094 319.429688 255.707031 319.699219 255.164062 319.976562 C 253.882812 320.597656 252.675781 321.179688 251.492188 321.757812 C 250.902344 322.050781 250.304688 322.304688 249.699219 322.546875 C 249.097656 322.796875 248.496094 323.046875 247.890625 323.300781 C 246.679688 323.808594 245.449219 324.332031 244.144531 324.882812 C 242.816406 325.378906 241.425781 325.917969 239.921875 326.523438 C 239.664062 326.484375 238.335938 327.070312 238.808594 326.605469 C 238.375 326.78125 237.9375 326.960938 237.511719 327.132812 C 237.074219 327.285156 236.636719 327.417969 236.199219 327.558594 C 235.332031 327.824219 234.46875 328.070312 233.617188 328.300781 C 232.765625 328.527344 231.925781 328.746094 231.089844 328.964844 C 230.257812 329.1875 229.410156 329.3125 228.582031 329.492188 C 226.917969 329.828125 225.285156 330.175781 223.667969 330.605469 C 222.03125 330.964844 220.402344 331.382812 218.765625 331.957031 C 219.019531 331.722656 220.285156 331.441406 219.207031 331.515625 "/></g><path style=" stroke:none;fill-rule:evenodd;fill:rgb(94.509888%,94.509888%,94.509888%);fill-opacity:1;" d="M 125.425781 42.796875 C 126.535156 42.300781 127.117188 41.9375 128.054688 41.488281 C 128.710938 41.300781 129.519531 41 130.402344 40.640625 C 131.285156 40.296875 132.222656 39.847656 133.1875 39.515625 C 135.097656 38.8125 136.953125 38.160156 138.035156 38.042969 C 136.085938 38.726562 134.253906 39.371094 132.484375 39.988281 C 130.746094 40.683594 129.074219 41.355469 127.414062 42.015625 C 126.585938 42.351562 125.753906 42.664062 124.933594 43.015625 C 124.121094 43.382812 123.308594 43.75 122.488281 44.121094 C 120.847656 44.875 119.148438 45.585938 117.425781 46.441406 C 117.898438 45.976562 119.878906 45.078125 121.730469 44.246094 C 123.589844 43.429688 125.328125 42.714844 125.425781 42.796875 "/><path style=" stroke:none;fill-rule:evenodd;fill:rgb(94.509888%,94.509888%,94.509888%);fill-opacity:1;" d="M 112.09375 48.890625 C 113.972656 47.953125 113.890625 47.6875 115.636719 46.796875 C 115.066406 47.398438 112.714844 48.621094 112.25 49.1875 C 110.894531 49.859375 112.898438 48.695312 112.09375 48.890625 "/><path style=" stroke:none;fill-rule:evenodd;fill:rgb(94.509888%,94.509888%,94.509888%);fill-opacity:1;" d="M 243.503906 337.386719 C 244.117188 337.027344 245.007812 336.609375 246.050781 336.148438 C 247.085938 335.675781 248.300781 335.234375 249.484375 334.644531 C 251.867188 333.515625 254.386719 332.40625 255.984375 331.449219 C 254.414062 332.488281 252.269531 333.472656 250.066406 334.523438 C 249.511719 334.78125 248.957031 335.050781 248.398438 335.292969 C 247.828125 335.53125 247.261719 335.761719 246.703125 335.992188 C 245.585938 336.460938 244.5 336.921875 243.503906 337.386719 "/></g></svg>