<?xml version="1.0" encoding="utf-8"?>
<!-- Generator: Adobe Illustrator 25.4.1, SVG Export Plug-In . SVG Version: 6.00 Build 0)  -->
<svg version="1.1" id="Layer_1" xmlns="http://www.w3.org/2000/svg" xmlns:xlink="http://www.w3.org/1999/xlink" x="0px" y="0px"
	 viewBox="0 0 133.4 137.3" style="enable-background:new 0 0 133.4 137.3;" xml:space="preserve">
<style type="text/css">
	.st0{fill:#1E1E1E;}
	.st1{fill-rule:evenodd;clip-rule:evenodd;fill:#1E1E1E;}
</style>
<g>
	<g>
		<path class="st0" d="M53.7,87.4c-0.4,0-0.6-0.2-0.7-0.6L52.9,86c0-0.3,0-0.7,0-1.2c0-3.8,0.6-8.9,1.7-15.3c-5.6,2.7-12.9,4-22,4.1
			c-6.9,0-12.8-0.9-17.5-2.6c-2.4-0.9-4.2-1.9-5.4-3.1c-0.7-0.7-1.1-1.2-1.2-1.5l-0.3-0.5C8,65.5,7.9,65.3,7.9,65
			c0-0.5,0.2-0.9,0.7-1.2c0.2-0.1,0.5-0.2,0.8-0.2c0.6,0,1,0.2,1.2,0.7l0.3,0.5c0.1,0.2,0.2,0.3,0.2,0.4s0.2,0.3,0.5,0.6
			c0.9,1,2.3,2,4.3,2.9c2.2,1,4.7,1.7,7.6,2.2c3.5,0.7,7.3,1,11.2,1c5.6,0,10.6-0.7,15-2c2.2-0.7,3.9-1.4,5.2-2.2l0.5-2.7
			c0.8-4,1.9-8,3.3-12.2c0.9-2.5,1.9-4.4,3-5.9c0.8-1,1.6-1.5,2.5-1.5c0.3,0,0.7,0.1,1,0.3l0.1,0.1c0.5,0.5,0.7,1,0.7,1.7
			c0,0.7,0,1.2-0.1,1.8c-0.7,3.2-1.9,6.6-3.7,10.4c-1.9,3.8-3.5,6.6-5,8.2c-0.2,0.9-0.4,1.7-0.5,2.6c0.7-0.9,1.6-1.8,2.8-2.7
			l0.4-0.3c0.7-0.6,1.7-1.2,2.8-1.7c0.3-0.1,0.7-0.2,1.1-0.2h0.1c0.6,0,1.1,0.2,1.5,0.6c0.3,0.5,0.5,0.9,0.5,1.4
			c0,0.5-0.2,1.1-0.5,1.6c-1.4,2.1-4.1,4-8.2,5.6c-0.1,0-0.1,0.1-0.1,0.3c0,0.1,0,0.3,0.1,0.4c0.5,1.7,1.4,2.9,2.7,3.5
			c0.5,0.2,1.1,0.3,1.6,0.3c0.6,0,1.2-0.1,1.8-0.4c1.8-0.7,3.5-1.9,5-3.6v0c1-1.1,1.7-2,2.2-2.7c0.2-0.4,0.4-0.6,0.4-0.6
			c0.1-0.2,0.3-0.3,0.5-0.3c0.1,0,0.2,0,0.4,0.1c0.2,0.1,0.3,0.3,0.3,0.5c0,0.2-0.1,0.3-0.2,0.4l-1.3,1.5l0,0
			c-0.8,1-2.1,2.2-3.8,3.7c-0.9,0.7-1.9,1.4-3.1,1.9c-0.9,0.4-1.8,0.6-2.6,0.6c-0.5,0-1.1-0.1-1.6-0.3c-1.5-0.6-2.7-1.6-3.4-3.1
			c-0.1-0.3-0.2-0.5-0.3-0.6c-0.5,3-0.9,5.3-1.1,7.1l-0.2,2.9c0,0.2-0.1,0.3-0.2,0.4S53.9,87.4,53.7,87.4z M56.6,73
			c3.7-1.7,6.1-3.2,7.2-4.7c0.1-0.2,0.2-0.4,0.3-0.6l0,0v-0.2l0,0c0,0-0.2-0.1-0.5-0.1c-0.2,0-0.3,0-0.4,0.1
			c-0.5,0.1-0.9,0.4-1.4,0.7c-1.4,0.8-2.6,1.8-3.6,2.7C57.3,71.8,56.8,72.5,56.6,73z M57.7,66c1.1-1.5,2.3-3.7,3.7-6.5
			c1.8-3.8,3-7.2,3.5-10.1c0-0.3,0.1-0.6,0.1-0.9c0-0.9-0.2-1.4-0.6-1.4c-0.3,0-0.8,0.4-1.2,1.1c-0.8,1.6-1.6,3.3-2.1,5.2
			c-1,3.1-2,6.7-2.9,10.8L57.7,66z"/>
		<path class="st0" d="M67.9,98.9c-0.2,0-0.5-0.1-0.6-0.2c-0.2-0.2-0.4-0.4-0.4-0.7s-0.1-0.6-0.1-1c0-1.5,0.2-3.8,0.7-7
			c1.6-10.8,2.5-17.3,2.7-19.4c0.1-1.3,0.2-1.9,0.2-1.9l0.1-1.3c-0.1-0.2-0.2-0.4-0.2-0.6c0-0.2,0.1-0.5,0.3-0.7s0.4-0.3,0.6-0.3
			c0.3,0,0.6,0.1,0.8,0.4c0.4,0.4,0.6,1.2,0.6,2.2c0,0.7-0.1,1.5-0.2,2.5c-0.1,1.2-0.6,4.8-1.5,10.7c0.4-1.3,0.8-2.7,1.3-4
			c2-6.4,4.2-10,6.7-10.8c0.3-0.1,0.6-0.1,0.9-0.1c1.1,0,1.9,0.3,2.6,1s1,1.5,1,2.7c0,0.7-0.1,1.4-0.3,2.1c5-2.6,10.6-4.6,17-6.2
			c4.5-1.2,9.1-2,13.8-2.4c1.1-0.1,2.2-0.1,3.3-0.1c1.3,0,2.6,0.1,3.8,0.2c3.8,0.4,6,1.8,6.7,4.1l0,0.3c0,0.2-0.1,0.4-0.2,0.7
			c-0.2,0.3-0.5,0.5-1,0.5c-0.6,0-1-0.3-1.1-0.9c-0.1-0.7-0.7-1.2-1.6-1.7c-1.8-0.8-4.3-1.2-7.7-1.2c-0.7,0-1.4,0-2.1,0.1
			c-4.6,0.3-9.1,0.9-13.6,1.9c-7,1.5-12.9,3.6-17.7,6.1c-1,2.7-2.5,5-4.3,6.9c-0.8,0.8-1.6,1.3-2.4,1.7c-0.3,0.1-0.6,0.2-0.8,0.2
			c-0.2,0-0.3,0-0.5-0.1c-0.6-0.2-0.9-0.6-0.9-1.2c0.1-0.9,0.6-1.8,1.4-2.8c1.5-1.7,3.1-3.2,5-4.3c0.8-1.5,1.2-2.9,1.2-4
			c0-1-0.5-1.5-1.4-1.5c-0.5,0-1.1,0.3-1.7,0.8s-1.2,1.3-1.8,2.3c-1.1,2-2,4-2.7,6.2s-1.4,4.4-1.9,6.6c-1.2,4.9-2.1,9.4-2.7,13.6
			C68.6,98.6,68.3,98.9,67.9,98.9z M74.8,80.8c0.9-0.4,2.3-2.2,4.1-5.2c-1.3,0.9-2.4,2-3.3,3.2C75.2,79.7,74.9,80.3,74.8,80.8z"/>
	</g>
	<g>
		<g>
			<g>
				<g>
					<g>
						<path class="st1" d="M131.6,65.3c-0.1,0.1-0.1-0.2-0.2-0.2c0-0.3,0-0.8,0.1-0.7L131.6,65.3z"/>
					</g>
				</g>
			</g>
			<g>
				<g>
					<g>
						<path class="st1" d="M125.1,35c-0.6-1-0.5-1.2-1-2c-0.5-0.8-0.6-0.6-0.9-0.9c-1.7-2.3-3.2-4.6-5.1-6.4
							c-0.9-0.9-1.8-1.9-2.7-2.8c-0.9-0.8-1.9-1.6-2.8-2.3c0.1,0-0.2-0.3-0.5-0.6c0.2-0.1,0.6,0,1.1,0.3c4.4,3.6,7.7,7.7,11.1,11.9
							C123.7,32,125.7,34.9,125.1,35z"/>
					</g>
				</g>
			</g>
			<g>
				<g>
					<g>
						<path class="st1" d="M78,3.1c-0.3-0.2-1.3-0.3-1.2-0.5C77.5,2.8,77.9,3,78,3.1z"/>
					</g>
				</g>
			</g>
			<g>
				<g>
					<g>
						<path class="st1" d="M71.9,14.1c-0.8,0-2.6-0.1-3-0.2C68.4,14,67.8,14,67.1,14c-0.7,0.1-1.4,0.1-2.4,0.2
							c-0.2-0.1-0.3-0.2-0.4-0.3C66.4,13.3,71.6,13.1,71.9,14.1z"/>
					</g>
				</g>
			</g>
			<g>
				<g>
					<g>
						<path class="st1" d="M27.9,16.3c0.8-0.6-0.6,0.7,0.1,0.1c-0.1,0.2-1.1,0.9-1,0.7C27.2,16.9,27.9,16.4,27.9,16.3z"/>
					</g>
				</g>
			</g>
			<g>
				<g>
					<g>
						<path class="st1" d="M8,37.2c0.1,0,0.1,0.2-0.2,0.7C7.7,37.9,7.7,37.8,8,37.2z"/>
					</g>
				</g>
			</g>
			<g>
				<g>
					<g>
						<path class="st1" d="M0.4,76.8c-0.1,1.5,0.2,1.3,0,2.2c0.3,1.3,0.5,2.8,0.8,4.3c0.1,0.8,0.2,1.5,0.4,2.2
							c0.2,0.7,0.3,1.4,0.5,2.1c0.4,1.3,0.8,2.4,1.2,3.7s1,2.6,1.5,3.9c0.5,1.3,0.9,2.7,1.6,3.9c0.6,1.3,1.2,2.6,1.9,3.8
							c0.3,0.6,0.6,1.2,1,1.8c0.4,0.6,0.7,1.2,1.1,1.8c1.6,2.8,3.6,5.2,5.1,7.5c-1-0.7-2.2-2.1-3.5-3.8c-1.2-1.7-2.3-3.7-3.2-5.3
							c-0.4-0.6-0.7-1-1-1.4C3.7,95.3,1,88.8,0.6,81c-0.3-1.3-0.4-2.4-0.6-3.9c0-0.2,0-0.5,0.1-0.5C0.1,76.3,0.3,76.6,0.4,76.8z"/>
					</g>
				</g>
			</g>
			<g>
				<g>
					<g>
						<path class="st1" d="M11.9,107.2c0.5,0.7,1.4,2.1,1.2,2.1c0.6,0.6,1.1,1.6,1.9,2.5c0.5,0.7,1,1.5,1.4,2.2
							c0.5,0.7,1.2,1.4,1.8,2.1c1.2,1.5,2.6,3,4.2,4.4c1.6,1.4,3.1,2.9,4.9,4.2l2.6,2c0.8,0.7,1.8,1.2,2.7,1.8
							c0.2,0.4-0.6-0.1-1-0.2c-1.4-0.9-2.6-1.8-3.9-2.6c-0.6-0.5-1.2-0.9-1.8-1.3s-1.2-0.9-1.8-1.6c-3.4-2.6-6.5-6.5-8.9-9.7
							c-0.4-0.7-1-1.6-1.7-2.6c-0.3-0.5-0.7-1-1.1-1.6c-0.3-0.6-0.7-1.1-1-1.7C11.3,107,11.7,107.1,11.9,107.2z"/>
					</g>
				</g>
			</g>
			<g>
				<g>
					<g>
						<path class="st1" d="M27.9,124.3l0.1-0.1c0.8,0.6,1.7,1.2,2.4,1.8c0.8,0.6,1.7,1.1,2.5,1.6c-0.4,0-1.4-0.6-2.1-0.8
							C29.7,125.7,28.8,125.1,27.9,124.3z"/>
					</g>
				</g>
			</g>
			<g>
				<g>
					<g>
						<path class="st1" d="M33.1,129.1c0-0.3,1.9,1,2.3,1.3C34.7,130.1,34,129.5,33.1,129.1z"/>
					</g>
				</g>
			</g>
			<g>
				<g>
					<g>
						<path class="st1" d="M80.7,137.3c0.3-0.2,1.7-1,2.7-1c1.1-0.5,2.3-0.8,3.6-1.2c1.3-0.5,2.7-1,4.1-1.6
							c-0.2,0.3,1.3-0.3,1.6-0.5c-0.1-0.1-0.9,0.5-0.7,0.1c1.9-0.8,3.6-1.7,4.8-2.4c0.1,0.1-0.2,0.1-0.2,0.2
							c0.1,0.1,0.4-0.2,0.7-0.3c-0.1,0.1-1.9,1-1.1,0.5c-0.4,0.2-0.4,0.3-0.9,0.5c0.9-0.3-0.2,0.4,1.2-0.3c0,0.1-0.7,0.3-0.6,0.4
							c-0.4,0.2-0.4,0-0.8,0.1c-0.3,0.2-1.1,0.6-1.8,1c-0.6,0.3-1.2,0.5-0.8,0.5c-0.9,0.5-3.1,0.8-3.9,1.4c-0.7,0.3-1.4,0.5-1.9,0.7
							c-0.6,0.2-1.2,0.4-1.8,0.6C83.8,136.4,82.5,136.8,80.7,137.3z"/>
					</g>
				</g>
			</g>
			<g>
				<g>
					<g>
						<path class="st1" d="M97.7,130.3c0.4-0.2,0.9-0.3,0.6,0C97.8,130.5,97.7,130.5,97.7,130.3z"/>
					</g>
				</g>
			</g>
			<g>
				<g>
					<g>
						<path class="st1" d="M99.1,129.4c0.6-0.4,0.6-0.2,1.1-0.5C99.9,129.2,99.1,129.5,99.1,129.4z"/>
					</g>
				</g>
			</g>
			<g>
				<g>
					<g>
						<path class="st1" d="M102.1,127.9c0-0.2,1.2-0.7,1.8-1.2C104,126.9,102.8,127.5,102.1,127.9z"/>
					</g>
				</g>
			</g>
			<g>
				<g>
					<g>
						<path class="st1" d="M105.1,125.8c0.3-0.3,0.3-0.6,1.1-1C106,125.1,105.7,125.4,105.1,125.8z"/>
					</g>
				</g>
			</g>
			<g>
				<g>
					<g>
						<path class="st1" d="M124.4,108.2c0.4-0.7,0.8-1.1,1-1.1C125.1,107.3,124.6,108.1,124.4,108.2z"/>
					</g>
				</g>
			</g>
			<g>
				<g>
					<g>
						<path class="st1" d="M85.8,128c-0.9,0.3-1.8,0.4-2.8,0.7c-0.9,0.2-1.8,0.4-2.6,0.8c-0.5,0.1-1,0.2-1.5,0.4
							c-0.5,0.1-1.1,0.1-1.6,0.2c-1.1,0.1-2.2,0.2-3.3,0.4c-1.1,0.2-2.2,0.2-3.3,0.2c-1.1,0-2.2,0.2-3.1,0.3c-1.4-0.1-3-0.1-4.5-0.2
							c-6.9-0.9-14-2.1-20.6-4.5l-1.4-0.6c-2-0.7-3.9-1.6-5.9-2.7c-1.1-0.5-2.1-1.3-3.2-2.1c-1-0.8-2.2-1.5-3.2-2.5
							c-2-1.9-4-3.7-5.6-5.7c0.1-0.1,0.1-0.1-0.2-0.4c-1.7-1.8-2.9-4-4.2-6c-0.7-1-1.2-2.2-1.8-3.2l-0.9-1.7
							c-0.3-0.6-0.6-1.1-0.9-1.7c-0.6-1.1-1.2-2.2-1.6-3.3c-0.8-1.1-1.3-2.7-2-4.1c-0.2-0.7-0.5-1.5-0.8-2.4
							c-0.2-0.9-0.5-1.8-0.7-2.7c-0.3-0.9-0.6-1.8-0.8-2.6c-0.3-0.8-0.4-1.6-0.6-2.1c-0.1-1.7-0.7-3.2-0.8-5
							c-0.1-1.2-0.1-2.5-0.2-3.8c0-0.6-0.1-1.3-0.1-2c0.1-0.7,0.1-1.4,0.1-2c0.1-1.4,0-2.8,0.2-4.2c0.2-1.4,0.4-2.8,0.6-4.2
							c1.1-5.6,2.7-11.1,5-15.6c0.2-0.9,0.6-1.5,1-2.4c0.8-1.1,1.9-2.9,2.9-4.6c1.2-1.7,2.3-3.4,3.1-4.6c0.7-0.5,1.4-1.3,2.2-2.2
							c0.8-0.9,1.6-1.9,2.6-2.7c1.5-1.2,2.9-2.2,3.8-3.3c0.9-0.6,1.7-1.3,2.6-2c0.9-0.7,1.7-1.4,2.7-2c1.9-1.2,3.9-2.5,6.2-3.3
							c0.9-0.3,1.8-0.7,2.7-1.1c0.9-0.4,1.9-0.5,2.9-0.9c1.2-0.5,2.5-1,3.7-1.4c1.3-0.3,2.6-0.7,3.9-1c0-0.1-0.1-0.1,0.2-0.2
							c0.4-0.1,0.8-0.2,1.3-0.3c0.5-0.1,1-0.2,1.6-0.4c1.1-0.2,2.3-0.5,3.3-0.5c0.8-0.3,1.6-0.4,2.5-0.5c0.9-0.2,1.7-0.2,2.7-0.4
							c1.9-0.4,4-0.2,6.9-0.1c1.1-0.2,2.9,0,4.8,0.2c0.9,0.2,1.9,0.2,2.8,0.4c0.9,0.2,1.8,0.4,2.6,0.5c2.3,0.5,5.9,2.1,7.4,2.9
							c1.4,0.6,2.6,1.4,4.3,2.2c0.5,0.3,0.6,0.5,1.3,0.8c0.3,0.1,0.7,0.2,1.2,0.5c2.6,1.9,7,4.7,10,7.2c0.2,0.4,1.1,1,1.4,1.4
							c4.9,4.2,9.8,9.7,12.5,15.9c-0.1,1.2,0.4,3,0.1,3.6c0.1,0.5,0.6,1.4,0.5,1.6c-0.2,0-0.1,0.3-0.1,0.5c0.4,1.9,1.5,5.4,2.2,7.3
							c0.7,0.9,1.5,2.1,1.6,0.2c1,0,1.5-3,3.1,2.3c0.6,0.8,1,1.7,1.5,1.1c0-0.7,0.1-1.2,0.2-1.9c0-0.6,0-1.4-0.1-2.4
							c0.2,0.4,0.1,0,0.2-0.1c-0.2-1-0.6-2.4-0.5-2.6c0.6,2.4,1,2.7,1.6,4.5c0.8,2,1.4,1,2.1,2.5c0.1,0.6,0,0.7,0.2,1.5
							c0.4,0.4,0.3-0.6,0.7,0.6c0.1-0.5,0-1.1-0.1-2c0.2-0.4,0.3-1.3,0.2-2.3c0-1-0.3-2.2-0.4-3.3c-0.4-1.6-0.7-3-1.1-4.4
							c-0.4-1.3-0.8-2.6-1.2-3.8c-0.6-2.5-1.8-4.8-3-7.2c0.1-0.1-0.1-0.6-0.4-1.3c-0.3-0.6-0.8-1.2-1.1-1.6
							c-0.1-0.4,0.2-0.3-0.2-1.1c-0.5-0.5,0,0.3-0.2,0.4c-0.6-0.7-1.7-2.5-2-3.2c-1.2-1.2-3-3.8-4.5-5.4c-0.4-0.7-1.1-1.7-2.3-3
							c-0.1,0.1-0.5-0.1-0.8-0.3c-0.4-0.4-0.9-0.8-1.2-1.2c-0.4-0.3-0.8-0.7-1.1-1.1c-0.7-0.7-1.4-1.3-2.1-1.9
							c-0.6-0.6-1.3-1.3-2.1-1.9c-0.8-0.6-1.6-1.2-2.6-1.8c-0.5-0.4-1.1-0.9-1.8-1.5c-0.7-0.6-1.6-1-2.5-1.6
							c-4-3.4-11.2-6.5-17.4-7.8c-0.8-0.4-1.9-0.8-3.1-1.1c-0.6-0.1-1.2-0.3-1.8-0.4c-0.6-0.1-1.2-0.2-1.7-0.3
							c-1.7-0.3-3.4-0.8-5.2-1.1c-1.8-0.2-3.6-0.3-5.4-0.3c-0.4,0-0.1,0.1-0.5,0.1c-1.3-0.1-2.8,0.1-4.4,0.2
							c-0.8,0.1-1.6,0.1-2.4,0.2c-0.4,0-0.8,0.1-1.2,0.1c-0.4,0-0.8,0.1-1.1,0.2c-2.1,0.3-4.2,0.4-6.3,0.9c-2.4,0.8-4.1,1.5-5.4,2.3
							c-1.9,0.5-3.7,1.9-5.6,2.3c-0.4,0.2-0.2,0.2-0.9,0.5c-0.4,0.2-0.5,0.1-0.8,0.2c0.1,0.2,0.3,0,0.1,0.3c1.3-0.6,1.9-0.8,3-1.3
							c0.3-0.1,0.4-0.1,0.9-0.3c2.4-1.4,5.4-2.4,8.9-3.5c1.7-0.4,3.5-0.6,5.1-0.9c0.8-0.1,1.6-0.3,2.3-0.4c0.8-0.1,1.4-0.1,2-0.3
							c0.6,0,0.3,0.2,0.8,0.2c1.3-0.3,2.4-0.1,4-0.2c1.1,0,2-0.2,3.3-0.1c1.3,0.1,2.3,0.1,3.4,0.2c1.1,0.2,2.2,0.4,3.6,0.7
							c1.1,0.5,4.1,0.8,4.1,1.2c-0.6,0-1.7-0.6-2.4-0.5c0.5,0.1,1.1,0.2,1.2,0.4c-2.6-0.1-3.6,0.4-6.8,0.2c-2.7-0.2-4.6-0.2-6.1-0.1
							c-2.1,0-4.5,0.1-6.9,0.2c-2.4,0.3-4.9,0.7-7.5,1.2c-1.3,0.3-2.4,0.6-3.7,1c-1.2,0.3-2.4,0.6-3.6,1.1c-1.1,0.4-2.2,0.9-3.3,1.3
							c-0.6,0.3-1.1,0.4-1.5,0.7c-0.5,0.2-1,0.5-1.4,0.7c-1,0.4-1.9,0.8-2.8,1.2c-0.9,0.4-1.9,0.9-2.9,1.7c-0.7,0.3-1.6,0.7-2.6,1.3
							c-1,0.6-2,1.2-2.9,2.1c-1,0.7-1.9,1.6-2.8,2.2c-0.4,0.4-0.8,0.7-1.2,0.9c-0.4,0.3-0.7,0.5-1,0.7c-0.3,0.6-1.3,1.6-2.2,2.4
							c-0.5,0.4-1,0.9-1.5,1.3c-0.4,0.4-0.8,0.7-1.1,0.9c-0.1,0.6-1.5,2-2.4,2.8c-0.1-0.1,0.6-0.9-0.1-0.1c-0.3,0.4-0.3,0.4-0.4,0.6
							c-0.4,0.2-0.8,0.7-1,0.8c-0.6,0.7-0.6,0.9-1.1,1.6c0-0.3,0.1-0.5,0.4-1c0.7-1.1,1-1.2,1.5-1.6c-0.1-0.1-0.4,0.2,0-0.3
							c0.4,0,1-1.2,1.6-1.5c-0.3,0.4-0.5,0.6-0.6,0.8c0.6-0.8,1.3-1.6,1.9-2.3c-0.2,0.2-0.4,0.4-0.2,0.1c-6.6,6.2-10.6,13-13.8,21
							c-0.3,0.4-0.6,1.2-0.9,2c-0.7,2.4-1.3,4.1-1,4.9c0.3-1.5,0.8-2.7,1.3-4.2s1-3.2,2.1-5.3c0.6-0.8,1-1.5,1.4-1.5
							c-1.6,3.5-3.3,7.2-4.2,10.7c-0.1,0.5-0.1,0.7-0.2,1.2c-0.7,2.9-1.3,4.4-1.5,6.4c-0.8,3.9-1,8.2-1.1,12.2
							c0,0.9-0.1,1.8,0.1,2.7c0-1.1,0-2.2,0-3.3c0-1,0.1-2,0.1-2.9c0.1-1.1,0.2-2.6,0.4-4.2c0.2-1.6,0.5-3.2,0.8-4.5
							c0.1-0.7,0.2-1.3,0.4-1.9c0.1-0.6,0.3-1.2,0.4-1.8c0.3-1.2,0.6-2.3,0.9-3.5c0.3-1.2,0.8-2.4,1.2-3.7c0.5-1.3,0.9-2.7,1.6-4.1
							c0.4-0.2,0.7-0.9,1.2-1.9C7.6,44,8,43.4,8.6,42.3c0.2-0.6-0.4,0.3-0.1-0.3c0.4-0.6,0.7-1.1,1-1.1c-0.3,0.6-0.6,1.2-0.8,1.5
							C9,42.2,9.5,40.9,9.8,41c-1,2.2-1.8,4.2-2.6,6.3c-0.6,2.1-1.4,4.2-2.1,6.4c-0.3,0.5-0.6,0.8-0.8,1.5c0.1,0.5,0.6-1.1,0.8-1.3
							c-0.2,1.4-0.7,3.5-0.8,4.6c0,0.3-0.2,0.1-0.3,0.9c-0.4,2.2-0.6,4-0.8,5.7c-0.1,1.7,0,3.3-0.1,5.1c0,0.6-0.1,1.3-0.1,2
							c0.1,0.6,0.1,1.3,0.1,1.9c0.1,1.3,0.1,2.5,0.2,3.8c0.1,1.3,0.3,2.6,0.5,3.9c0.1,0.6,0.2,1.3,0.3,2c0.1,0.7,0.3,1.4,0.5,2.1
							c0,0.4-0.3,0,0,0.7c0.2,0.8,0.4,1.8,0.7,2.7s0.5,2,0.8,2.8c0.6,1.8,1.1,3.5,1.1,4.5c0.5,1.4,0.6,1.8,1,2.7
							c0.2,0.4,0.5,0.7,0.7,1.2c0.1,0.5,0.8,1.9,1.4,3c0.7,1.2,1.1,2.2,1.7,3.5c1.1,2.2,2,2.8,2.7,3.7c0.9,1,2.1,2.6,3,3.1
							c-0.2-0.4-0.5-0.7-0.6-1c-1.1-1.1-2.4-2.3-3.7-4c-0.7-1.2-0.9-2-1.7-3.1l0.1-0.1c-0.5-0.8-0.9-1.5-1.3-2.2
							c-0.4-0.7-0.7-1.4-0.9-2.1c-0.5-1.4-1-2.6-1.5-3.8c-0.4-1.3-0.6-2.5-1-3.9C7,93,6.8,92.3,6.5,91.6c-0.2-0.8-0.4-1.5-0.6-2.4
							c-0.2-1.8-0.5-3.5-0.4-4.9c0.4,2.4,1,3.1,1.5,5.3C7.5,91,8.2,92.4,8.8,94c0.3,0.8,0.6,1.6,1,2.4c0.3,0.8,0.7,1.5,1.1,2.4
							c1.4,3.2,3.3,6.4,5.2,9.1c2.7,4.1,5.7,7.1,9.3,10.3c0.2,0.3,0.7,0.8,1.3,1.5c0.6,0.6,1.3,1.2,2,1.7c0.4,0.3,0.2-0.1,0.9,0.4
							c2.7,2.1,2.5,2.9,4.6,4.3c0.4,0.3,1.1,0.6,1.6,0.9c0.3,0.2,0.9,0.6,1.4,0.9c0.5,0.3,1.1,0.6,1.4,0.7c2.3,1,4.5,1.8,7.2,2.7
							c0.9,0.4,1.9,0.7,2.8,1.1c1,0.3,2,0.6,3,0.9c1.1,0.3,2.1,0.6,3.1,0.8c1,0.2,2.2,0.4,3.2,0.5c0.9,0.2,1.8,0.4,2.9,0.5
							c1,0.1,2.2,0.1,3.4,0.2c1.2,0,2.4,0.1,3.6,0.1c1.2-0.1,2.4-0.1,3.5-0.1c0.9-0.2,1.9-0.1,2.9-0.3c1.1-0.2,2.2-0.4,3.3-0.5
							c1.1-0.2,2.2-0.3,3.2-0.7c1-0.3,1.9-0.7,2.7-1c0.6-0.2,0.2,0.1,1-0.1c1.9-0.6,4-1.4,5-2.3c0.5-0.2,0.8-0.3,1.1-0.4
							c5.4-2.8,10.6-6.4,16.6-11.3c2.1-1.4,4.3-2.4,6.4-4.2c1-0.6,1.9-1.2,2.9-2c1-0.8,2.1-1.9,3.3-3.4c0.3-0.4,0.6-0.9,0.8-1.3
							c0.2-0.4,0.4-0.9,0.6-1.3c0.4-0.8,0.7-1.6,0.9-2.4c0.2-0.7,0.5-1.4,0.7-2c0.2-0.7,0.3-1.3,0.4-1.8c0.6-1.4,0.6-2.1,0.6-2.5
							c0.7-1.6,1.1-3.2,1.6-4.7c0.5-1.5,1-3.1,1.3-4.8c1.6-6.9,3.3-11.3,3-18.4c0-0.3,0.1-0.5,0.1-0.9c-0.3-0.4,0.1-2.9-0.4-3.2
							c-0.3,1.3-0.3,3.8-0.2,6c-0.2,0.7-0.2,2-0.3,3.2c-0.2,1.5-0.5,2.8-0.8,4c-0.1,0.3,0,0.8-0.1,0.9c-0.2,1-0.5,1.7-0.8,3.1
							c-0.2,1.4-0.5,2.4-0.7,3.3c-0.2,0.9-0.4,1.8-0.7,3.1c-0.1,0.7-0.3,1.3-0.5,1.9c-0.2,0.6-0.4,1.3-0.6,1.9
							c-0.4,1.2-0.6,2.5-1.1,3.5c-0.8,2.1-1.3,3.9-1.3,4.9c-1,1.8-0.8,2.7-1.4,4.2c-1.1,2.1-0.8,1.7-2.2,3.5
							c-0.9,0.8-1.8,1.5-2.6,2.1c-0.8,0.7-1.8,1.2-2.7,1.8c-0.9,0.6-1.8,1.2-2.8,1.9c-1,0.6-2.2,1.3-3.4,2.2c-0.5,0.5-1,0.9-1.5,1.4
							c-0.5,0.4-1,0.6-1.3,0.8c2.3-2.2,5.6-5.3,8.7-8.9c0.8-0.9,1.4-1.8,2.2-2.8c0.7-0.9,1.4-1.8,2-2.8c1.1-1.9,2.1-3.7,2.7-5.3
							c-0.5,0.6-0.9,1.5-1.4,2.2c-0.7,1.1-1.3,2.1-2,3.3c-0.8,1.1-1.6,2.2-2.4,3.2c-0.8,1.2-1.8,2.2-2.7,3.3c-1,1.1-1.9,2.3-3,3.2
							c-0.6,0.6-1.3,1.2-1.9,1.9c-0.6,0.7-1.2,1.3-1.9,1.9c-1.4,1.1-2.7,2.4-4.4,3.5c-1,0.6-1.9,1.1-2.9,1.6c-0.5,0.2-1,0.6-1.5,0.8
							c-0.6,0.3-1,0.5-1.7,0.8c-0.1-0.1-0.6,0.3-0.4,0c-1.4,0.7-2.7,1.3-4,1.6c-1.4,0.3-2.6,0.7-3.9,1.4
							C85.7,128.1,86.2,127.9,85.8,128z M127.5,56.3C127.5,56,127.6,56,127.5,56.3c0.1-0.1,0-0.5-0.1-0.7c0.1,0.1,0.3,0.8,0.3,0.9
							c0-0.4-0.1-0.9-0.1-1.4C128.2,56.2,127.9,57.2,127.5,56.3z M123.6,41.8c0.3-0.4,1.8,2.5,2.1,3.2c0.3,0.7,0.6,1.9,0.1,1.2
							C125.3,45.5,124.4,43,123.6,41.8z M119.7,36.5c-0.1,0.1-0.2,0.1-0.3,0c-0.5-1.2-2.4-3.4-2.7-4.4
							C118,33.9,118.3,34.4,119.7,36.5z M115.8,30.1c0,0.2-0.4-0.3-0.5-0.2c-0.2-0.3-0.6-0.8-0.6-1
							C115.3,29.4,115.2,29.5,115.8,30.1z M114.4,30.3c-0.8-1-1.8-2.1-2.6-3.2c-0.9-1.1-2.1-2.1-3.2-3c-0.5-0.4-1-0.8-1.5-1.2
							c-0.5-0.4-1-0.7-1.6-1c-1-0.7-2-1.3-2.8-2c1,0.5,2.3,1.4,3.4,2.2c0.6,0.4,1.2,0.8,1.7,1.2c0.5,0.4,1,0.7,1.5,1
							c0.8,0.8,1.7,1.7,2.5,2.5c0.8,0.9,1.5,1.7,2.2,2.3C114,29.4,114.7,30.2,114.4,30.3z M114.2,28.3l-0.1,0.1
							c-0.7-0.7-1.9-1.9-1.8-2.2C113.2,27,113.4,27.4,114.2,28.3z M112.2,25.9c-0.1-0.1-0.3-0.1-0.3,0
							C111.1,25.2,111.5,25.2,112.2,25.9z M112.7,25.1c-0.1-0.3-0.9-0.8-1.2-1.2c-0.7-0.7-1-1.3-1.6-1.8c-0.6-0.5-1-0.9-1.5-1.2
							c-0.5-0.3-1-0.7-1.9-1.2c-0.5-0.3-0.4-0.1-0.7-0.2c-1-0.6-1.9-1.3-2.8-1.9c-1-0.6-1.9-1.1-2.9-1.7c-1-0.6-1.9-1.1-2.9-1.6
							c-1-0.5-2-1-3-1.4c-1-0.5-2-1-3.1-1.4c-1.1-0.4-2.1-0.8-3.3-1.2c-0.5-0.2-1.1-0.4-1.7-0.7C85.7,9.3,85,9.2,84.5,9
							c-1.2-0.3-2.4-0.7-3.7-1.1c0.5-0.4,3.5,0.6,3.3-0.2c0.7,0.2,1.4,0.3,2,0.5c0.7,0.2,1.3,0.5,1.9,0.7c1.2,0.5,2.3,0.9,3.5,1.3
							c1.1,0.3,2.2,0.9,3.2,1.4c1.1,0.5,2.2,0.9,3.3,1.3c1.4,0.8,2.7,1.7,4.1,2.5c0.6,0.5,1.4,0.8,2.1,1.4c0.7,0.5,1.4,1.1,2.2,1.7
							c0.8,0.6,1.6,1.2,2.4,1.8c0.7,0.6,1.4,1.3,1.9,1.9C111.8,23.3,112.6,24.4,112.7,25.1z M100,13.8c-0.7-0.4-0.6-0.5-1-0.8
							c-1.4-0.8-2.1-1.2-3-1.7c-0.5-0.3-1.3-0.6-2.1-1c-0.4-0.2-0.8-0.4-1.2-0.6c-0.5-0.1-0.9-0.3-1.3-0.4C89.7,8.6,88,8,87.2,7.5
							c1.4,0.6,2.5,0.5,4.1,1.2c0.6,0.1,1.2,0.1,1.8,0.3c0.6,0.2,1.3,0.4,1.9,0.6c0.7,0.2,1.5,0.6,2.4,1.1c0.9,0.4,1.9,0.9,2.9,1.6
							c0.9,0.6,1.8,1.4,2.6,1.9c1.7,1.1,3.3,2.2,4,3c-0.4,0.1-1.7-0.7-3.1-1.6C102.4,14.9,100.9,14,100,13.8z M102.1,19.5
							c-0.5-0.2-0.8-0.4-1.6-0.9C100.7,18.4,101.7,19.1,102.1,19.5z M69.8,9.1c-3.1-0.3-6,0.2-9.4,0.3c-1.5,0.2-2.7,0.3-4,0.4
							c-0.6,0.1-1.3,0.1-2.1,0.2c-0.8,0.1-1.6,0.4-2.5,0.6c-1.1,0.3-1.8,0.6-3.5,1.1c-1.9,0.7-3.7,1.2-4.9,2c-1.1,0.3-2,0.8-3,1.2
							c-0.9,0.4-1.8,0.9-2.6,1.4c0.3-0.6,2.6-2.1,4.1-3.2C51.2,9.6,61,7.8,69.9,9L69.8,9.1z M27.4,23.6c0,0.1-0.5,0.4-0.5,0.5
							c-1.8,1.5-3,2.9-4.3,4.1c-0.5,0.6-1.2,1.2-1.9,2c-1,1.1-2,2.6-2.6,2.9c-0.6,1.2-2.3,3-3,4.3c-0.1-0.2,1-2.1,0-1.1
							c-0.3,0.5-0.1,0.7-0.3,1.2c-0.7,1.2-1.3,2-1.6,2c0.4-0.9,1.2-2.7,2.4-4.3c1.2-1.6,2.4-3.3,3.3-4.1c1-1.4,2.1-2.4,3.3-3.6
							c0-0.1-0.3,0.2-0.5,0.4c1.4-1.7,3.6-2.6,5.2-4.2C27.2,23.5,27,23.9,27.4,23.6z M13.1,40.2c-0.3,0.4-0.5,0.6-0.7,0.9
							c-0.1-0.2,0.1-0.5,0.4-1.1C13.1,39.5,13.1,39.8,13.1,40.2z M10.1,51.7c-0.2,0.7-0.6,1.5-0.8,2.3c-0.2,0.7-0.4,1.6-0.5,2.3
							c-0.2,0.8-0.4,1.5-0.5,2.3C8,59.4,7.9,60.2,7.8,61C7.6,63.2,7,65.7,7,68.2c-0.1,1.2-0.1,2.5-0.1,3.8c0.1,1.2,0.2,2.4,0.3,3.5
							c0,0.8-0.1,2.2,0.2,3.4c0.2,1.3,0.4,2.5,0.7,3.1c0.1,0.8,0.2,1.7,0.4,2.5l0.7,2.3c0.5,1.6,0.9,3.1,1.6,4.5
							c0.7,1.9,1.3,4,2.4,5.9c0.5,1,1,2,1.5,3c0.5,1,1.1,2,1.7,2.9c0.5,0.9,0.7,1.7,1.2,2.6c0.5,0.8,1.3,1.6,1.8,2.5
							c0.8,1.3,1.5,2.6,2.5,3.7c0.4,0.5,1.1,1.1,1.5,1.7c0.3,0.4,0.4,0.6,0.6,1c0.7,1,2,1.9,2.6,2.7c0.7,0.6,1.4,1.2,2,1.7
							c0.7,0.6,1.5,1,2.2,1.6c0.8,0.5,1.5,1.1,2.3,1.6c0.8,0.6,1.7,1.1,2.7,1.6c-0.9-0.4-1.8-0.8-2.7-1.2c-0.7-0.4-1.4-0.6-1.9-0.6
							c-0.9-0.7-1.8-1.3-2.6-1.9c-0.9-0.6-1.6-1.5-2.4-2.2c-0.6-0.5-0.9-0.9-1.4-1.4c-0.2-0.2-0.5-0.5-0.9-0.8
							c-0.3-0.3-0.7-0.7-1.1-1.2c-0.8-0.8-1.6-1.6-2.4-2.4c-0.5-0.5-1-1.1-1.4-1.7l-1.3-1.8c-0.4-0.6-0.8-1.2-1.3-1.8
							c-0.4-0.6-0.8-1.2-1.2-1.8c-0.7-1-1.3-2.1-1.9-3c-0.6-1-1-2-1.3-2.9c-0.5-0.9-0.9-1.8-1.4-2.8c-0.4-1-0.7-2-1.1-3
							c-0.4-1-0.7-2-1.1-2.9c-0.3-0.9-0.6-1.8-0.9-2.6c-0.2-1.4-0.7-2.8-0.9-4.1c-0.3-1.3-0.5-2.7-0.7-3.9c0.1-0.6,0-1.2,0.1-1.8
							c0.1-0.7,0.1-1.4,0.2-2.2S6,74.2,6,73.3c0-0.4,0-0.9-0.1-1.4c0-0.5,0-0.9,0-1.4c0-1.6-0.2-2.9-0.4-4.1
							c-0.2-1.2-0.2-2.3-0.2-3.6C5.9,61.5,5.6,60.4,6,59c0.3-1.1,0.7-2.2,1.1-3.5c0.2-0.7,0.4-1.3,0.6-2c0.3-0.7,0.5-1.4,0.7-2.2
							C8.7,51.9,9,52,9.1,52.8C9.5,52.6,9.9,51.6,10.1,51.7z M37,124.7c0.1-0.1,0.4,0,0.4-0.2c0.9,0.8,2.3,1.1,3.2,1.4
							c1.5,0.6,2.8,1.3,4.2,1.7c1.4,0.4,2.7,0.8,4.3,1.4c0.6,0.3,1,0.5,1.6,0.7c2.2,0.5,4.3,1.3,6.4,1.5c1.1,0.2,2.3,0.3,3.4,0.5
							s2.3,0.1,3.4,0.2c1.2,0.1,2.4,0.3,3.6,0.3c1.2,0,2.2,0,3.3-0.3c2.4,0.1,5.7-0.3,7.7-0.7c1,0,2.3-0.4,3.7-0.6
							c0.7-0.1,1.4-0.3,2.1-0.5c0.7-0.1,1.4-0.3,2-0.5c1.2-0.5,2.2-0.9,3.3-1.4c0.5-0.2,1-0.4,1.5-0.7c0.5-0.2,0.9-0.5,1.4-0.8
							c0.9-0.5,1.9-1,2.9-1.6c1.1-0.4,2.1-1.2,3.4-1.8c-0.8,0.6-1.8,1.4-2.8,1.9c-1,0.6-2,1.1-2.6,1.6c-1,0.4-1.8,1-2.7,1.4
							c-0.9,0.4-1.7,0.8-2.3,1.1c-1.2,0.5-2.6,1.2-4,1.5c-1.6,0.5-2.4,1-4.9,1.6c-1,0.2-2,0.3-3.1,0.5c-1.2,0.1-2.4,0.4-3.6,0.4
							c-1.2,0-2.4,0-3.3,0.1c-0.5,0.1-1.1,0.2-1.6,0.2c-1.2,0.1-2.7-0.3-4-0.4c-0.2,0-0.9,0-1.2,0.1c-0.7-0.1-1.4-0.2-2-0.3
							c-1.1-0.2-2.2-0.4-3.4-0.6c-0.6-0.1-1.2-0.2-1.8-0.3c-0.7-0.1-1.3-0.3-1.9-0.5c-1.3-0.3-2.6-0.6-3.9-1
							c-1.3-0.5-2.5-0.9-3.8-1.4c-1-0.4-1.9-0.8-2.8-1.3c-0.7-0.3-1.4-0.6-2-0.9C39.3,126.2,38.3,125.4,37,124.7z M86.7,128
							c0.6-0.2,0.4-0.2,0.8-0.3C87.7,127.7,86.6,128.2,86.7,128z"/>
					</g>
				</g>
			</g>
			<g>
				<g>
					<g>
						<path class="st1" d="M34.5,12.3c0.4-0.2,0.7-0.5,1-0.7c1.1-0.4,3.1-1.7,4.1-1.8c-1.6,0.8-2.9,1.5-4.3,2.1
							c-0.7,0.3-1.3,0.7-2,1.1c-0.7,0.4-1.3,0.8-2,1.2C31.6,13.9,34.3,12.3,34.5,12.3z"/>
					</g>
				</g>
			</g>
			<g>
				<g>
					<g>
						<path class="st1" d="M29.1,15.5c0.8-0.5,0.7-0.6,1.4-1.1c-0.2,0.3-1.1,0.9-1.3,1.2C28.6,16,29.4,15.4,29.1,15.5z"/>
					</g>
				</g>
			</g>
			<g>
				<g>
					<g>
						<path class="st1" d="M96.8,131.3c0.5-0.4,1.5-0.8,2.4-1.4c0.9-0.6,1.9-1.2,2.5-1.7c-0.6,0.5-1.4,1.1-2.3,1.7
							C98.6,130.4,97.6,130.8,96.8,131.3z"/>
					</g>
				</g>
			</g>
		</g>
	</g>
</g>
<rect x="189.3" y="260.2" style="fill-rule:evenodd;clip-rule:evenodd;fill:none;" width="2.2" height="0"/>
<rect x="460.2" y="189.2" style="fill-rule:evenodd;clip-rule:evenodd;fill:none;" width="2.2" height="0"/>
</svg>
