<?xml version="1.0" encoding="utf-8"?>
<!-- Generator: Adobe Illustrator 25.4.1, SVG Export Plug-In . SVG Version: 6.00 Build 0)  -->
<svg version="1.1" id="Layer_1" xmlns="http://www.w3.org/2000/svg" xmlns:xlink="http://www.w3.org/1999/xlink" x="0px" y="0px"
	 viewBox="0 0 314.4 33.9" style="enable-background:new 0 0 314.4 33.9;" xml:space="preserve">
<g>
	<path d="M8,32.8c0,0.7-0.6,1.3-1.3,1.3c-0.8,0-1.3-0.6-1.3-1.3V1.4c0-0.7,0.6-1.2,1.4-1.2C7.4,0.2,8,0.7,8,1.4V32.8z M10.5,17.4
		c-0.2-0.3-0.4-0.7-0.4-1c0-0.4,0.1-0.7,0.4-1L24.9,0.7c0.3-0.3,0.7-0.5,1.2-0.5c0.6,0,1.1,0.5,1.1,1.1c0,0.3-0.1,0.7-0.4,1
		l-14,13.9L27.4,32c0.2,0.3,0.3,0.6,0.3,0.9c0,0.6-0.5,1.2-1.2,1.2c-0.4,0-0.8-0.2-1.1-0.6L10.5,17.4z"/>
	<path d="M78.8,31.5c0.1,0.1,0.2,0.3,0.2,0.5c0,0.4-0.2,0.8-0.5,1c-1.3,0.7-2.8,1.2-4.5,1.2c-4.8,0-6.8-3-6.8-8.5V7.5
		c0-0.7,0.5-1.2,1.3-1.2c0.7,0,1.2,0.5,1.2,1.2v4.8h7.6c0.6,0,1.1,0.5,1.1,1.2c0,0.6-0.5,1.2-1.1,1.2h-7.6v10.7
		c0,4.2,1.4,6.5,4.8,6.5c1,0,1.8-0.3,2.6-0.7c0.2-0.1,0.4-0.2,0.7-0.2C78.2,30.9,78.5,31.1,78.8,31.5z"/>
	<path d="M86.6,32.9c0,0.7-0.5,1.2-1.2,1.2c-0.7,0-1.2-0.5-1.2-1.2V1.5c0-0.7,0.5-1.2,1.3-1.2c0.7,0,1.2,0.5,1.2,1.2v13.7
		c1.7-1.9,4.8-3.3,7.8-3.3c5.9,0,9,2.9,9,9.7v11.3c0,0.7-0.5,1.2-1.3,1.2c-0.7,0-1.2-0.5-1.2-1.2V22c0-5.2-2.3-7.7-7.1-7.7
		c-2.9,0-5.8,1.6-7.2,3.3V32.9z"/>
	<path d="M130.2,22.6c0,0.5-0.5,1-1,1h-16.9c0.2,5.2,3.6,8.4,8.8,8.4c2.5,0,4.3-0.8,5.9-1.9c0.2-0.1,0.4-0.2,0.7-0.2
		c0.3,0,0.7,0.1,1,0.5c0.1,0.2,0.2,0.4,0.2,0.7c0,0.3-0.1,0.6-0.3,0.8c-2.1,1.6-5,2.5-7.5,2.5c-6.8,0-11.5-4.4-11.5-11.2
		c0-6.3,3.8-11.2,10.9-11.2c5.6,0,9.8,3.8,9.8,9.7C130.2,22,130.2,22.3,130.2,22.6z M120.2,14.2c-4.8,0-7.6,3.1-8.1,7.3h15.6
		C127.6,17,124.7,14.2,120.2,14.2z"/>
	<path d="M138.8,32.9c0,0.7-0.5,1.2-1.2,1.2c-0.7,0-1.2-0.5-1.2-1.2V13.4c0-0.7,0.5-1.2,1.3-1.2c0.7,0,1.2,0.5,1.2,1.2v1.8
		c1.2-1.8,3-3.3,5.8-3.3c1.2,0,2,0.2,2.5,0.4c0.5,0.2,0.8,0.6,0.8,1.1c0,0.2,0,0.3-0.1,0.5c-0.2,0.5-0.6,0.7-1.1,0.7
		c-0.2,0-0.4,0-0.7-0.1c-0.5-0.2-1-0.2-1.9-0.2c-2.8,0-4.3,1.8-5.3,3.5V32.9z"/>
	<path d="M154.6,5.6c-1,0-1.8-0.7-1.8-1.8c0-1,0.8-1.6,1.8-1.6c0.8,0,1.6,0.6,1.6,1.6C156.2,5,155.4,5.6,154.6,5.6z M155.7,32.9
		c0,0.7-0.5,1.2-1.2,1.2c-0.7,0-1.2-0.5-1.2-1.2V13.4c0-0.7,0.5-1.2,1.3-1.2c0.7,0,1.2,0.5,1.2,1.2V32.9z"/>
	<path d="M167,32.9c0,0.7-0.5,1.2-1.2,1.2c-0.7,0-1.2-0.5-1.2-1.2V13.4c0-0.7,0.5-1.2,1.3-1.2c0.7,0,1.2,0.5,1.2,1.2v1.9
		c1.6-1.9,4.7-3.4,7.8-3.4c5.9,0,9,2.9,9,9.6v11.3c0,0.7-0.5,1.2-1.3,1.2c-0.7,0-1.2-0.5-1.2-1.2V22c0-5.3-2.3-7.8-7.1-7.8
		c-3,0-5.8,1.6-7.2,3.3V32.9z"/>
	<path d="M210.5,22.6c0,0.5-0.5,1-1,1h-16.9c0.2,5.2,3.6,8.4,8.8,8.4c2.5,0,4.3-0.8,5.9-1.9c0.2-0.1,0.4-0.2,0.7-0.2
		c0.3,0,0.7,0.1,1,0.5c0.1,0.2,0.2,0.4,0.2,0.7c0,0.3-0.1,0.6-0.3,0.8c-2.1,1.6-5,2.5-7.5,2.5c-6.8,0-11.5-4.4-11.5-11.2
		c0-6.3,3.8-11.2,10.9-11.2c5.6,0,9.8,3.8,9.8,9.7C210.6,22,210.6,22.3,210.5,22.6z M200.5,14.2c-4.8,0-7.6,3.1-8.1,7.3H208
		C207.9,17,205.1,14.2,200.5,14.2z"/>
	<path d="M249.6,10.3c0,5.2-3.6,10.3-12,10.3c-1.6,0-3.6,0-5.6-0.2v12.4c0,0.7-0.6,1.3-1.3,1.3c-0.7,0-1.3-0.6-1.3-1.3V1.7
		c0-0.8,0.6-1.4,1.4-1.4c2.2,0,5.3-0.1,6.8-0.1C247,0.2,249.6,5.3,249.6,10.3z M232.1,17.8c1.9,0.1,3.6,0.2,5.5,0.2
		c6.1,0,9.3-3.2,9.3-7.8c0-4.4-2.6-7.6-8.9-7.6c-1.5,0-4.2,0-5.8,0.1V17.8z"/>
	<path d="M258.5,5.6c-1,0-1.8-0.7-1.8-1.8c0-1,0.8-1.6,1.8-1.6c0.8,0,1.6,0.6,1.6,1.6C260.2,5,259.3,5.6,258.5,5.6z M259.7,32.9
		c0,0.7-0.5,1.2-1.2,1.2c-0.7,0-1.2-0.5-1.2-1.2V13.4c0-0.7,0.5-1.2,1.3-1.2c0.7,0,1.2,0.5,1.2,1.2V32.9z"/>
	<path d="M279.5,31.5c0.1,0.1,0.2,0.3,0.2,0.5c0,0.4-0.2,0.8-0.5,1c-1.3,0.7-2.8,1.2-4.5,1.2c-4.8,0-6.8-3-6.8-8.5V7.5
		c0-0.7,0.5-1.2,1.3-1.2c0.7,0,1.2,0.5,1.2,1.2v4.8h7.6c0.6,0,1.1,0.5,1.1,1.2c0,0.6-0.5,1.2-1.1,1.2h-7.6v10.7
		c0,4.2,1.4,6.5,4.8,6.5c1,0,1.8-0.3,2.6-0.7c0.2-0.1,0.4-0.2,0.7-0.2C278.9,30.9,279.3,31.1,279.5,31.5z"/>
	<path d="M295.3,31.5c0.1,0.1,0.2,0.3,0.2,0.5c0,0.4-0.2,0.8-0.5,1c-1.3,0.7-2.8,1.2-4.5,1.2c-4.8,0-6.8-3-6.8-8.5V7.5
		c0-0.7,0.5-1.2,1.3-1.2c0.7,0,1.2,0.5,1.2,1.2v4.8h7.6c0.6,0,1.1,0.5,1.1,1.2c0,0.6-0.5,1.2-1.1,1.2h-7.6v10.7
		c0,4.2,1.4,6.5,4.8,6.5c1,0,1.8-0.3,2.6-0.7c0.2-0.1,0.4-0.2,0.7-0.2C294.7,30.9,295.1,31.1,295.3,31.5z"/>
	<path d="M299.5,30.3c0.2-0.2,0.5-0.3,0.8-0.3s0.6,0.1,0.9,0.3c1.5,1.2,3.6,1.8,5.4,1.8c2.5,0,4.8-1.2,4.8-3.9c0-5.4-12-2.7-12-10.7
		c0-3.5,2.8-5.7,7-5.7c2.5,0,4.7,0.7,6.1,1.7c0.2,0.1,0.4,0.5,0.4,0.8c0,0.3,0,0.5-0.2,0.7c-0.2,0.3-0.5,0.4-0.9,0.4
		c-0.2,0-0.5-0.1-0.8-0.2c-1.3-0.8-2.8-1.2-4.6-1.2c-2.7,0-4.4,1.6-4.4,3.5c0,5.7,12,3,12,10.6c0,4.3-3.6,6.2-7.8,6.2
		c-2.6,0-5.2-0.9-6.8-2.4c-0.2-0.2-0.3-0.5-0.3-0.8S299.3,30.6,299.5,30.3z"/>
</g>
<g>
	<g>
		<polygon points="40.2,19.8 32.8,33.9 29.7,33.9 38.7,16.9 		"/>
		<polygon points="47.8,5.5 50.9,11.4 52.4,8.7 47.8,0 43.1,8.7 44.6,11.5 		"/>
		<polygon points="65.9,33.9 63,33.9 55.4,19.7 56.8,16.9 		"/>
	</g>
</g>
</svg>
